ISO-10303-21;
HEADER;
/* Generated by software containing ST-Developer
 * from STEP Tools, Inc. (www.steptools.com) 
 */

FILE_DESCRIPTION(
/* description */ (''),
/* implementation_level */ '2;1');

FILE_NAME(
/* name */ 'ACT12_Choke.step',
/* time_stamp */ '2026-08-29T17:25:04-07:00',
/* author */ (''),
/* organization */ (''),
/* preprocessor_version */ 'ST-DEVELOPER v20.1',
/* originating_system */ 'Autodesk Translation Framework v15.8.0.0',
/* authorisation */ '');

FILE_SCHEMA (('AUTOMOTIVE_DESIGN { 1 0 10303 214 3 1 1 }'));
ENDSEC;

DATA;
#10=MECHANICAL_DESIGN_GEOMETRIC_PRESENTATION_REPRESENTATION('',(#13),#979);
#11=SHAPE_REPRESENTATION_RELATIONSHIP('SRR','None',#986,#12);
#12=ADVANCED_BREP_SHAPE_REPRESENTATION('',(#14),#978);
#13=STYLED_ITEM('',(#995),#14);
#14=MANIFOLD_SOLID_BREP('Body1',#615);
#15=FACE_BOUND('',#62,.T.);
#16=FACE_BOUND('',#76,.T.);
#17=FACE_OUTER_BOUND('',#47,.T.);
#18=FACE_OUTER_BOUND('',#48,.T.);
#19=FACE_OUTER_BOUND('',#49,.T.);
#20=FACE_OUTER_BOUND('',#50,.T.);
#21=FACE_OUTER_BOUND('',#51,.T.);
#22=FACE_OUTER_BOUND('',#52,.T.);
#23=FACE_OUTER_BOUND('',#53,.T.);
#24=FACE_OUTER_BOUND('',#54,.T.);
#25=FACE_OUTER_BOUND('',#55,.T.);
#26=FACE_OUTER_BOUND('',#56,.T.);
#27=FACE_OUTER_BOUND('',#57,.T.);
#28=FACE_OUTER_BOUND('',#58,.T.);
#29=FACE_OUTER_BOUND('',#59,.T.);
#30=FACE_OUTER_BOUND('',#60,.T.);
#31=FACE_OUTER_BOUND('',#61,.T.);
#32=FACE_OUTER_BOUND('',#63,.T.);
#33=FACE_OUTER_BOUND('',#64,.T.);
#34=FACE_OUTER_BOUND('',#65,.T.);
#35=FACE_OUTER_BOUND('',#66,.T.);
#36=FACE_OUTER_BOUND('',#67,.T.);
#37=FACE_OUTER_BOUND('',#68,.T.);
#38=FACE_OUTER_BOUND('',#69,.T.);
#39=FACE_OUTER_BOUND('',#70,.T.);
#40=FACE_OUTER_BOUND('',#71,.T.);
#41=FACE_OUTER_BOUND('',#72,.T.);
#42=FACE_OUTER_BOUND('',#73,.T.);
#43=FACE_OUTER_BOUND('',#74,.T.);
#44=FACE_OUTER_BOUND('',#75,.T.);
#45=FACE_OUTER_BOUND('',#77,.T.);
#46=FACE_OUTER_BOUND('',#78,.T.);
#47=EDGE_LOOP('',(#387,#388,#389,#390));
#48=EDGE_LOOP('',(#391,#392,#393,#394));
#49=EDGE_LOOP('',(#395,#396,#397,#398));
#50=EDGE_LOOP('',(#399,#400,#401,#402));
#51=EDGE_LOOP('',(#403,#404,#405,#406));
#52=EDGE_LOOP('',(#407,#408,#409,#410));
#53=EDGE_LOOP('',(#411,#412,#413,#414));
#54=EDGE_LOOP('',(#415,#416,#417,#418));
#55=EDGE_LOOP('',(#419,#420,#421,#422));
#56=EDGE_LOOP('',(#423,#424,#425,#426));
#57=EDGE_LOOP('',(#427,#428,#429,#430));
#58=EDGE_LOOP('',(#431,#432,#433,#434));
#59=EDGE_LOOP('',(#435,#436,#437,#438));
#60=EDGE_LOOP('',(#439,#440,#441,#442));
#61=EDGE_LOOP('',(#443,#444,#445,#446,#447,#448,#449,#450));
#62=EDGE_LOOP('',(#451,#452,#453,#454));
#63=EDGE_LOOP('',(#455,#456,#457,#458,#459,#460,#461,#462,#463,#464,#465,
#466));
#64=EDGE_LOOP('',(#467,#468,#469,#470));
#65=EDGE_LOOP('',(#471,#472,#473,#474,#475,#476,#477,#478,#479,#480,#481,
#482));
#66=EDGE_LOOP('',(#483,#484,#485,#486));
#67=EDGE_LOOP('',(#487,#488,#489,#490));
#68=EDGE_LOOP('',(#491,#492,#493,#494));
#69=EDGE_LOOP('',(#495,#496,#497,#498,#499,#500,#501,#502,#503,#504,#505,
#506));
#70=EDGE_LOOP('',(#507,#508,#509,#510));
#71=EDGE_LOOP('',(#511,#512,#513,#514));
#72=EDGE_LOOP('',(#515,#516,#517,#518));
#73=EDGE_LOOP('',(#519,#520,#521,#522));
#74=EDGE_LOOP('',(#523,#524,#525,#526));
#75=EDGE_LOOP('',(#527,#528,#529,#530,#531,#532,#533,#534));
#76=EDGE_LOOP('',(#535,#536,#537,#538));
#77=EDGE_LOOP('',(#539,#540,#541,#542,#543,#544,#545,#546,#547,#548,#549,
#550));
#78=EDGE_LOOP('',(#551,#552,#553,#554));
#79=LINE('',#809,#163);
#80=LINE('',#811,#164);
#81=LINE('',#813,#165);
#82=LINE('',#814,#166);
#83=LINE('',#818,#167);
#84=LINE('',#820,#168);
#85=LINE('',#822,#169);
#86=LINE('',#823,#170);
#87=LINE('',#826,#171);
#88=LINE('',#828,#172);
#89=LINE('',#829,#173);
#90=LINE('',#832,#174);
#91=LINE('',#834,#175);
#92=LINE('',#835,#176);
#93=LINE('',#839,#177);
#94=LINE('',#841,#178);
#95=LINE('',#843,#179);
#96=LINE('',#844,#180);
#97=LINE('',#847,#181);
#98=LINE('',#849,#182);
#99=LINE('',#850,#183);
#100=LINE('',#853,#184);
#101=LINE('',#855,#185);
#102=LINE('',#856,#186);
#103=LINE('',#860,#187);
#104=LINE('',#862,#188);
#105=LINE('',#864,#189);
#106=LINE('',#865,#190);
#107=LINE('',#869,#191);
#108=LINE('',#871,#192);
#109=LINE('',#873,#193);
#110=LINE('',#874,#194);
#111=LINE('',#876,#195);
#112=LINE('',#877,#196);
#113=LINE('',#881,#197);
#114=LINE('',#883,#198);
#115=LINE('',#885,#199);
#116=LINE('',#886,#200);
#117=LINE('',#889,#201);
#118=LINE('',#891,#202);
#119=LINE('',#892,#203);
#120=LINE('',#896,#204);
#121=LINE('',#898,#205);
#122=LINE('',#900,#206);
#123=LINE('',#901,#207);
#124=LINE('',#904,#208);
#125=LINE('',#906,#209);
#126=LINE('',#907,#210);
#127=LINE('',#910,#211);
#128=LINE('',#912,#212);
#129=LINE('',#913,#213);
#130=LINE('',#915,#214);
#131=LINE('',#917,#215);
#132=LINE('',#918,#216);
#133=LINE('',#921,#217);
#134=LINE('',#923,#218);
#135=LINE('',#925,#219);
#136=LINE('',#926,#220);
#137=LINE('',#928,#221);
#138=LINE('',#929,#222);
#139=LINE('',#931,#223);
#140=LINE('',#932,#224);
#141=LINE('',#934,#225);
#142=LINE('',#936,#226);
#143=LINE('',#937,#227);
#144=LINE('',#939,#228);
#145=LINE('',#940,#229);
#146=LINE('',#942,#230);
#147=LINE('',#944,#231);
#148=LINE('',#947,#232);
#149=LINE('',#948,#233);
#150=LINE('',#950,#234);
#151=LINE('',#954,#235);
#152=LINE('',#955,#236);
#153=LINE('',#956,#237);
#154=LINE('',#959,#238);
#155=LINE('',#960,#239);
#156=LINE('',#963,#240);
#157=LINE('',#964,#241);
#158=LINE('',#966,#242);
#159=LINE('',#968,#243);
#160=LINE('',#971,#244);
#161=LINE('',#972,#245);
#162=LINE('',#974,#246);
#163=VECTOR('',#663,10.);
#164=VECTOR('',#664,10.);
#165=VECTOR('',#665,10.);
#166=VECTOR('',#666,10.);
#167=VECTOR('',#669,10.);
#168=VECTOR('',#670,10.);
#169=VECTOR('',#671,10.);
#170=VECTOR('',#672,10.);
#171=VECTOR('',#675,10.);
#172=VECTOR('',#676,10.);
#173=VECTOR('',#677,10.);
#174=VECTOR('',#680,10.);
#175=VECTOR('',#681,10.);
#176=VECTOR('',#682,10.);
#177=VECTOR('',#685,10.);
#178=VECTOR('',#686,10.);
#179=VECTOR('',#687,10.);
#180=VECTOR('',#688,10.);
#181=VECTOR('',#691,10.);
#182=VECTOR('',#692,10.);
#183=VECTOR('',#693,10.);
#184=VECTOR('',#696,10.);
#185=VECTOR('',#697,10.);
#186=VECTOR('',#698,10.);
#187=VECTOR('',#701,10.);
#188=VECTOR('',#702,10.);
#189=VECTOR('',#703,10.);
#190=VECTOR('',#704,10.);
#191=VECTOR('',#707,10.);
#192=VECTOR('',#708,10.);
#193=VECTOR('',#709,10.);
#194=VECTOR('',#710,10.);
#195=VECTOR('',#713,10.);
#196=VECTOR('',#714,10.);
#197=VECTOR('',#717,10.);
#198=VECTOR('',#718,10.);
#199=VECTOR('',#719,10.);
#200=VECTOR('',#720,10.);
#201=VECTOR('',#723,10.);
#202=VECTOR('',#724,10.);
#203=VECTOR('',#725,10.);
#204=VECTOR('',#728,10.);
#205=VECTOR('',#729,10.);
#206=VECTOR('',#730,10.);
#207=VECTOR('',#731,10.);
#208=VECTOR('',#734,10.);
#209=VECTOR('',#735,10.);
#210=VECTOR('',#736,10.);
#211=VECTOR('',#739,10.);
#212=VECTOR('',#740,10.);
#213=VECTOR('',#741,10.);
#214=VECTOR('',#742,10.);
#215=VECTOR('',#743,10.);
#216=VECTOR('',#744,10.);
#217=VECTOR('',#745,10.);
#218=VECTOR('',#746,10.);
#219=VECTOR('',#747,10.);
#220=VECTOR('',#748,10.);
#221=VECTOR('',#751,10.);
#222=VECTOR('',#752,10.);
#223=VECTOR('',#753,10.);
#224=VECTOR('',#754,10.);
#225=VECTOR('',#757,10.);
#226=VECTOR('',#760,10.);
#227=VECTOR('',#761,10.);
#228=VECTOR('',#762,10.);
#229=VECTOR('',#763,10.);
#230=VECTOR('',#766,10.);
#231=VECTOR('',#769,10.);
#232=VECTOR('',#772,10.);
#233=VECTOR('',#773,10.);
#234=VECTOR('',#776,10.);
#235=VECTOR('',#779,10.);
#236=VECTOR('',#780,10.);
#237=VECTOR('',#781,10.);
#238=VECTOR('',#784,10.);
#239=VECTOR('',#785,10.);
#240=VECTOR('',#788,10.);
#241=VECTOR('',#789,10.);
#242=VECTOR('',#792,10.);
#243=VECTOR('',#795,10.);
#244=VECTOR('',#798,10.);
#245=VECTOR('',#799,10.);
#246=VECTOR('',#802,10.);
#247=VERTEX_POINT('',#807);
#248=VERTEX_POINT('',#808);
#249=VERTEX_POINT('',#810);
#250=VERTEX_POINT('',#812);
#251=VERTEX_POINT('',#816);
#252=VERTEX_POINT('',#817);
#253=VERTEX_POINT('',#819);
#254=VERTEX_POINT('',#821);
#255=VERTEX_POINT('',#825);
#256=VERTEX_POINT('',#827);
#257=VERTEX_POINT('',#831);
#258=VERTEX_POINT('',#833);
#259=VERTEX_POINT('',#837);
#260=VERTEX_POINT('',#838);
#261=VERTEX_POINT('',#840);
#262=VERTEX_POINT('',#842);
#263=VERTEX_POINT('',#846);
#264=VERTEX_POINT('',#848);
#265=VERTEX_POINT('',#852);
#266=VERTEX_POINT('',#854);
#267=VERTEX_POINT('',#858);
#268=VERTEX_POINT('',#859);
#269=VERTEX_POINT('',#861);
#270=VERTEX_POINT('',#863);
#271=VERTEX_POINT('',#867);
#272=VERTEX_POINT('',#868);
#273=VERTEX_POINT('',#870);
#274=VERTEX_POINT('',#872);
#275=VERTEX_POINT('',#879);
#276=VERTEX_POINT('',#880);
#277=VERTEX_POINT('',#882);
#278=VERTEX_POINT('',#884);
#279=VERTEX_POINT('',#888);
#280=VERTEX_POINT('',#890);
#281=VERTEX_POINT('',#894);
#282=VERTEX_POINT('',#895);
#283=VERTEX_POINT('',#897);
#284=VERTEX_POINT('',#899);
#285=VERTEX_POINT('',#903);
#286=VERTEX_POINT('',#905);
#287=VERTEX_POINT('',#909);
#288=VERTEX_POINT('',#911);
#289=VERTEX_POINT('',#914);
#290=VERTEX_POINT('',#916);
#291=VERTEX_POINT('',#919);
#292=VERTEX_POINT('',#920);
#293=VERTEX_POINT('',#922);
#294=VERTEX_POINT('',#924);
#295=VERTEX_POINT('',#930);
#296=VERTEX_POINT('',#938);
#297=VERTEX_POINT('',#946);
#298=VERTEX_POINT('',#952);
#299=VERTEX_POINT('',#953);
#300=VERTEX_POINT('',#958);
#301=VERTEX_POINT('',#962);
#302=VERTEX_POINT('',#970);
#303=EDGE_CURVE('',#247,#248,#79,.T.);
#304=EDGE_CURVE('',#249,#247,#80,.T.);
#305=EDGE_CURVE('',#250,#249,#81,.T.);
#306=EDGE_CURVE('',#248,#250,#82,.T.);
#307=EDGE_CURVE('',#251,#252,#83,.T.);
#308=EDGE_CURVE('',#253,#251,#84,.T.);
#309=EDGE_CURVE('',#254,#253,#85,.T.);
#310=EDGE_CURVE('',#252,#254,#86,.T.);
#311=EDGE_CURVE('',#255,#247,#87,.T.);
#312=EDGE_CURVE('',#256,#255,#88,.T.);
#313=EDGE_CURVE('',#249,#256,#89,.T.);
#314=EDGE_CURVE('',#252,#257,#90,.T.);
#315=EDGE_CURVE('',#258,#254,#91,.T.);
#316=EDGE_CURVE('',#257,#258,#92,.T.);
#317=EDGE_CURVE('',#259,#260,#93,.T.);
#318=EDGE_CURVE('',#261,#259,#94,.T.);
#319=EDGE_CURVE('',#262,#261,#95,.T.);
#320=EDGE_CURVE('',#262,#260,#96,.T.);
#321=EDGE_CURVE('',#260,#263,#97,.T.);
#322=EDGE_CURVE('',#264,#262,#98,.T.);
#323=EDGE_CURVE('',#264,#263,#99,.T.);
#324=EDGE_CURVE('',#263,#265,#100,.T.);
#325=EDGE_CURVE('',#266,#264,#101,.T.);
#326=EDGE_CURVE('',#265,#266,#102,.T.);
#327=EDGE_CURVE('',#267,#268,#103,.T.);
#328=EDGE_CURVE('',#269,#267,#104,.T.);
#329=EDGE_CURVE('',#270,#269,#105,.T.);
#330=EDGE_CURVE('',#268,#270,#106,.T.);
#331=EDGE_CURVE('',#271,#272,#107,.T.);
#332=EDGE_CURVE('',#271,#273,#108,.T.);
#333=EDGE_CURVE('',#274,#273,#109,.T.);
#334=EDGE_CURVE('',#272,#274,#110,.T.);
#335=EDGE_CURVE('',#268,#271,#111,.T.);
#336=EDGE_CURVE('',#273,#270,#112,.T.);
#337=EDGE_CURVE('',#275,#276,#113,.T.);
#338=EDGE_CURVE('',#277,#275,#114,.T.);
#339=EDGE_CURVE('',#278,#277,#115,.T.);
#340=EDGE_CURVE('',#278,#276,#116,.T.);
#341=EDGE_CURVE('',#276,#279,#117,.T.);
#342=EDGE_CURVE('',#280,#278,#118,.T.);
#343=EDGE_CURVE('',#279,#280,#119,.T.);
#344=EDGE_CURVE('',#281,#282,#120,.T.);
#345=EDGE_CURVE('',#281,#283,#121,.T.);
#346=EDGE_CURVE('',#284,#283,#122,.T.);
#347=EDGE_CURVE('',#282,#284,#123,.T.);
#348=EDGE_CURVE('',#285,#281,#124,.T.);
#349=EDGE_CURVE('',#286,#285,#125,.T.);
#350=EDGE_CURVE('',#283,#286,#126,.T.);
#351=EDGE_CURVE('',#251,#287,#127,.T.);
#352=EDGE_CURVE('',#287,#288,#128,.T.);
#353=EDGE_CURVE('',#288,#248,#129,.T.);
#354=EDGE_CURVE('',#250,#289,#130,.T.);
#355=EDGE_CURVE('',#290,#289,#131,.T.);
#356=EDGE_CURVE('',#253,#290,#132,.T.);
#357=EDGE_CURVE('',#291,#292,#133,.T.);
#358=EDGE_CURVE('',#292,#293,#134,.T.);
#359=EDGE_CURVE('',#293,#294,#135,.T.);
#360=EDGE_CURVE('',#294,#291,#136,.T.);
#361=EDGE_CURVE('',#267,#257,#137,.T.);
#362=EDGE_CURVE('',#285,#272,#138,.T.);
#363=EDGE_CURVE('',#295,#282,#139,.T.);
#364=EDGE_CURVE('',#295,#287,#140,.T.);
#365=EDGE_CURVE('',#274,#286,#141,.T.);
#366=EDGE_CURVE('',#266,#256,#142,.T.);
#367=EDGE_CURVE('',#280,#261,#143,.T.);
#368=EDGE_CURVE('',#277,#296,#144,.T.);
#369=EDGE_CURVE('',#289,#296,#145,.T.);
#370=EDGE_CURVE('',#259,#279,#146,.T.);
#371=EDGE_CURVE('',#255,#265,#147,.T.);
#372=EDGE_CURVE('',#297,#295,#148,.T.);
#373=EDGE_CURVE('',#297,#288,#149,.T.);
#374=EDGE_CURVE('',#275,#297,#150,.T.);
#375=EDGE_CURVE('',#298,#299,#151,.T.);
#376=EDGE_CURVE('',#298,#292,#152,.T.);
#377=EDGE_CURVE('',#299,#291,#153,.T.);
#378=EDGE_CURVE('',#300,#298,#154,.T.);
#379=EDGE_CURVE('',#300,#293,#155,.T.);
#380=EDGE_CURVE('',#301,#300,#156,.T.);
#381=EDGE_CURVE('',#301,#294,#157,.T.);
#382=EDGE_CURVE('',#299,#301,#158,.T.);
#383=EDGE_CURVE('',#258,#269,#159,.T.);
#384=EDGE_CURVE('',#284,#302,#160,.T.);
#385=EDGE_CURVE('',#296,#302,#161,.T.);
#386=EDGE_CURVE('',#302,#290,#162,.T.);
#387=ORIENTED_EDGE('',*,*,#303,.F.);
#388=ORIENTED_EDGE('',*,*,#304,.F.);
#389=ORIENTED_EDGE('',*,*,#305,.F.);
#390=ORIENTED_EDGE('',*,*,#306,.F.);
#391=ORIENTED_EDGE('',*,*,#307,.F.);
#392=ORIENTED_EDGE('',*,*,#308,.F.);
#393=ORIENTED_EDGE('',*,*,#309,.F.);
#394=ORIENTED_EDGE('',*,*,#310,.F.);
#395=ORIENTED_EDGE('',*,*,#311,.F.);
#396=ORIENTED_EDGE('',*,*,#312,.F.);
#397=ORIENTED_EDGE('',*,*,#313,.F.);
#398=ORIENTED_EDGE('',*,*,#304,.T.);
#399=ORIENTED_EDGE('',*,*,#314,.F.);
#400=ORIENTED_EDGE('',*,*,#310,.T.);
#401=ORIENTED_EDGE('',*,*,#315,.F.);
#402=ORIENTED_EDGE('',*,*,#316,.F.);
#403=ORIENTED_EDGE('',*,*,#317,.F.);
#404=ORIENTED_EDGE('',*,*,#318,.F.);
#405=ORIENTED_EDGE('',*,*,#319,.F.);
#406=ORIENTED_EDGE('',*,*,#320,.T.);
#407=ORIENTED_EDGE('',*,*,#321,.F.);
#408=ORIENTED_EDGE('',*,*,#320,.F.);
#409=ORIENTED_EDGE('',*,*,#322,.F.);
#410=ORIENTED_EDGE('',*,*,#323,.T.);
#411=ORIENTED_EDGE('',*,*,#324,.F.);
#412=ORIENTED_EDGE('',*,*,#323,.F.);
#413=ORIENTED_EDGE('',*,*,#325,.F.);
#414=ORIENTED_EDGE('',*,*,#326,.F.);
#415=ORIENTED_EDGE('',*,*,#327,.F.);
#416=ORIENTED_EDGE('',*,*,#328,.F.);
#417=ORIENTED_EDGE('',*,*,#329,.F.);
#418=ORIENTED_EDGE('',*,*,#330,.F.);
#419=ORIENTED_EDGE('',*,*,#331,.F.);
#420=ORIENTED_EDGE('',*,*,#332,.T.);
#421=ORIENTED_EDGE('',*,*,#333,.F.);
#422=ORIENTED_EDGE('',*,*,#334,.F.);
#423=ORIENTED_EDGE('',*,*,#335,.F.);
#424=ORIENTED_EDGE('',*,*,#330,.T.);
#425=ORIENTED_EDGE('',*,*,#336,.F.);
#426=ORIENTED_EDGE('',*,*,#332,.F.);
#427=ORIENTED_EDGE('',*,*,#337,.F.);
#428=ORIENTED_EDGE('',*,*,#338,.F.);
#429=ORIENTED_EDGE('',*,*,#339,.F.);
#430=ORIENTED_EDGE('',*,*,#340,.T.);
#431=ORIENTED_EDGE('',*,*,#341,.F.);
#432=ORIENTED_EDGE('',*,*,#340,.F.);
#433=ORIENTED_EDGE('',*,*,#342,.F.);
#434=ORIENTED_EDGE('',*,*,#343,.F.);
#435=ORIENTED_EDGE('',*,*,#344,.F.);
#436=ORIENTED_EDGE('',*,*,#345,.T.);
#437=ORIENTED_EDGE('',*,*,#346,.F.);
#438=ORIENTED_EDGE('',*,*,#347,.F.);
#439=ORIENTED_EDGE('',*,*,#348,.F.);
#440=ORIENTED_EDGE('',*,*,#349,.F.);
#441=ORIENTED_EDGE('',*,*,#350,.F.);
#442=ORIENTED_EDGE('',*,*,#345,.F.);
#443=ORIENTED_EDGE('',*,*,#308,.T.);
#444=ORIENTED_EDGE('',*,*,#351,.T.);
#445=ORIENTED_EDGE('',*,*,#352,.T.);
#446=ORIENTED_EDGE('',*,*,#353,.T.);
#447=ORIENTED_EDGE('',*,*,#306,.T.);
#448=ORIENTED_EDGE('',*,*,#354,.T.);
#449=ORIENTED_EDGE('',*,*,#355,.F.);
#450=ORIENTED_EDGE('',*,*,#356,.F.);
#451=ORIENTED_EDGE('',*,*,#357,.T.);
#452=ORIENTED_EDGE('',*,*,#358,.T.);
#453=ORIENTED_EDGE('',*,*,#359,.T.);
#454=ORIENTED_EDGE('',*,*,#360,.T.);
#455=ORIENTED_EDGE('',*,*,#307,.T.);
#456=ORIENTED_EDGE('',*,*,#314,.T.);
#457=ORIENTED_EDGE('',*,*,#361,.F.);
#458=ORIENTED_EDGE('',*,*,#327,.T.);
#459=ORIENTED_EDGE('',*,*,#335,.T.);
#460=ORIENTED_EDGE('',*,*,#331,.T.);
#461=ORIENTED_EDGE('',*,*,#362,.F.);
#462=ORIENTED_EDGE('',*,*,#348,.T.);
#463=ORIENTED_EDGE('',*,*,#344,.T.);
#464=ORIENTED_EDGE('',*,*,#363,.F.);
#465=ORIENTED_EDGE('',*,*,#364,.T.);
#466=ORIENTED_EDGE('',*,*,#351,.F.);
#467=ORIENTED_EDGE('',*,*,#334,.T.);
#468=ORIENTED_EDGE('',*,*,#365,.T.);
#469=ORIENTED_EDGE('',*,*,#349,.T.);
#470=ORIENTED_EDGE('',*,*,#362,.T.);
#471=ORIENTED_EDGE('',*,*,#305,.T.);
#472=ORIENTED_EDGE('',*,*,#313,.T.);
#473=ORIENTED_EDGE('',*,*,#366,.F.);
#474=ORIENTED_EDGE('',*,*,#325,.T.);
#475=ORIENTED_EDGE('',*,*,#322,.T.);
#476=ORIENTED_EDGE('',*,*,#319,.T.);
#477=ORIENTED_EDGE('',*,*,#367,.F.);
#478=ORIENTED_EDGE('',*,*,#342,.T.);
#479=ORIENTED_EDGE('',*,*,#339,.T.);
#480=ORIENTED_EDGE('',*,*,#368,.T.);
#481=ORIENTED_EDGE('',*,*,#369,.F.);
#482=ORIENTED_EDGE('',*,*,#354,.F.);
#483=ORIENTED_EDGE('',*,*,#318,.T.);
#484=ORIENTED_EDGE('',*,*,#370,.T.);
#485=ORIENTED_EDGE('',*,*,#343,.T.);
#486=ORIENTED_EDGE('',*,*,#367,.T.);
#487=ORIENTED_EDGE('',*,*,#312,.T.);
#488=ORIENTED_EDGE('',*,*,#371,.T.);
#489=ORIENTED_EDGE('',*,*,#326,.T.);
#490=ORIENTED_EDGE('',*,*,#366,.T.);
#491=ORIENTED_EDGE('',*,*,#372,.F.);
#492=ORIENTED_EDGE('',*,*,#373,.T.);
#493=ORIENTED_EDGE('',*,*,#352,.F.);
#494=ORIENTED_EDGE('',*,*,#364,.F.);
#495=ORIENTED_EDGE('',*,*,#303,.T.);
#496=ORIENTED_EDGE('',*,*,#353,.F.);
#497=ORIENTED_EDGE('',*,*,#373,.F.);
#498=ORIENTED_EDGE('',*,*,#374,.F.);
#499=ORIENTED_EDGE('',*,*,#337,.T.);
#500=ORIENTED_EDGE('',*,*,#341,.T.);
#501=ORIENTED_EDGE('',*,*,#370,.F.);
#502=ORIENTED_EDGE('',*,*,#317,.T.);
#503=ORIENTED_EDGE('',*,*,#321,.T.);
#504=ORIENTED_EDGE('',*,*,#324,.T.);
#505=ORIENTED_EDGE('',*,*,#371,.F.);
#506=ORIENTED_EDGE('',*,*,#311,.T.);
#507=ORIENTED_EDGE('',*,*,#375,.F.);
#508=ORIENTED_EDGE('',*,*,#376,.T.);
#509=ORIENTED_EDGE('',*,*,#357,.F.);
#510=ORIENTED_EDGE('',*,*,#377,.F.);
#511=ORIENTED_EDGE('',*,*,#378,.F.);
#512=ORIENTED_EDGE('',*,*,#379,.T.);
#513=ORIENTED_EDGE('',*,*,#358,.F.);
#514=ORIENTED_EDGE('',*,*,#376,.F.);
#515=ORIENTED_EDGE('',*,*,#380,.F.);
#516=ORIENTED_EDGE('',*,*,#381,.T.);
#517=ORIENTED_EDGE('',*,*,#359,.F.);
#518=ORIENTED_EDGE('',*,*,#379,.F.);
#519=ORIENTED_EDGE('',*,*,#382,.F.);
#520=ORIENTED_EDGE('',*,*,#377,.T.);
#521=ORIENTED_EDGE('',*,*,#360,.F.);
#522=ORIENTED_EDGE('',*,*,#381,.F.);
#523=ORIENTED_EDGE('',*,*,#316,.T.);
#524=ORIENTED_EDGE('',*,*,#383,.T.);
#525=ORIENTED_EDGE('',*,*,#328,.T.);
#526=ORIENTED_EDGE('',*,*,#361,.T.);
#527=ORIENTED_EDGE('',*,*,#347,.T.);
#528=ORIENTED_EDGE('',*,*,#384,.T.);
#529=ORIENTED_EDGE('',*,*,#385,.F.);
#530=ORIENTED_EDGE('',*,*,#368,.F.);
#531=ORIENTED_EDGE('',*,*,#338,.T.);
#532=ORIENTED_EDGE('',*,*,#374,.T.);
#533=ORIENTED_EDGE('',*,*,#372,.T.);
#534=ORIENTED_EDGE('',*,*,#363,.T.);
#535=ORIENTED_EDGE('',*,*,#375,.T.);
#536=ORIENTED_EDGE('',*,*,#382,.T.);
#537=ORIENTED_EDGE('',*,*,#380,.T.);
#538=ORIENTED_EDGE('',*,*,#378,.T.);
#539=ORIENTED_EDGE('',*,*,#309,.T.);
#540=ORIENTED_EDGE('',*,*,#356,.T.);
#541=ORIENTED_EDGE('',*,*,#386,.F.);
#542=ORIENTED_EDGE('',*,*,#384,.F.);
#543=ORIENTED_EDGE('',*,*,#346,.T.);
#544=ORIENTED_EDGE('',*,*,#350,.T.);
#545=ORIENTED_EDGE('',*,*,#365,.F.);
#546=ORIENTED_EDGE('',*,*,#333,.T.);
#547=ORIENTED_EDGE('',*,*,#336,.T.);
#548=ORIENTED_EDGE('',*,*,#329,.T.);
#549=ORIENTED_EDGE('',*,*,#383,.F.);
#550=ORIENTED_EDGE('',*,*,#315,.T.);
#551=ORIENTED_EDGE('',*,*,#369,.T.);
#552=ORIENTED_EDGE('',*,*,#385,.T.);
#553=ORIENTED_EDGE('',*,*,#386,.T.);
#554=ORIENTED_EDGE('',*,*,#355,.T.);
#555=PLANE('',#629);
#556=PLANE('',#630);
#557=PLANE('',#631);
#558=PLANE('',#632);
#559=PLANE('',#633);
#560=PLANE('',#634);
#561=PLANE('',#635);
#562=PLANE('',#636);
#563=PLANE('',#637);
#564=PLANE('',#638);
#565=PLANE('',#639);
#566=PLANE('',#640);
#567=PLANE('',#641);
#568=PLANE('',#642);
#569=PLANE('',#643);
#570=PLANE('',#644);
#571=PLANE('',#645);
#572=PLANE('',#646);
#573=PLANE('',#647);
#574=PLANE('',#648);
#575=PLANE('',#649);
#576=PLANE('',#650);
#577=PLANE('',#651);
#578=PLANE('',#652);
#579=PLANE('',#653);
#580=PLANE('',#654);
#581=PLANE('',#655);
#582=PLANE('',#656);
#583=PLANE('',#657);
#584=PLANE('',#658);
#585=ADVANCED_FACE('',(#17),#555,.F.);
#586=ADVANCED_FACE('',(#18),#556,.F.);
#587=ADVANCED_FACE('',(#19),#557,.F.);
#588=ADVANCED_FACE('',(#20),#558,.F.);
#589=ADVANCED_FACE('',(#21),#559,.F.);
#590=ADVANCED_FACE('',(#22),#560,.F.);
#591=ADVANCED_FACE('',(#23),#561,.F.);
#592=ADVANCED_FACE('',(#24),#562,.F.);
#593=ADVANCED_FACE('',(#25),#563,.F.);
#594=ADVANCED_FACE('',(#26),#564,.F.);
#595=ADVANCED_FACE('',(#27),#565,.F.);
#596=ADVANCED_FACE('',(#28),#566,.F.);
#597=ADVANCED_FACE('',(#29),#567,.F.);
#598=ADVANCED_FACE('',(#30),#568,.F.);
#599=ADVANCED_FACE('',(#31,#15),#569,.T.);
#600=ADVANCED_FACE('',(#32),#570,.F.);
#601=ADVANCED_FACE('',(#33),#571,.F.);
#602=ADVANCED_FACE('',(#34),#572,.T.);
#603=ADVANCED_FACE('',(#35),#573,.F.);
#604=ADVANCED_FACE('',(#36),#574,.F.);
#605=ADVANCED_FACE('',(#37),#575,.F.);
#606=ADVANCED_FACE('',(#38),#576,.F.);
#607=ADVANCED_FACE('',(#39),#577,.F.);
#608=ADVANCED_FACE('',(#40),#578,.F.);
#609=ADVANCED_FACE('',(#41),#579,.F.);
#610=ADVANCED_FACE('',(#42),#580,.F.);
#611=ADVANCED_FACE('',(#43),#581,.F.);
#612=ADVANCED_FACE('',(#44,#16),#582,.T.);
#613=ADVANCED_FACE('',(#45),#583,.T.);
#614=ADVANCED_FACE('',(#46),#584,.T.);
#615=CLOSED_SHELL('',(#585,#586,#587,#588,#589,#590,#591,#592,#593,#594,
#595,#596,#597,#598,#599,#600,#601,#602,#603,#604,#605,#606,#607,#608,#609,
#610,#611,#612,#613,#614));
#616=DERIVED_UNIT_ELEMENT(#618,1.);
#617=DERIVED_UNIT_ELEMENT(#981,-3.);
#618=(
MASS_UNIT()
NAMED_UNIT(*)
SI_UNIT(.KILO.,.GRAM.)
);
#619=DERIVED_UNIT((#616,#617));
#620=MEASURE_REPRESENTATION_ITEM('density measure',
POSITIVE_RATIO_MEASURE(7850.),#619);
#621=PROPERTY_DEFINITION_REPRESENTATION(#626,#623);
#622=PROPERTY_DEFINITION_REPRESENTATION(#627,#624);
#623=REPRESENTATION('material name',(#625),#978);
#624=REPRESENTATION('density',(#620),#978);
#625=DESCRIPTIVE_REPRESENTATION_ITEM('Steel','Steel');
#626=PROPERTY_DEFINITION('material property','material name',#988);
#627=PROPERTY_DEFINITION('material property','density of part',#988);
#628=AXIS2_PLACEMENT_3D('',#805,#659,#660);
#629=AXIS2_PLACEMENT_3D('',#806,#661,#662);
#630=AXIS2_PLACEMENT_3D('',#815,#667,#668);
#631=AXIS2_PLACEMENT_3D('',#824,#673,#674);
#632=AXIS2_PLACEMENT_3D('',#830,#678,#679);
#633=AXIS2_PLACEMENT_3D('',#836,#683,#684);
#634=AXIS2_PLACEMENT_3D('',#845,#689,#690);
#635=AXIS2_PLACEMENT_3D('',#851,#694,#695);
#636=AXIS2_PLACEMENT_3D('',#857,#699,#700);
#637=AXIS2_PLACEMENT_3D('',#866,#705,#706);
#638=AXIS2_PLACEMENT_3D('',#875,#711,#712);
#639=AXIS2_PLACEMENT_3D('',#878,#715,#716);
#640=AXIS2_PLACEMENT_3D('',#887,#721,#722);
#641=AXIS2_PLACEMENT_3D('',#893,#726,#727);
#642=AXIS2_PLACEMENT_3D('',#902,#732,#733);
#643=AXIS2_PLACEMENT_3D('',#908,#737,#738);
#644=AXIS2_PLACEMENT_3D('',#927,#749,#750);
#645=AXIS2_PLACEMENT_3D('',#933,#755,#756);
#646=AXIS2_PLACEMENT_3D('',#935,#758,#759);
#647=AXIS2_PLACEMENT_3D('',#941,#764,#765);
#648=AXIS2_PLACEMENT_3D('',#943,#767,#768);
#649=AXIS2_PLACEMENT_3D('',#945,#770,#771);
#650=AXIS2_PLACEMENT_3D('',#949,#774,#775);
#651=AXIS2_PLACEMENT_3D('',#951,#777,#778);
#652=AXIS2_PLACEMENT_3D('',#957,#782,#783);
#653=AXIS2_PLACEMENT_3D('',#961,#786,#787);
#654=AXIS2_PLACEMENT_3D('',#965,#790,#791);
#655=AXIS2_PLACEMENT_3D('',#967,#793,#794);
#656=AXIS2_PLACEMENT_3D('',#969,#796,#797);
#657=AXIS2_PLACEMENT_3D('',#973,#800,#801);
#658=AXIS2_PLACEMENT_3D('',#975,#803,#804);
#659=DIRECTION('axis',(0.,0.,1.));
#660=DIRECTION('refdir',(1.,0.,0.));
#661=DIRECTION('center_axis',(1.5419764230905E-16,0.,1.));
#662=DIRECTION('ref_axis',(-1.,0.,1.5419764230905E-16));
#663=DIRECTION('',(1.,0.,-1.5419764230905E-16));
#664=DIRECTION('',(0.,-1.,0.));
#665=DIRECTION('',(-1.,0.,1.5419764230905E-16));
#666=DIRECTION('',(0.,1.,0.));
#667=DIRECTION('center_axis',(1.5419764230905E-16,0.,1.));
#668=DIRECTION('ref_axis',(-1.,0.,1.5419764230905E-16));
#669=DIRECTION('',(-1.,0.,1.5419764230905E-16));
#670=DIRECTION('',(0.,1.,0.));
#671=DIRECTION('',(1.,0.,-1.5419764230905E-16));
#672=DIRECTION('',(0.,-1.,0.));
#673=DIRECTION('center_axis',(-1.,0.,0.));
#674=DIRECTION('ref_axis',(0.,0.,-1.));
#675=DIRECTION('',(0.,0.,1.));
#676=DIRECTION('',(0.,-1.,0.));
#677=DIRECTION('',(0.,0.,-1.));
#678=DIRECTION('center_axis',(-1.,0.,0.));
#679=DIRECTION('ref_axis',(0.,0.,-1.));
#680=DIRECTION('',(0.,0.,-1.));
#681=DIRECTION('',(0.,0.,1.));
#682=DIRECTION('',(0.,-1.,0.));
#683=DIRECTION('center_axis',(-1.,0.,0.));
#684=DIRECTION('ref_axis',(0.,0.,-1.));
#685=DIRECTION('',(0.,0.,1.));
#686=DIRECTION('',(0.,-1.,0.));
#687=DIRECTION('',(0.,0.,-1.));
#688=DIRECTION('',(0.,-1.,0.));
#689=DIRECTION('center_axis',(4.33680868994202E-17,0.,1.));
#690=DIRECTION('ref_axis',(-1.,0.,4.33680868994202E-17));
#691=DIRECTION('',(1.,0.,-4.33680868994202E-17));
#692=DIRECTION('',(-1.,0.,4.33680868994202E-17));
#693=DIRECTION('',(0.,-1.,0.));
#694=DIRECTION('center_axis',(1.,0.,0.));
#695=DIRECTION('ref_axis',(0.,0.,1.));
#696=DIRECTION('',(0.,0.,-1.));
#697=DIRECTION('',(0.,0.,1.));
#698=DIRECTION('',(0.,1.,0.));
#699=DIRECTION('center_axis',(1.,0.,0.));
#700=DIRECTION('ref_axis',(0.,0.,1.));
#701=DIRECTION('',(0.,0.,1.));
#702=DIRECTION('',(0.,1.,0.));
#703=DIRECTION('',(0.,0.,-1.));
#704=DIRECTION('',(0.,-1.,0.));
#705=DIRECTION('center_axis',(-1.,0.,0.));
#706=DIRECTION('ref_axis',(0.,0.,-1.));
#707=DIRECTION('',(0.,0.,-1.));
#708=DIRECTION('',(0.,-1.,0.));
#709=DIRECTION('',(0.,0.,1.));
#710=DIRECTION('',(0.,-1.,0.));
#711=DIRECTION('center_axis',(4.33680868994202E-17,0.,1.));
#712=DIRECTION('ref_axis',(-1.,0.,4.33680868994202E-17));
#713=DIRECTION('',(-1.,0.,4.33680868994202E-17));
#714=DIRECTION('',(1.,0.,-4.33680868994202E-17));
#715=DIRECTION('center_axis',(-1.5419764230905E-16,0.,1.));
#716=DIRECTION('ref_axis',(-1.,0.,-1.5419764230905E-16));
#717=DIRECTION('',(1.,0.,1.5419764230905E-16));
#718=DIRECTION('',(0.,-1.,0.));
#719=DIRECTION('',(-1.,0.,-1.5419764230905E-16));
#720=DIRECTION('',(0.,-1.,0.));
#721=DIRECTION('center_axis',(1.,0.,0.));
#722=DIRECTION('ref_axis',(0.,0.,1.));
#723=DIRECTION('',(0.,0.,-1.));
#724=DIRECTION('',(0.,0.,1.));
#725=DIRECTION('',(0.,1.,0.));
#726=DIRECTION('center_axis',(-1.5419764230905E-16,0.,1.));
#727=DIRECTION('ref_axis',(-1.,0.,-1.5419764230905E-16));
#728=DIRECTION('',(-1.,0.,-1.5419764230905E-16));
#729=DIRECTION('',(0.,-1.,0.));
#730=DIRECTION('',(1.,0.,1.5419764230905E-16));
#731=DIRECTION('',(0.,-1.,0.));
#732=DIRECTION('center_axis',(1.,0.,0.));
#733=DIRECTION('ref_axis',(0.,0.,1.));
#734=DIRECTION('',(0.,0.,1.));
#735=DIRECTION('',(0.,1.,0.));
#736=DIRECTION('',(0.,0.,-1.));
#737=DIRECTION('center_axis',(1.,0.,0.));
#738=DIRECTION('ref_axis',(0.,1.,0.));
#739=DIRECTION('',(0.,0.,1.));
#740=DIRECTION('',(0.,1.,-4.65661322002209E-9));
#741=DIRECTION('',(0.,0.,-1.));
#742=DIRECTION('',(0.,0.,1.));
#743=DIRECTION('',(0.,1.,0.));
#744=DIRECTION('',(0.,0.,1.));
#745=DIRECTION('',(0.,-1.,3.70074341541719E-16));
#746=DIRECTION('',(0.,3.96508223080413E-16,1.));
#747=DIRECTION('',(0.,1.,0.));
#748=DIRECTION('',(0.,0.,-1.));
#749=DIRECTION('center_axis',(0.,-1.,0.));
#750=DIRECTION('ref_axis',(0.,0.,-1.));
#751=DIRECTION('',(1.,0.,0.));
#752=DIRECTION('',(1.,0.,0.));
#753=DIRECTION('',(0.,0.,-1.));
#754=DIRECTION('',(1.,0.,0.));
#755=DIRECTION('center_axis',(0.,0.,1.));
#756=DIRECTION('ref_axis',(1.,0.,0.));
#757=DIRECTION('',(-1.,0.,0.));
#758=DIRECTION('center_axis',(0.,1.,0.));
#759=DIRECTION('ref_axis',(-1.,0.,0.));
#760=DIRECTION('',(1.,0.,0.));
#761=DIRECTION('',(1.,0.,0.));
#762=DIRECTION('',(0.,0.,1.));
#763=DIRECTION('',(-1.,0.,0.));
#764=DIRECTION('center_axis',(0.,0.,1.));
#765=DIRECTION('ref_axis',(1.,0.,0.));
#766=DIRECTION('',(-1.,0.,0.));
#767=DIRECTION('center_axis',(0.,0.,1.));
#768=DIRECTION('ref_axis',(1.,0.,0.));
#769=DIRECTION('',(-1.,0.,0.));
#770=DIRECTION('center_axis',(0.,4.65661322002209E-9,1.));
#771=DIRECTION('ref_axis',(0.,-1.,4.65661322002209E-9));
#772=DIRECTION('',(0.,-1.,4.65661322002209E-9));
#773=DIRECTION('',(1.,0.,0.));
#774=DIRECTION('center_axis',(0.,1.,0.));
#775=DIRECTION('ref_axis',(0.,0.,1.));
#776=DIRECTION('',(0.,0.,1.));
#777=DIRECTION('center_axis',(0.,-3.70074341541719E-16,-1.));
#778=DIRECTION('ref_axis',(0.,1.,-3.70074341541719E-16));
#779=DIRECTION('',(0.,1.,-3.70074341541719E-16));
#780=DIRECTION('',(1.,0.,0.));
#781=DIRECTION('',(1.,0.,0.));
#782=DIRECTION('center_axis',(0.,-1.,3.96508223080413E-16));
#783=DIRECTION('ref_axis',(0.,-3.96508223080413E-16,-1.));
#784=DIRECTION('',(0.,-3.96508223080413E-16,-1.));
#785=DIRECTION('',(1.,0.,0.));
#786=DIRECTION('center_axis',(0.,0.,1.));
#787=DIRECTION('ref_axis',(0.,-1.,0.));
#788=DIRECTION('',(0.,-1.,0.));
#789=DIRECTION('',(1.,0.,0.));
#790=DIRECTION('center_axis',(0.,1.,0.));
#791=DIRECTION('ref_axis',(0.,0.,1.));
#792=DIRECTION('',(0.,0.,1.));
#793=DIRECTION('center_axis',(0.,0.,1.));
#794=DIRECTION('ref_axis',(1.,0.,0.));
#795=DIRECTION('',(-1.,0.,0.));
#796=DIRECTION('center_axis',(-1.,0.,0.));
#797=DIRECTION('ref_axis',(0.,-1.,0.));
#798=DIRECTION('',(0.,0.,1.));
#799=DIRECTION('',(0.,-1.,0.));
#800=DIRECTION('center_axis',(0.,-1.,0.));
#801=DIRECTION('ref_axis',(1.,0.,0.));
#802=DIRECTION('',(1.,0.,0.));
#803=DIRECTION('center_axis',(0.,0.,1.));
#804=DIRECTION('ref_axis',(1.,0.,0.));
#805=CARTESIAN_POINT('',(0.,0.,0.));
#806=CARTESIAN_POINT('Origin',(1.25,1.95,0.249999990500509));
#807=CARTESIAN_POINT('',(0.8,1.5,0.249999990500509));
#808=CARTESIAN_POINT('',(1.25,1.5,0.249999990500509));
#809=CARTESIAN_POINT('',(1.92747045562317E-17,1.5,0.249999990500509));
#810=CARTESIAN_POINT('',(0.8,1.95,0.249999990500509));
#811=CARTESIAN_POINT('',(0.8,1.95,0.249999990500509));
#812=CARTESIAN_POINT('',(1.25,1.95,0.249999990500509));
#813=CARTESIAN_POINT('',(1.25,1.95,0.249999990500509));
#814=CARTESIAN_POINT('',(1.25,0.,0.249999990500509));
#815=CARTESIAN_POINT('Origin',(1.25,1.95,0.249999990500509));
#816=CARTESIAN_POINT('',(1.25,-1.5,0.249999990500509));
#817=CARTESIAN_POINT('',(0.8,-1.5,0.249999990500509));
#818=CARTESIAN_POINT('',(-1.92747060210307E-17,-1.5,0.249999990500509));
#819=CARTESIAN_POINT('',(1.25,-1.95,0.249999990500509));
#820=CARTESIAN_POINT('',(1.25,0.,0.249999990500509));
#821=CARTESIAN_POINT('',(0.8,-1.95,0.249999990500509));
#822=CARTESIAN_POINT('',(1.92747045562317E-17,-1.95,0.249999990500509));
#823=CARTESIAN_POINT('',(0.8,1.95,0.249999990500509));
#824=CARTESIAN_POINT('Origin',(0.8,1.95,0.249999990500509));
#825=CARTESIAN_POINT('',(0.8,1.5,0.));
#826=CARTESIAN_POINT('',(0.8,1.5,0.124999995250254));
#827=CARTESIAN_POINT('',(0.8,1.95,0.));
#828=CARTESIAN_POINT('',(0.8,0.975,0.));
#829=CARTESIAN_POINT('',(0.8,1.95,0.124999995250255));
#830=CARTESIAN_POINT('Origin',(0.8,1.95,0.249999990500509));
#831=CARTESIAN_POINT('',(0.8,-1.5,0.));
#832=CARTESIAN_POINT('',(0.8,-1.5,0.374999995250255));
#833=CARTESIAN_POINT('',(0.8,-1.95,0.));
#834=CARTESIAN_POINT('',(0.8,-1.95,0.124999995250255));
#835=CARTESIAN_POINT('',(0.8,0.975,0.));
#836=CARTESIAN_POINT('Origin',(-0.4,1.95,0.124999995250255));
#837=CARTESIAN_POINT('',(-0.4,1.5,0.));
#838=CARTESIAN_POINT('',(-0.4,1.5,0.124999995250255));
#839=CARTESIAN_POINT('',(-0.4,1.5,0.0624999976251271));
#840=CARTESIAN_POINT('',(-0.4,1.95,0.));
#841=CARTESIAN_POINT('',(-0.4,0.975,0.));
#842=CARTESIAN_POINT('',(-0.4,1.95,0.124999995250255));
#843=CARTESIAN_POINT('',(-0.4,1.95,0.0624999976251273));
#844=CARTESIAN_POINT('',(-0.4,1.95,0.124999995250255));
#845=CARTESIAN_POINT('Origin',(0.4,1.95,0.124999995250255));
#846=CARTESIAN_POINT('',(0.4,1.5,0.124999995250255));
#847=CARTESIAN_POINT('',(-0.425,1.5,0.124999995250255));
#848=CARTESIAN_POINT('',(0.4,1.95,0.124999995250255));
#849=CARTESIAN_POINT('',(0.825,1.95,0.124999995250255));
#850=CARTESIAN_POINT('',(0.4,1.95,0.124999995250255));
#851=CARTESIAN_POINT('Origin',(0.4,1.95,0.));
#852=CARTESIAN_POINT('',(0.4,1.5,0.));
#853=CARTESIAN_POINT('',(0.4,1.5,-2.20436418919386E-16));
#854=CARTESIAN_POINT('',(0.4,1.95,0.));
#855=CARTESIAN_POINT('',(0.4,1.95,0.));
#856=CARTESIAN_POINT('',(0.4,0.975,0.));
#857=CARTESIAN_POINT('Origin',(0.4,1.95,0.));
#858=CARTESIAN_POINT('',(0.4,-1.5,0.));
#859=CARTESIAN_POINT('',(0.4,-1.5,0.124999995250255));
#860=CARTESIAN_POINT('',(0.4,-1.5,0.25));
#861=CARTESIAN_POINT('',(0.4,-1.95,0.));
#862=CARTESIAN_POINT('',(0.4,0.975,0.));
#863=CARTESIAN_POINT('',(0.4,-1.95,0.124999995250255));
#864=CARTESIAN_POINT('',(0.4,-1.95,0.));
#865=CARTESIAN_POINT('',(0.4,1.95,0.124999995250255));
#866=CARTESIAN_POINT('Origin',(-0.4,1.95,0.124999995250255));
#867=CARTESIAN_POINT('',(-0.4,-1.5,0.124999995250255));
#868=CARTESIAN_POINT('',(-0.4,-1.5,0.));
#869=CARTESIAN_POINT('',(-0.4,-1.5,0.312499997625127));
#870=CARTESIAN_POINT('',(-0.4,-1.95,0.124999995250255));
#871=CARTESIAN_POINT('',(-0.4,1.95,0.124999995250255));
#872=CARTESIAN_POINT('',(-0.4,-1.95,0.));
#873=CARTESIAN_POINT('',(-0.4,-1.95,0.0624999976251273));
#874=CARTESIAN_POINT('',(-0.4,0.975,0.));
#875=CARTESIAN_POINT('Origin',(0.4,1.95,0.124999995250255));
#876=CARTESIAN_POINT('',(-0.425,-1.5,0.124999995250255));
#877=CARTESIAN_POINT('',(-0.425,-1.95,0.124999995250255));
#878=CARTESIAN_POINT('Origin',(-0.8,1.95,0.249999990500509));
#879=CARTESIAN_POINT('',(-1.25,1.5,0.249999990500509));
#880=CARTESIAN_POINT('',(-0.8,1.5,0.249999990500509));
#881=CARTESIAN_POINT('',(-1.025,1.5,0.249999990500509));
#882=CARTESIAN_POINT('',(-1.25,1.95,0.249999990500509));
#883=CARTESIAN_POINT('',(-1.25,1.95,0.249999990500509));
#884=CARTESIAN_POINT('',(-0.8,1.95,0.249999990500509));
#885=CARTESIAN_POINT('',(0.225,1.95,0.249999990500509));
#886=CARTESIAN_POINT('',(-0.8,1.95,0.249999990500509));
#887=CARTESIAN_POINT('Origin',(-0.8,1.95,0.));
#888=CARTESIAN_POINT('',(-0.8,1.5,0.));
#889=CARTESIAN_POINT('',(-0.8,1.5,-2.20436418919386E-16));
#890=CARTESIAN_POINT('',(-0.8,1.95,0.));
#891=CARTESIAN_POINT('',(-0.8,1.95,0.));
#892=CARTESIAN_POINT('',(-0.8,0.975,0.));
#893=CARTESIAN_POINT('Origin',(-0.8,1.95,0.249999990500509));
#894=CARTESIAN_POINT('',(-0.8,-1.5,0.249999990500509));
#895=CARTESIAN_POINT('',(-1.25,-1.5,0.249999990500509));
#896=CARTESIAN_POINT('',(-1.025,-1.5,0.249999990500509));
#897=CARTESIAN_POINT('',(-0.8,-1.95,0.249999990500509));
#898=CARTESIAN_POINT('',(-0.8,1.95,0.249999990500509));
#899=CARTESIAN_POINT('',(-1.25,-1.95,0.249999990500509));
#900=CARTESIAN_POINT('',(-1.025,-1.95,0.249999990500509));
#901=CARTESIAN_POINT('',(-1.25,1.95,0.249999990500509));
#902=CARTESIAN_POINT('Origin',(-0.8,1.95,0.));
#903=CARTESIAN_POINT('',(-0.8,-1.5,0.));
#904=CARTESIAN_POINT('',(-0.8,-1.5,0.25));
#905=CARTESIAN_POINT('',(-0.8,-1.95,0.));
#906=CARTESIAN_POINT('',(-0.8,0.975,0.));
#907=CARTESIAN_POINT('',(-0.8,-1.95,0.));
#908=CARTESIAN_POINT('Origin',(1.25,-1.95,0.));
#909=CARTESIAN_POINT('',(1.25,-1.5,0.5));
#910=CARTESIAN_POINT('',(1.25,-1.5,0.25));
#911=CARTESIAN_POINT('',(1.25,1.5,0.49999998603016));
#912=CARTESIAN_POINT('',(1.25,-0.224999998835847,0.499999994062818));
#913=CARTESIAN_POINT('',(1.25,1.5,-2.20436418919386E-16));
#914=CARTESIAN_POINT('',(1.25,1.95,2.5));
#915=CARTESIAN_POINT('',(1.25,1.95,0.));
#916=CARTESIAN_POINT('',(1.25,-1.95,2.5));
#917=CARTESIAN_POINT('',(1.25,1.95,2.5));
#918=CARTESIAN_POINT('',(1.25,-1.95,0.));
#919=CARTESIAN_POINT('',(1.25,1.5,1.4));
#920=CARTESIAN_POINT('',(1.25,-1.5,1.4));
#921=CARTESIAN_POINT('',(1.25,-1.725,1.4));
#922=CARTESIAN_POINT('',(1.25,-1.5,1.9));
#923=CARTESIAN_POINT('',(1.25,-1.5,0.95));
#924=CARTESIAN_POINT('',(1.25,1.5,1.9));
#925=CARTESIAN_POINT('',(1.25,-0.225,1.9));
#926=CARTESIAN_POINT('',(1.25,1.5,0.7));
#927=CARTESIAN_POINT('Origin',(-1.25,-1.5,0.5));
#928=CARTESIAN_POINT('',(-0.625,-1.5,0.));
#929=CARTESIAN_POINT('',(-0.625,-1.5,0.));
#930=CARTESIAN_POINT('',(-1.25,-1.5,0.5));
#931=CARTESIAN_POINT('',(-1.25,-1.5,0.25));
#932=CARTESIAN_POINT('',(-1.25,-1.5,0.5));
#933=CARTESIAN_POINT('Origin',(0.,0.,0.));
#934=CARTESIAN_POINT('',(1.25,-1.95,0.));
#935=CARTESIAN_POINT('Origin',(1.25,1.95,0.));
#936=CARTESIAN_POINT('',(-1.25,1.95,0.));
#937=CARTESIAN_POINT('',(-1.25,1.95,0.));
#938=CARTESIAN_POINT('',(-1.25,1.95,2.5));
#939=CARTESIAN_POINT('',(-1.25,1.95,0.));
#940=CARTESIAN_POINT('',(-1.25,1.95,2.5));
#941=CARTESIAN_POINT('Origin',(0.,0.,0.));
#942=CARTESIAN_POINT('',(-0.625,1.5,0.));
#943=CARTESIAN_POINT('Origin',(0.,0.,0.));
#944=CARTESIAN_POINT('',(-0.625,1.5,0.));
#945=CARTESIAN_POINT('Origin',(-1.25,1.5,0.49999998603016));
#946=CARTESIAN_POINT('',(-1.25,1.5,0.49999998603016));
#947=CARTESIAN_POINT('',(-1.25,1.72500000116415,0.499999984982422));
#948=CARTESIAN_POINT('',(-1.25,1.5,0.49999998603016));
#949=CARTESIAN_POINT('Origin',(-1.25,1.5,-4.40872837838771E-16));
#950=CARTESIAN_POINT('',(-1.25,1.5,-2.20436418919386E-16));
#951=CARTESIAN_POINT('Origin',(-1.25,-1.5,1.4));
#952=CARTESIAN_POINT('',(-1.25,-1.5,1.4));
#953=CARTESIAN_POINT('',(-1.25,1.5,1.4));
#954=CARTESIAN_POINT('',(-1.25,0.225,1.4));
#955=CARTESIAN_POINT('',(-1.25,-1.5,1.4));
#956=CARTESIAN_POINT('',(-1.25,1.5,1.4));
#957=CARTESIAN_POINT('Origin',(-1.25,-1.5,1.9));
#958=CARTESIAN_POINT('',(-1.25,-1.5,1.9));
#959=CARTESIAN_POINT('',(-1.25,-1.5,0.950000000000001));
#960=CARTESIAN_POINT('',(-1.25,-1.5,1.9));
#961=CARTESIAN_POINT('Origin',(-1.25,1.5,1.9));
#962=CARTESIAN_POINT('',(-1.25,1.5,1.9));
#963=CARTESIAN_POINT('',(-1.25,1.725,1.9));
#964=CARTESIAN_POINT('',(-1.25,1.5,1.9));
#965=CARTESIAN_POINT('Origin',(-1.25,1.5,1.4));
#966=CARTESIAN_POINT('',(-1.25,1.5,0.7));
#967=CARTESIAN_POINT('Origin',(0.,0.,0.));
#968=CARTESIAN_POINT('',(1.25,-1.95,0.));
#969=CARTESIAN_POINT('Origin',(-1.25,1.95,0.));
#970=CARTESIAN_POINT('',(-1.25,-1.95,2.5));
#971=CARTESIAN_POINT('',(-1.25,-1.95,0.));
#972=CARTESIAN_POINT('',(-1.25,-1.95,2.5));
#973=CARTESIAN_POINT('Origin',(-1.25,-1.95,0.));
#974=CARTESIAN_POINT('',(1.25,-1.95,2.5));
#975=CARTESIAN_POINT('Origin',(0.,0.,2.5));
#976=UNCERTAINTY_MEASURE_WITH_UNIT(LENGTH_MEASURE(0.01),#980,
'DISTANCE_ACCURACY_VALUE',
'Maximum model space distance between geometric entities at asserted c
onnectivities');
#977=UNCERTAINTY_MEASURE_WITH_UNIT(LENGTH_MEASURE(0.01),#980,
'DISTANCE_ACCURACY_VALUE',
'Maximum model space distance between geometric entities at asserted c
onnectivities');
#978=(
GEOMETRIC_REPRESENTATION_CONTEXT(3)
GLOBAL_UNCERTAINTY_ASSIGNED_CONTEXT((#976))
GLOBAL_UNIT_ASSIGNED_CONTEXT((#980,#982,#983))
REPRESENTATION_CONTEXT('','3D')
);
#979=(
GEOMETRIC_REPRESENTATION_CONTEXT(3)
GLOBAL_UNCERTAINTY_ASSIGNED_CONTEXT((#977))
GLOBAL_UNIT_ASSIGNED_CONTEXT((#980,#982,#983))
REPRESENTATION_CONTEXT('','3D')
);
#980=(
LENGTH_UNIT()
NAMED_UNIT(*)
SI_UNIT(.MILLI.,.METRE.)
);
#981=(
LENGTH_UNIT()
NAMED_UNIT(*)
SI_UNIT($,.METRE.)
);
#982=(
NAMED_UNIT(*)
PLANE_ANGLE_UNIT()
SI_UNIT($,.RADIAN.)
);
#983=(
NAMED_UNIT(*)
SI_UNIT($,.STERADIAN.)
SOLID_ANGLE_UNIT()
);
#984=SHAPE_DEFINITION_REPRESENTATION(#985,#986);
#985=PRODUCT_DEFINITION_SHAPE('',$,#988);
#986=SHAPE_REPRESENTATION('',(#628),#978);
#987=PRODUCT_DEFINITION_CONTEXT('part definition',#992,'design');
#988=PRODUCT_DEFINITION('2026-08-29-17-14-46-472','ACT12_Choke',#989,#987);
#989=PRODUCT_DEFINITION_FORMATION('',$,#994);
#990=PRODUCT_RELATED_PRODUCT_CATEGORY('ACT12_Choke','ACT12_Choke',(#994));
#991=APPLICATION_PROTOCOL_DEFINITION('international standard',
'automotive_design',2009,#992);
#992=APPLICATION_CONTEXT(
'Core Data for Automotive Mechanical Design Process');
#993=PRODUCT_CONTEXT('part definition',#992,'mechanical');
#994=PRODUCT('2026-08-29-17-14-46-472','ACT12_Choke',$,(#993));
#995=PRESENTATION_STYLE_ASSIGNMENT((#996));
#996=SURFACE_STYLE_USAGE(.BOTH.,#997);
#997=SURFACE_SIDE_STYLE('',(#998));
#998=SURFACE_STYLE_FILL_AREA(#999);
#999=FILL_AREA_STYLE('Steel - Satin',(#1000));
#1000=FILL_AREA_STYLE_COLOUR('Steel - Satin',#1001);
#1001=COLOUR_RGB('Steel - Satin',0.627450980392157,0.627450980392157,0.627450980392157);
ENDSEC;
END-ISO-10303-21;
