ISO-10303-21;
HEADER;
/* Generated by software containing ST-Developer
 * from STEP Tools, Inc. (www.steptools.com) 
 */

FILE_DESCRIPTION(
/* description */ (''),
/* implementation_level */ '2;1');

FILE_NAME(
/* name */ 'SKSCLCE010.step',
/* time_stamp */ '2026-08-29T17:31:16-07:00',
/* author */ (''),
/* organization */ (''),
/* preprocessor_version */ 'ST-DEVELOPER v20.1',
/* originating_system */ 'Autodesk Translation Framework v15.8.0.0',
/* authorisation */ '');

FILE_SCHEMA (('AUTOMOTIVE_DESIGN { 1 0 10303 214 3 1 1 }'));
ENDSEC;

DATA;
#10=MECHANICAL_DESIGN_GEOMETRIC_PRESENTATION_REPRESENTATION('',(#13),#843);
#11=SHAPE_REPRESENTATION_RELATIONSHIP('SRR','None',#850,#12);
#12=ADVANCED_BREP_SHAPE_REPRESENTATION('',(#14),#842);
#13=STYLED_ITEM('',(#859),#14);
#14=MANIFOLD_SOLID_BREP('Body1',#527);
#15=FACE_OUTER_BOUND('',#41,.T.);
#16=FACE_OUTER_BOUND('',#42,.T.);
#17=FACE_OUTER_BOUND('',#43,.T.);
#18=FACE_OUTER_BOUND('',#44,.T.);
#19=FACE_OUTER_BOUND('',#45,.T.);
#20=FACE_OUTER_BOUND('',#46,.T.);
#21=FACE_OUTER_BOUND('',#47,.T.);
#22=FACE_OUTER_BOUND('',#48,.T.);
#23=FACE_OUTER_BOUND('',#49,.T.);
#24=FACE_OUTER_BOUND('',#50,.T.);
#25=FACE_OUTER_BOUND('',#51,.T.);
#26=FACE_OUTER_BOUND('',#52,.T.);
#27=FACE_OUTER_BOUND('',#53,.T.);
#28=FACE_OUTER_BOUND('',#54,.T.);
#29=FACE_OUTER_BOUND('',#55,.T.);
#30=FACE_OUTER_BOUND('',#56,.T.);
#31=FACE_OUTER_BOUND('',#57,.T.);
#32=FACE_OUTER_BOUND('',#58,.T.);
#33=FACE_OUTER_BOUND('',#59,.T.);
#34=FACE_OUTER_BOUND('',#60,.T.);
#35=FACE_OUTER_BOUND('',#61,.T.);
#36=FACE_OUTER_BOUND('',#62,.T.);
#37=FACE_OUTER_BOUND('',#63,.T.);
#38=FACE_OUTER_BOUND('',#64,.T.);
#39=FACE_OUTER_BOUND('',#65,.T.);
#40=FACE_OUTER_BOUND('',#66,.T.);
#41=EDGE_LOOP('',(#331,#332,#333,#334));
#42=EDGE_LOOP('',(#335,#336,#337,#338));
#43=EDGE_LOOP('',(#339,#340,#341,#342));
#44=EDGE_LOOP('',(#343,#344,#345,#346));
#45=EDGE_LOOP('',(#347,#348,#349,#350));
#46=EDGE_LOOP('',(#351,#352,#353,#354));
#47=EDGE_LOOP('',(#355,#356,#357,#358));
#48=EDGE_LOOP('',(#359,#360,#361,#362));
#49=EDGE_LOOP('',(#363,#364,#365,#366));
#50=EDGE_LOOP('',(#367,#368,#369,#370));
#51=EDGE_LOOP('',(#371,#372,#373,#374));
#52=EDGE_LOOP('',(#375,#376,#377,#378));
#53=EDGE_LOOP('',(#379,#380,#381,#382));
#54=EDGE_LOOP('',(#383,#384,#385,#386));
#55=EDGE_LOOP('',(#387,#388,#389,#390));
#56=EDGE_LOOP('',(#391,#392,#393,#394));
#57=EDGE_LOOP('',(#395,#396,#397,#398));
#58=EDGE_LOOP('',(#399,#400,#401,#402));
#59=EDGE_LOOP('',(#403,#404,#405,#406));
#60=EDGE_LOOP('',(#407,#408,#409,#410));
#61=EDGE_LOOP('',(#411,#412,#413,#414));
#62=EDGE_LOOP('',(#415,#416,#417,#418,#419,#420,#421,#422,#423,#424,#425,
#426));
#63=EDGE_LOOP('',(#427,#428,#429,#430,#431,#432,#433,#434,#435,#436,#437,
#438));
#64=EDGE_LOOP('',(#439,#440,#441,#442));
#65=EDGE_LOOP('',(#443,#444,#445,#446,#447,#448,#449,#450,#451,#452,#453,
#454,#455,#456,#457,#458,#459,#460,#461,#462,#463,#464,#465,#466));
#66=EDGE_LOOP('',(#467,#468,#469,#470,#471,#472,#473,#474));
#67=LINE('',#697,#139);
#68=LINE('',#699,#140);
#69=LINE('',#701,#141);
#70=LINE('',#702,#142);
#71=LINE('',#705,#143);
#72=LINE('',#707,#144);
#73=LINE('',#708,#145);
#74=LINE('',#711,#146);
#75=LINE('',#713,#147);
#76=LINE('',#714,#148);
#77=LINE('',#716,#149);
#78=LINE('',#720,#150);
#79=LINE('',#722,#151);
#80=LINE('',#724,#152);
#81=LINE('',#725,#153);
#82=LINE('',#728,#154);
#83=LINE('',#730,#155);
#84=LINE('',#731,#156);
#85=LINE('',#734,#157);
#86=LINE('',#736,#158);
#87=LINE('',#737,#159);
#88=LINE('',#739,#160);
#89=LINE('',#743,#161);
#90=LINE('',#745,#162);
#91=LINE('',#747,#163);
#92=LINE('',#748,#164);
#93=LINE('',#752,#165);
#94=LINE('',#754,#166);
#95=LINE('',#756,#167);
#96=LINE('',#757,#168);
#97=LINE('',#759,#169);
#98=LINE('',#760,#170);
#99=LINE('',#762,#171);
#100=LINE('',#766,#172);
#101=LINE('',#768,#173);
#102=LINE('',#770,#174);
#103=LINE('',#771,#175);
#104=LINE('',#775,#176);
#105=LINE('',#777,#177);
#106=LINE('',#779,#178);
#107=LINE('',#780,#179);
#108=LINE('',#782,#180);
#109=LINE('',#783,#181);
#110=LINE('',#785,#182);
#111=LINE('',#789,#183);
#112=LINE('',#791,#184);
#113=LINE('',#793,#185);
#114=LINE('',#794,#186);
#115=LINE('',#797,#187);
#116=LINE('',#799,#188);
#117=LINE('',#800,#189);
#118=LINE('',#803,#190);
#119=LINE('',#805,#191);
#120=LINE('',#806,#192);
#121=LINE('',#809,#193);
#122=LINE('',#811,#194);
#123=LINE('',#812,#195);
#124=LINE('',#815,#196);
#125=LINE('',#817,#197);
#126=LINE('',#818,#198);
#127=LINE('',#820,#199);
#128=LINE('',#822,#200);
#129=LINE('',#824,#201);
#130=LINE('',#825,#202);
#131=LINE('',#826,#203);
#132=LINE('',#829,#204);
#133=LINE('',#831,#205);
#134=LINE('',#832,#206);
#135=LINE('',#833,#207);
#136=LINE('',#834,#208);
#137=LINE('',#836,#209);
#138=LINE('',#837,#210);
#139=VECTOR('',#571,10.);
#140=VECTOR('',#572,10.);
#141=VECTOR('',#573,10.);
#142=VECTOR('',#574,10.);
#143=VECTOR('',#577,10.);
#144=VECTOR('',#578,10.);
#145=VECTOR('',#579,10.);
#146=VECTOR('',#582,10.);
#147=VECTOR('',#583,10.);
#148=VECTOR('',#584,10.);
#149=VECTOR('',#587,10.);
#150=VECTOR('',#590,10.);
#151=VECTOR('',#591,10.);
#152=VECTOR('',#592,10.);
#153=VECTOR('',#593,10.);
#154=VECTOR('',#596,10.);
#155=VECTOR('',#597,10.);
#156=VECTOR('',#598,10.);
#157=VECTOR('',#601,10.);
#158=VECTOR('',#602,10.);
#159=VECTOR('',#603,10.);
#160=VECTOR('',#606,10.);
#161=VECTOR('',#609,10.);
#162=VECTOR('',#610,10.);
#163=VECTOR('',#611,10.);
#164=VECTOR('',#612,10.);
#165=VECTOR('',#615,10.);
#166=VECTOR('',#616,10.);
#167=VECTOR('',#617,10.);
#168=VECTOR('',#618,10.);
#169=VECTOR('',#621,10.);
#170=VECTOR('',#622,10.);
#171=VECTOR('',#625,10.);
#172=VECTOR('',#628,10.);
#173=VECTOR('',#629,10.);
#174=VECTOR('',#630,10.);
#175=VECTOR('',#631,10.);
#176=VECTOR('',#634,10.);
#177=VECTOR('',#635,10.);
#178=VECTOR('',#636,10.);
#179=VECTOR('',#637,10.);
#180=VECTOR('',#640,10.);
#181=VECTOR('',#641,10.);
#182=VECTOR('',#644,10.);
#183=VECTOR('',#647,10.);
#184=VECTOR('',#648,10.);
#185=VECTOR('',#649,10.);
#186=VECTOR('',#650,10.);
#187=VECTOR('',#653,10.);
#188=VECTOR('',#654,10.);
#189=VECTOR('',#655,10.);
#190=VECTOR('',#658,10.);
#191=VECTOR('',#659,10.);
#192=VECTOR('',#660,10.);
#193=VECTOR('',#663,10.);
#194=VECTOR('',#664,10.);
#195=VECTOR('',#665,10.);
#196=VECTOR('',#668,10.);
#197=VECTOR('',#669,10.);
#198=VECTOR('',#670,10.);
#199=VECTOR('',#673,10.);
#200=VECTOR('',#674,10.);
#201=VECTOR('',#675,10.);
#202=VECTOR('',#676,10.);
#203=VECTOR('',#677,10.);
#204=VECTOR('',#680,10.);
#205=VECTOR('',#681,10.);
#206=VECTOR('',#682,10.);
#207=VECTOR('',#683,10.);
#208=VECTOR('',#684,10.);
#209=VECTOR('',#687,10.);
#210=VECTOR('',#688,10.);
#211=VERTEX_POINT('',#695);
#212=VERTEX_POINT('',#696);
#213=VERTEX_POINT('',#698);
#214=VERTEX_POINT('',#700);
#215=VERTEX_POINT('',#704);
#216=VERTEX_POINT('',#706);
#217=VERTEX_POINT('',#710);
#218=VERTEX_POINT('',#712);
#219=VERTEX_POINT('',#718);
#220=VERTEX_POINT('',#719);
#221=VERTEX_POINT('',#721);
#222=VERTEX_POINT('',#723);
#223=VERTEX_POINT('',#727);
#224=VERTEX_POINT('',#729);
#225=VERTEX_POINT('',#733);
#226=VERTEX_POINT('',#735);
#227=VERTEX_POINT('',#741);
#228=VERTEX_POINT('',#742);
#229=VERTEX_POINT('',#744);
#230=VERTEX_POINT('',#746);
#231=VERTEX_POINT('',#750);
#232=VERTEX_POINT('',#751);
#233=VERTEX_POINT('',#753);
#234=VERTEX_POINT('',#755);
#235=VERTEX_POINT('',#764);
#236=VERTEX_POINT('',#765);
#237=VERTEX_POINT('',#767);
#238=VERTEX_POINT('',#769);
#239=VERTEX_POINT('',#773);
#240=VERTEX_POINT('',#774);
#241=VERTEX_POINT('',#776);
#242=VERTEX_POINT('',#778);
#243=VERTEX_POINT('',#787);
#244=VERTEX_POINT('',#788);
#245=VERTEX_POINT('',#790);
#246=VERTEX_POINT('',#792);
#247=VERTEX_POINT('',#796);
#248=VERTEX_POINT('',#798);
#249=VERTEX_POINT('',#802);
#250=VERTEX_POINT('',#804);
#251=VERTEX_POINT('',#808);
#252=VERTEX_POINT('',#810);
#253=VERTEX_POINT('',#814);
#254=VERTEX_POINT('',#816);
#255=VERTEX_POINT('',#821);
#256=VERTEX_POINT('',#823);
#257=VERTEX_POINT('',#828);
#258=VERTEX_POINT('',#830);
#259=EDGE_CURVE('',#211,#212,#67,.T.);
#260=EDGE_CURVE('',#211,#213,#68,.T.);
#261=EDGE_CURVE('',#214,#213,#69,.T.);
#262=EDGE_CURVE('',#212,#214,#70,.T.);
#263=EDGE_CURVE('',#212,#215,#71,.T.);
#264=EDGE_CURVE('',#216,#214,#72,.T.);
#265=EDGE_CURVE('',#215,#216,#73,.T.);
#266=EDGE_CURVE('',#217,#211,#74,.T.);
#267=EDGE_CURVE('',#218,#217,#75,.T.);
#268=EDGE_CURVE('',#213,#218,#76,.T.);
#269=EDGE_CURVE('',#216,#218,#77,.T.);
#270=EDGE_CURVE('',#219,#220,#78,.T.);
#271=EDGE_CURVE('',#219,#221,#79,.T.);
#272=EDGE_CURVE('',#222,#221,#80,.T.);
#273=EDGE_CURVE('',#220,#222,#81,.T.);
#274=EDGE_CURVE('',#220,#223,#82,.T.);
#275=EDGE_CURVE('',#224,#222,#83,.T.);
#276=EDGE_CURVE('',#223,#224,#84,.T.);
#277=EDGE_CURVE('',#225,#219,#85,.T.);
#278=EDGE_CURVE('',#226,#225,#86,.T.);
#279=EDGE_CURVE('',#221,#226,#87,.T.);
#280=EDGE_CURVE('',#224,#226,#88,.T.);
#281=EDGE_CURVE('',#227,#228,#89,.T.);
#282=EDGE_CURVE('',#228,#229,#90,.T.);
#283=EDGE_CURVE('',#230,#229,#91,.T.);
#284=EDGE_CURVE('',#227,#230,#92,.T.);
#285=EDGE_CURVE('',#231,#232,#93,.T.);
#286=EDGE_CURVE('',#233,#232,#94,.T.);
#287=EDGE_CURVE('',#234,#233,#95,.T.);
#288=EDGE_CURVE('',#231,#234,#96,.T.);
#289=EDGE_CURVE('',#228,#231,#97,.T.);
#290=EDGE_CURVE('',#229,#234,#98,.T.);
#291=EDGE_CURVE('',#230,#233,#99,.T.);
#292=EDGE_CURVE('',#235,#236,#100,.T.);
#293=EDGE_CURVE('',#236,#237,#101,.T.);
#294=EDGE_CURVE('',#238,#237,#102,.T.);
#295=EDGE_CURVE('',#235,#238,#103,.T.);
#296=EDGE_CURVE('',#239,#240,#104,.T.);
#297=EDGE_CURVE('',#241,#240,#105,.T.);
#298=EDGE_CURVE('',#242,#241,#106,.T.);
#299=EDGE_CURVE('',#239,#242,#107,.T.);
#300=EDGE_CURVE('',#236,#239,#108,.T.);
#301=EDGE_CURVE('',#237,#242,#109,.T.);
#302=EDGE_CURVE('',#238,#241,#110,.T.);
#303=EDGE_CURVE('',#243,#244,#111,.T.);
#304=EDGE_CURVE('',#245,#244,#112,.T.);
#305=EDGE_CURVE('',#246,#245,#113,.T.);
#306=EDGE_CURVE('',#243,#246,#114,.T.);
#307=EDGE_CURVE('',#247,#243,#115,.T.);
#308=EDGE_CURVE('',#248,#246,#116,.T.);
#309=EDGE_CURVE('',#247,#248,#117,.T.);
#310=EDGE_CURVE('',#249,#247,#118,.T.);
#311=EDGE_CURVE('',#250,#248,#119,.T.);
#312=EDGE_CURVE('',#249,#250,#120,.T.);
#313=EDGE_CURVE('',#251,#250,#121,.T.);
#314=EDGE_CURVE('',#251,#252,#122,.T.);
#315=EDGE_CURVE('',#249,#252,#123,.T.);
#316=EDGE_CURVE('',#253,#244,#124,.T.);
#317=EDGE_CURVE('',#254,#253,#125,.T.);
#318=EDGE_CURVE('',#245,#254,#126,.T.);
#319=EDGE_CURVE('',#252,#217,#127,.T.);
#320=EDGE_CURVE('',#255,#251,#128,.T.);
#321=EDGE_CURVE('',#255,#256,#129,.T.);
#322=EDGE_CURVE('',#227,#256,#130,.T.);
#323=EDGE_CURVE('',#215,#232,#131,.T.);
#324=EDGE_CURVE('',#257,#225,#132,.T.);
#325=EDGE_CURVE('',#258,#257,#133,.T.);
#326=EDGE_CURVE('',#254,#258,#134,.T.);
#327=EDGE_CURVE('',#235,#253,#135,.T.);
#328=EDGE_CURVE('',#223,#240,#136,.T.);
#329=EDGE_CURVE('',#258,#255,#137,.T.);
#330=EDGE_CURVE('',#256,#257,#138,.T.);
#331=ORIENTED_EDGE('',*,*,#259,.F.);
#332=ORIENTED_EDGE('',*,*,#260,.T.);
#333=ORIENTED_EDGE('',*,*,#261,.F.);
#334=ORIENTED_EDGE('',*,*,#262,.F.);
#335=ORIENTED_EDGE('',*,*,#263,.F.);
#336=ORIENTED_EDGE('',*,*,#262,.T.);
#337=ORIENTED_EDGE('',*,*,#264,.F.);
#338=ORIENTED_EDGE('',*,*,#265,.F.);
#339=ORIENTED_EDGE('',*,*,#266,.F.);
#340=ORIENTED_EDGE('',*,*,#267,.F.);
#341=ORIENTED_EDGE('',*,*,#268,.F.);
#342=ORIENTED_EDGE('',*,*,#260,.F.);
#343=ORIENTED_EDGE('',*,*,#268,.T.);
#344=ORIENTED_EDGE('',*,*,#269,.F.);
#345=ORIENTED_EDGE('',*,*,#264,.T.);
#346=ORIENTED_EDGE('',*,*,#261,.T.);
#347=ORIENTED_EDGE('',*,*,#270,.F.);
#348=ORIENTED_EDGE('',*,*,#271,.T.);
#349=ORIENTED_EDGE('',*,*,#272,.F.);
#350=ORIENTED_EDGE('',*,*,#273,.F.);
#351=ORIENTED_EDGE('',*,*,#274,.F.);
#352=ORIENTED_EDGE('',*,*,#273,.T.);
#353=ORIENTED_EDGE('',*,*,#275,.F.);
#354=ORIENTED_EDGE('',*,*,#276,.F.);
#355=ORIENTED_EDGE('',*,*,#277,.F.);
#356=ORIENTED_EDGE('',*,*,#278,.F.);
#357=ORIENTED_EDGE('',*,*,#279,.F.);
#358=ORIENTED_EDGE('',*,*,#271,.F.);
#359=ORIENTED_EDGE('',*,*,#279,.T.);
#360=ORIENTED_EDGE('',*,*,#280,.F.);
#361=ORIENTED_EDGE('',*,*,#275,.T.);
#362=ORIENTED_EDGE('',*,*,#272,.T.);
#363=ORIENTED_EDGE('',*,*,#281,.T.);
#364=ORIENTED_EDGE('',*,*,#282,.T.);
#365=ORIENTED_EDGE('',*,*,#283,.F.);
#366=ORIENTED_EDGE('',*,*,#284,.F.);
#367=ORIENTED_EDGE('',*,*,#285,.T.);
#368=ORIENTED_EDGE('',*,*,#286,.F.);
#369=ORIENTED_EDGE('',*,*,#287,.F.);
#370=ORIENTED_EDGE('',*,*,#288,.F.);
#371=ORIENTED_EDGE('',*,*,#289,.T.);
#372=ORIENTED_EDGE('',*,*,#288,.T.);
#373=ORIENTED_EDGE('',*,*,#290,.F.);
#374=ORIENTED_EDGE('',*,*,#282,.F.);
#375=ORIENTED_EDGE('',*,*,#290,.T.);
#376=ORIENTED_EDGE('',*,*,#287,.T.);
#377=ORIENTED_EDGE('',*,*,#291,.F.);
#378=ORIENTED_EDGE('',*,*,#283,.T.);
#379=ORIENTED_EDGE('',*,*,#292,.T.);
#380=ORIENTED_EDGE('',*,*,#293,.T.);
#381=ORIENTED_EDGE('',*,*,#294,.F.);
#382=ORIENTED_EDGE('',*,*,#295,.F.);
#383=ORIENTED_EDGE('',*,*,#296,.T.);
#384=ORIENTED_EDGE('',*,*,#297,.F.);
#385=ORIENTED_EDGE('',*,*,#298,.F.);
#386=ORIENTED_EDGE('',*,*,#299,.F.);
#387=ORIENTED_EDGE('',*,*,#300,.T.);
#388=ORIENTED_EDGE('',*,*,#299,.T.);
#389=ORIENTED_EDGE('',*,*,#301,.F.);
#390=ORIENTED_EDGE('',*,*,#293,.F.);
#391=ORIENTED_EDGE('',*,*,#301,.T.);
#392=ORIENTED_EDGE('',*,*,#298,.T.);
#393=ORIENTED_EDGE('',*,*,#302,.F.);
#394=ORIENTED_EDGE('',*,*,#294,.T.);
#395=ORIENTED_EDGE('',*,*,#303,.T.);
#396=ORIENTED_EDGE('',*,*,#304,.F.);
#397=ORIENTED_EDGE('',*,*,#305,.F.);
#398=ORIENTED_EDGE('',*,*,#306,.F.);
#399=ORIENTED_EDGE('',*,*,#307,.T.);
#400=ORIENTED_EDGE('',*,*,#306,.T.);
#401=ORIENTED_EDGE('',*,*,#308,.F.);
#402=ORIENTED_EDGE('',*,*,#309,.F.);
#403=ORIENTED_EDGE('',*,*,#310,.T.);
#404=ORIENTED_EDGE('',*,*,#309,.T.);
#405=ORIENTED_EDGE('',*,*,#311,.F.);
#406=ORIENTED_EDGE('',*,*,#312,.F.);
#407=ORIENTED_EDGE('',*,*,#312,.T.);
#408=ORIENTED_EDGE('',*,*,#313,.F.);
#409=ORIENTED_EDGE('',*,*,#314,.T.);
#410=ORIENTED_EDGE('',*,*,#315,.F.);
#411=ORIENTED_EDGE('',*,*,#304,.T.);
#412=ORIENTED_EDGE('',*,*,#316,.F.);
#413=ORIENTED_EDGE('',*,*,#317,.F.);
#414=ORIENTED_EDGE('',*,*,#318,.F.);
#415=ORIENTED_EDGE('',*,*,#267,.T.);
#416=ORIENTED_EDGE('',*,*,#319,.F.);
#417=ORIENTED_EDGE('',*,*,#314,.F.);
#418=ORIENTED_EDGE('',*,*,#320,.F.);
#419=ORIENTED_EDGE('',*,*,#321,.T.);
#420=ORIENTED_EDGE('',*,*,#322,.F.);
#421=ORIENTED_EDGE('',*,*,#284,.T.);
#422=ORIENTED_EDGE('',*,*,#291,.T.);
#423=ORIENTED_EDGE('',*,*,#286,.T.);
#424=ORIENTED_EDGE('',*,*,#323,.F.);
#425=ORIENTED_EDGE('',*,*,#265,.T.);
#426=ORIENTED_EDGE('',*,*,#269,.T.);
#427=ORIENTED_EDGE('',*,*,#278,.T.);
#428=ORIENTED_EDGE('',*,*,#324,.F.);
#429=ORIENTED_EDGE('',*,*,#325,.F.);
#430=ORIENTED_EDGE('',*,*,#326,.F.);
#431=ORIENTED_EDGE('',*,*,#317,.T.);
#432=ORIENTED_EDGE('',*,*,#327,.F.);
#433=ORIENTED_EDGE('',*,*,#295,.T.);
#434=ORIENTED_EDGE('',*,*,#302,.T.);
#435=ORIENTED_EDGE('',*,*,#297,.T.);
#436=ORIENTED_EDGE('',*,*,#328,.F.);
#437=ORIENTED_EDGE('',*,*,#276,.T.);
#438=ORIENTED_EDGE('',*,*,#280,.T.);
#439=ORIENTED_EDGE('',*,*,#329,.F.);
#440=ORIENTED_EDGE('',*,*,#325,.T.);
#441=ORIENTED_EDGE('',*,*,#330,.F.);
#442=ORIENTED_EDGE('',*,*,#321,.F.);
#443=ORIENTED_EDGE('',*,*,#330,.T.);
#444=ORIENTED_EDGE('',*,*,#324,.T.);
#445=ORIENTED_EDGE('',*,*,#277,.T.);
#446=ORIENTED_EDGE('',*,*,#270,.T.);
#447=ORIENTED_EDGE('',*,*,#274,.T.);
#448=ORIENTED_EDGE('',*,*,#328,.T.);
#449=ORIENTED_EDGE('',*,*,#296,.F.);
#450=ORIENTED_EDGE('',*,*,#300,.F.);
#451=ORIENTED_EDGE('',*,*,#292,.F.);
#452=ORIENTED_EDGE('',*,*,#327,.T.);
#453=ORIENTED_EDGE('',*,*,#316,.T.);
#454=ORIENTED_EDGE('',*,*,#303,.F.);
#455=ORIENTED_EDGE('',*,*,#307,.F.);
#456=ORIENTED_EDGE('',*,*,#310,.F.);
#457=ORIENTED_EDGE('',*,*,#315,.T.);
#458=ORIENTED_EDGE('',*,*,#319,.T.);
#459=ORIENTED_EDGE('',*,*,#266,.T.);
#460=ORIENTED_EDGE('',*,*,#259,.T.);
#461=ORIENTED_EDGE('',*,*,#263,.T.);
#462=ORIENTED_EDGE('',*,*,#323,.T.);
#463=ORIENTED_EDGE('',*,*,#285,.F.);
#464=ORIENTED_EDGE('',*,*,#289,.F.);
#465=ORIENTED_EDGE('',*,*,#281,.F.);
#466=ORIENTED_EDGE('',*,*,#322,.T.);
#467=ORIENTED_EDGE('',*,*,#329,.T.);
#468=ORIENTED_EDGE('',*,*,#320,.T.);
#469=ORIENTED_EDGE('',*,*,#313,.T.);
#470=ORIENTED_EDGE('',*,*,#311,.T.);
#471=ORIENTED_EDGE('',*,*,#308,.T.);
#472=ORIENTED_EDGE('',*,*,#305,.T.);
#473=ORIENTED_EDGE('',*,*,#318,.T.);
#474=ORIENTED_EDGE('',*,*,#326,.T.);
#475=PLANE('',#541);
#476=PLANE('',#542);
#477=PLANE('',#543);
#478=PLANE('',#544);
#479=PLANE('',#545);
#480=PLANE('',#546);
#481=PLANE('',#547);
#482=PLANE('',#548);
#483=PLANE('',#549);
#484=PLANE('',#550);
#485=PLANE('',#551);
#486=PLANE('',#552);
#487=PLANE('',#553);
#488=PLANE('',#554);
#489=PLANE('',#555);
#490=PLANE('',#556);
#491=PLANE('',#557);
#492=PLANE('',#558);
#493=PLANE('',#559);
#494=PLANE('',#560);
#495=PLANE('',#561);
#496=PLANE('',#562);
#497=PLANE('',#563);
#498=PLANE('',#564);
#499=PLANE('',#565);
#500=PLANE('',#566);
#501=ADVANCED_FACE('',(#15),#475,.T.);
#502=ADVANCED_FACE('',(#16),#476,.T.);
#503=ADVANCED_FACE('',(#17),#477,.T.);
#504=ADVANCED_FACE('',(#18),#478,.T.);
#505=ADVANCED_FACE('',(#19),#479,.T.);
#506=ADVANCED_FACE('',(#20),#480,.T.);
#507=ADVANCED_FACE('',(#21),#481,.T.);
#508=ADVANCED_FACE('',(#22),#482,.T.);
#509=ADVANCED_FACE('',(#23),#483,.T.);
#510=ADVANCED_FACE('',(#24),#484,.T.);
#511=ADVANCED_FACE('',(#25),#485,.T.);
#512=ADVANCED_FACE('',(#26),#486,.T.);
#513=ADVANCED_FACE('',(#27),#487,.T.);
#514=ADVANCED_FACE('',(#28),#488,.T.);
#515=ADVANCED_FACE('',(#29),#489,.T.);
#516=ADVANCED_FACE('',(#30),#490,.T.);
#517=ADVANCED_FACE('',(#31),#491,.T.);
#518=ADVANCED_FACE('',(#32),#492,.T.);
#519=ADVANCED_FACE('',(#33),#493,.T.);
#520=ADVANCED_FACE('',(#34),#494,.T.);
#521=ADVANCED_FACE('',(#35),#495,.T.);
#522=ADVANCED_FACE('',(#36),#496,.T.);
#523=ADVANCED_FACE('',(#37),#497,.T.);
#524=ADVANCED_FACE('',(#38),#498,.T.);
#525=ADVANCED_FACE('',(#39),#499,.T.);
#526=ADVANCED_FACE('',(#40),#500,.F.);
#527=CLOSED_SHELL('',(#501,#502,#503,#504,#505,#506,#507,#508,#509,#510,
#511,#512,#513,#514,#515,#516,#517,#518,#519,#520,#521,#522,#523,#524,#525,
#526));
#528=DERIVED_UNIT_ELEMENT(#530,1.);
#529=DERIVED_UNIT_ELEMENT(#845,-3.);
#530=(
MASS_UNIT()
NAMED_UNIT(*)
SI_UNIT(.KILO.,.GRAM.)
);
#531=DERIVED_UNIT((#528,#529));
#532=MEASURE_REPRESENTATION_ITEM('density measure',
POSITIVE_RATIO_MEASURE(7850.),#531);
#533=PROPERTY_DEFINITION_REPRESENTATION(#538,#535);
#534=PROPERTY_DEFINITION_REPRESENTATION(#539,#536);
#535=REPRESENTATION('material name',(#537),#842);
#536=REPRESENTATION('density',(#532),#842);
#537=DESCRIPTIVE_REPRESENTATION_ITEM('Steel','Steel');
#538=PROPERTY_DEFINITION('material property','material name',#852);
#539=PROPERTY_DEFINITION('material property','density of part',#852);
#540=AXIS2_PLACEMENT_3D('',#693,#567,#568);
#541=AXIS2_PLACEMENT_3D('',#694,#569,#570);
#542=AXIS2_PLACEMENT_3D('',#703,#575,#576);
#543=AXIS2_PLACEMENT_3D('',#709,#580,#581);
#544=AXIS2_PLACEMENT_3D('',#715,#585,#586);
#545=AXIS2_PLACEMENT_3D('',#717,#588,#589);
#546=AXIS2_PLACEMENT_3D('',#726,#594,#595);
#547=AXIS2_PLACEMENT_3D('',#732,#599,#600);
#548=AXIS2_PLACEMENT_3D('',#738,#604,#605);
#549=AXIS2_PLACEMENT_3D('',#740,#607,#608);
#550=AXIS2_PLACEMENT_3D('',#749,#613,#614);
#551=AXIS2_PLACEMENT_3D('',#758,#619,#620);
#552=AXIS2_PLACEMENT_3D('',#761,#623,#624);
#553=AXIS2_PLACEMENT_3D('',#763,#626,#627);
#554=AXIS2_PLACEMENT_3D('',#772,#632,#633);
#555=AXIS2_PLACEMENT_3D('',#781,#638,#639);
#556=AXIS2_PLACEMENT_3D('',#784,#642,#643);
#557=AXIS2_PLACEMENT_3D('',#786,#645,#646);
#558=AXIS2_PLACEMENT_3D('',#795,#651,#652);
#559=AXIS2_PLACEMENT_3D('',#801,#656,#657);
#560=AXIS2_PLACEMENT_3D('',#807,#661,#662);
#561=AXIS2_PLACEMENT_3D('',#813,#666,#667);
#562=AXIS2_PLACEMENT_3D('',#819,#671,#672);
#563=AXIS2_PLACEMENT_3D('',#827,#678,#679);
#564=AXIS2_PLACEMENT_3D('',#835,#685,#686);
#565=AXIS2_PLACEMENT_3D('',#838,#689,#690);
#566=AXIS2_PLACEMENT_3D('',#839,#691,#692);
#567=DIRECTION('axis',(0.,0.,1.));
#568=DIRECTION('refdir',(1.,0.,0.));
#569=DIRECTION('center_axis',(1.,-1.58603289232165E-15,0.));
#570=DIRECTION('ref_axis',(-1.58603289232165E-15,-1.,0.));
#571=DIRECTION('',(1.58603289232165E-15,1.,0.));
#572=DIRECTION('',(0.,0.,-1.));
#573=DIRECTION('',(-1.58603289232165E-15,-1.,0.));
#574=DIRECTION('',(0.,0.,-1.));
#575=DIRECTION('center_axis',(1.13078271026636E-15,1.,0.));
#576=DIRECTION('ref_axis',(1.,-1.13078271026636E-15,0.));
#577=DIRECTION('',(-1.,1.13078271026636E-15,0.));
#578=DIRECTION('',(1.,-1.13078271026636E-15,0.));
#579=DIRECTION('',(0.,0.,-1.));
#580=DIRECTION('center_axis',(-8.22387425648265E-16,-1.,0.));
#581=DIRECTION('ref_axis',(-1.,8.22387425648265E-16,0.));
#582=DIRECTION('',(1.,-8.22387425648265E-16,0.));
#583=DIRECTION('',(0.,0.,1.));
#584=DIRECTION('',(-1.,8.22387425648265E-16,0.));
#585=DIRECTION('center_axis',(0.,0.,-1.));
#586=DIRECTION('ref_axis',(-1.,0.,0.));
#587=DIRECTION('',(0.,-1.,0.));
#588=DIRECTION('center_axis',(-1.,0.,0.));
#589=DIRECTION('ref_axis',(0.,1.,0.));
#590=DIRECTION('',(0.,-1.,0.));
#591=DIRECTION('',(0.,0.,-1.));
#592=DIRECTION('',(0.,1.,0.));
#593=DIRECTION('',(0.,0.,-1.));
#594=DIRECTION('center_axis',(-3.08395284618099E-16,-1.,0.));
#595=DIRECTION('ref_axis',(-1.,3.08395284618099E-16,0.));
#596=DIRECTION('',(1.,-3.08395284618099E-16,0.));
#597=DIRECTION('',(-1.,3.08395284618099E-16,0.));
#598=DIRECTION('',(0.,0.,-1.));
#599=DIRECTION('center_axis',(0.,1.,0.));
#600=DIRECTION('ref_axis',(1.,0.,0.));
#601=DIRECTION('',(-1.,0.,0.));
#602=DIRECTION('',(0.,0.,1.));
#603=DIRECTION('',(1.,0.,0.));
#604=DIRECTION('center_axis',(0.,0.,-1.));
#605=DIRECTION('ref_axis',(-1.,0.,0.));
#606=DIRECTION('',(0.,1.,0.));
#607=DIRECTION('center_axis',(-4.11193712824132E-16,1.,0.));
#608=DIRECTION('ref_axis',(1.,4.11193712824132E-16,0.));
#609=DIRECTION('',(1.,4.11193712824132E-16,0.));
#610=DIRECTION('',(0.,0.,-1.));
#611=DIRECTION('',(1.,4.11193712824132E-16,0.));
#612=DIRECTION('',(0.,0.,-1.));
#613=DIRECTION('center_axis',(7.19588997442232E-16,-1.,0.));
#614=DIRECTION('ref_axis',(-1.,-7.19588997442232E-16,0.));
#615=DIRECTION('',(-1.,-7.19588997442232E-16,0.));
#616=DIRECTION('',(0.,0.,1.));
#617=DIRECTION('',(-1.,-7.19588997442232E-16,0.));
#618=DIRECTION('',(0.,0.,-1.));
#619=DIRECTION('center_axis',(1.,7.93016446160826E-16,0.));
#620=DIRECTION('ref_axis',(7.93016446160826E-16,-1.,0.));
#621=DIRECTION('',(7.93016446160826E-16,-1.,0.));
#622=DIRECTION('',(7.93016446160826E-16,-1.,0.));
#623=DIRECTION('center_axis',(0.,0.,-1.));
#624=DIRECTION('ref_axis',(-1.,0.,0.));
#625=DIRECTION('',(0.,-1.,0.));
#626=DIRECTION('center_axis',(-4.11193712824132E-16,-1.,0.));
#627=DIRECTION('ref_axis',(-1.,4.11193712824132E-16,0.));
#628=DIRECTION('',(-1.,4.11193712824132E-16,0.));
#629=DIRECTION('',(0.,0.,-1.));
#630=DIRECTION('',(-1.,4.11193712824132E-16,0.));
#631=DIRECTION('',(0.,0.,-1.));
#632=DIRECTION('center_axis',(0.,1.,0.));
#633=DIRECTION('ref_axis',(1.,0.,0.));
#634=DIRECTION('',(1.,0.,0.));
#635=DIRECTION('',(0.,0.,1.));
#636=DIRECTION('',(1.,0.,0.));
#637=DIRECTION('',(0.,0.,-1.));
#638=DIRECTION('center_axis',(-1.,7.93016446160826E-16,0.));
#639=DIRECTION('ref_axis',(7.93016446160826E-16,1.,0.));
#640=DIRECTION('',(7.93016446160826E-16,1.,0.));
#641=DIRECTION('',(7.93016446160826E-16,1.,0.));
#642=DIRECTION('center_axis',(0.,0.,-1.));
#643=DIRECTION('ref_axis',(-1.,0.,0.));
#644=DIRECTION('',(0.,1.,0.));
#645=DIRECTION('center_axis',(-1.,0.,0.));
#646=DIRECTION('ref_axis',(0.,1.,0.));
#647=DIRECTION('',(0.,1.,0.));
#648=DIRECTION('',(0.,0.,1.));
#649=DIRECTION('',(0.,1.,0.));
#650=DIRECTION('',(0.,0.,-1.));
#651=DIRECTION('center_axis',(0.,-1.,0.));
#652=DIRECTION('ref_axis',(-1.,0.,0.));
#653=DIRECTION('',(-1.,0.,0.));
#654=DIRECTION('',(-1.,0.,0.));
#655=DIRECTION('',(0.,0.,-1.));
#656=DIRECTION('center_axis',(1.,0.,0.));
#657=DIRECTION('ref_axis',(0.,-1.,0.));
#658=DIRECTION('',(0.,-1.,0.));
#659=DIRECTION('',(0.,-1.,0.));
#660=DIRECTION('',(0.,0.,-1.));
#661=DIRECTION('center_axis',(-7.93016446160826E-17,-1.,0.));
#662=DIRECTION('ref_axis',(1.,-7.93016446160826E-17,0.));
#663=DIRECTION('',(-1.,7.93016446160826E-17,0.));
#664=DIRECTION('',(0.,0.,1.));
#665=DIRECTION('',(1.,-7.93016446160826E-17,0.));
#666=DIRECTION('center_axis',(-7.93016446160826E-17,-1.,0.));
#667=DIRECTION('ref_axis',(1.,-7.93016446160826E-17,0.));
#668=DIRECTION('',(1.,-7.93016446160826E-17,0.));
#669=DIRECTION('',(0.,0.,1.));
#670=DIRECTION('',(-1.,7.93016446160826E-17,0.));
#671=DIRECTION('center_axis',(1.,0.,0.));
#672=DIRECTION('ref_axis',(0.,1.,0.));
#673=DIRECTION('',(0.,1.,0.));
#674=DIRECTION('',(0.,-1.,0.));
#675=DIRECTION('',(0.,0.,1.));
#676=DIRECTION('',(0.,1.,0.));
#677=DIRECTION('',(0.,1.,0.));
#678=DIRECTION('center_axis',(-1.,0.,0.));
#679=DIRECTION('ref_axis',(0.,-1.,0.));
#680=DIRECTION('',(0.,-1.,0.));
#681=DIRECTION('',(0.,0.,1.));
#682=DIRECTION('',(0.,1.,0.));
#683=DIRECTION('',(0.,-1.,0.));
#684=DIRECTION('',(0.,-1.,0.));
#685=DIRECTION('center_axis',(1.58603289232165E-16,1.,0.));
#686=DIRECTION('ref_axis',(-1.,1.58603289232165E-16,0.));
#687=DIRECTION('',(1.,-1.58603289232165E-16,0.));
#688=DIRECTION('',(-1.,1.58603289232165E-16,0.));
#689=DIRECTION('center_axis',(0.,0.,1.));
#690=DIRECTION('ref_axis',(1.,0.,0.));
#691=DIRECTION('center_axis',(0.,0.,1.));
#692=DIRECTION('ref_axis',(1.,0.,0.));
#693=CARTESIAN_POINT('',(0.,0.,0.));
#694=CARTESIAN_POINT('Origin',(2.425,-0.300000000000002,1.25));
#695=CARTESIAN_POINT('',(2.425,-1.,1.25));
#696=CARTESIAN_POINT('',(2.425,-0.300000000000002,1.25));
#697=CARTESIAN_POINT('',(2.425,-1.,1.25));
#698=CARTESIAN_POINT('',(2.425,-1.,1.1));
#699=CARTESIAN_POINT('',(2.425,-1.,1.25));
#700=CARTESIAN_POINT('',(2.425,-0.300000000000002,1.1));
#701=CARTESIAN_POINT('',(2.425,-1.,1.1));
#702=CARTESIAN_POINT('',(2.425,-0.300000000000002,1.25));
#703=CARTESIAN_POINT('Origin',(1.75,-0.300000000000001,1.25));
#704=CARTESIAN_POINT('',(1.75,-0.300000000000001,1.25));
#705=CARTESIAN_POINT('',(2.425,-0.300000000000002,1.25));
#706=CARTESIAN_POINT('',(1.75,-0.300000000000001,1.1));
#707=CARTESIAN_POINT('',(2.425,-0.300000000000002,1.1));
#708=CARTESIAN_POINT('',(1.75,-0.300000000000001,0.625));
#709=CARTESIAN_POINT('Origin',(2.425,-1.,1.25));
#710=CARTESIAN_POINT('',(1.75,-1.,1.25));
#711=CARTESIAN_POINT('',(1.75,-1.,1.25));
#712=CARTESIAN_POINT('',(1.75,-1.,1.1));
#713=CARTESIAN_POINT('',(1.75,-1.,0.625));
#714=CARTESIAN_POINT('',(1.75,-1.,1.1));
#715=CARTESIAN_POINT('Origin',(2.0875,-0.650000000000002,1.1));
#716=CARTESIAN_POINT('',(1.75,-1.05,1.1));
#717=CARTESIAN_POINT('Origin',(-2.425,0.3,1.25));
#718=CARTESIAN_POINT('',(-2.425,1.,1.25));
#719=CARTESIAN_POINT('',(-2.425,0.3,1.25));
#720=CARTESIAN_POINT('',(-2.425,1.,1.25));
#721=CARTESIAN_POINT('',(-2.425,1.,1.1));
#722=CARTESIAN_POINT('',(-2.425,1.,1.25));
#723=CARTESIAN_POINT('',(-2.425,0.3,1.1));
#724=CARTESIAN_POINT('',(-2.425,1.,1.1));
#725=CARTESIAN_POINT('',(-2.425,0.3,1.25));
#726=CARTESIAN_POINT('Origin',(-1.75,0.3,1.25));
#727=CARTESIAN_POINT('',(-1.75,0.3,1.25));
#728=CARTESIAN_POINT('',(-2.425,0.3,1.25));
#729=CARTESIAN_POINT('',(-1.75,0.3,1.1));
#730=CARTESIAN_POINT('',(-2.425,0.3,1.1));
#731=CARTESIAN_POINT('',(-1.75,0.3,0.625));
#732=CARTESIAN_POINT('Origin',(-2.425,1.,1.25));
#733=CARTESIAN_POINT('',(-1.75,1.,1.25));
#734=CARTESIAN_POINT('',(-1.75,1.,1.25));
#735=CARTESIAN_POINT('',(-1.75,1.,1.1));
#736=CARTESIAN_POINT('',(-1.75,1.,0.625));
#737=CARTESIAN_POINT('',(-1.75,1.,1.1));
#738=CARTESIAN_POINT('Origin',(-2.0875,0.65,1.1));
#739=CARTESIAN_POINT('',(-1.75,1.05,1.1));
#740=CARTESIAN_POINT('Origin',(1.75,1.,1.25));
#741=CARTESIAN_POINT('',(1.75,1.,1.25));
#742=CARTESIAN_POINT('',(2.425,1.,1.25));
#743=CARTESIAN_POINT('',(1.75,1.,1.25));
#744=CARTESIAN_POINT('',(2.425,1.,1.1));
#745=CARTESIAN_POINT('',(2.425,1.,1.25));
#746=CARTESIAN_POINT('',(1.75,1.,1.1));
#747=CARTESIAN_POINT('',(1.75,1.,1.1));
#748=CARTESIAN_POINT('',(1.75,1.,0.625));
#749=CARTESIAN_POINT('Origin',(2.425,0.300000000000001,1.25));
#750=CARTESIAN_POINT('',(2.425,0.300000000000001,1.25));
#751=CARTESIAN_POINT('',(1.75,0.300000000000001,1.25));
#752=CARTESIAN_POINT('',(2.425,0.300000000000001,1.25));
#753=CARTESIAN_POINT('',(1.75,0.300000000000001,1.1));
#754=CARTESIAN_POINT('',(1.75,0.300000000000001,0.625));
#755=CARTESIAN_POINT('',(2.425,0.300000000000001,1.1));
#756=CARTESIAN_POINT('',(2.425,0.300000000000001,1.1));
#757=CARTESIAN_POINT('',(2.425,0.300000000000001,1.25));
#758=CARTESIAN_POINT('Origin',(2.425,1.,1.25));
#759=CARTESIAN_POINT('',(2.425,1.,1.25));
#760=CARTESIAN_POINT('',(2.425,1.,1.1));
#761=CARTESIAN_POINT('Origin',(2.0875,0.650000000000001,1.1));
#762=CARTESIAN_POINT('',(1.75,-0.4,1.1));
#763=CARTESIAN_POINT('Origin',(-1.75,-1.,1.25));
#764=CARTESIAN_POINT('',(-1.75,-1.,1.25));
#765=CARTESIAN_POINT('',(-2.425,-1.,1.25));
#766=CARTESIAN_POINT('',(-1.75,-1.,1.25));
#767=CARTESIAN_POINT('',(-2.425,-1.,1.1));
#768=CARTESIAN_POINT('',(-2.425,-1.,1.25));
#769=CARTESIAN_POINT('',(-1.75,-1.,1.1));
#770=CARTESIAN_POINT('',(-1.75,-1.,1.1));
#771=CARTESIAN_POINT('',(-1.75,-1.,0.625));
#772=CARTESIAN_POINT('Origin',(-2.425,-0.3,1.25));
#773=CARTESIAN_POINT('',(-2.425,-0.3,1.25));
#774=CARTESIAN_POINT('',(-1.75,-0.3,1.25));
#775=CARTESIAN_POINT('',(-2.425,-0.3,1.25));
#776=CARTESIAN_POINT('',(-1.75,-0.3,1.1));
#777=CARTESIAN_POINT('',(-1.75,-0.3,0.625));
#778=CARTESIAN_POINT('',(-2.425,-0.3,1.1));
#779=CARTESIAN_POINT('',(-2.425,-0.3,1.1));
#780=CARTESIAN_POINT('',(-2.425,-0.3,1.25));
#781=CARTESIAN_POINT('Origin',(-2.425,-1.,1.25));
#782=CARTESIAN_POINT('',(-2.425,-1.,1.25));
#783=CARTESIAN_POINT('',(-2.425,-1.,1.1));
#784=CARTESIAN_POINT('Origin',(-2.0875,-0.65,1.1));
#785=CARTESIAN_POINT('',(-1.75,0.4,1.1));
#786=CARTESIAN_POINT('Origin',(-0.8,-2.1,1.25));
#787=CARTESIAN_POINT('',(-0.8,-2.1,1.25));
#788=CARTESIAN_POINT('',(-0.8,-1.45,1.25));
#789=CARTESIAN_POINT('',(-0.8,-2.1,1.25));
#790=CARTESIAN_POINT('',(-0.8,-1.45,0.));
#791=CARTESIAN_POINT('',(-0.8,-1.45,0.625));
#792=CARTESIAN_POINT('',(-0.8,-2.1,0.));
#793=CARTESIAN_POINT('',(-0.8,-2.1,0.));
#794=CARTESIAN_POINT('',(-0.8,-2.1,1.25));
#795=CARTESIAN_POINT('Origin',(0.8,-2.1,1.25));
#796=CARTESIAN_POINT('',(0.8,-2.1,1.25));
#797=CARTESIAN_POINT('',(0.8,-2.1,1.25));
#798=CARTESIAN_POINT('',(0.8,-2.1,0.));
#799=CARTESIAN_POINT('',(0.8,-2.1,0.));
#800=CARTESIAN_POINT('',(0.8,-2.1,1.25));
#801=CARTESIAN_POINT('Origin',(0.8,-1.45,1.25));
#802=CARTESIAN_POINT('',(0.8,-1.45,1.25));
#803=CARTESIAN_POINT('',(0.8,-1.45,1.25));
#804=CARTESIAN_POINT('',(0.8,-1.45,0.));
#805=CARTESIAN_POINT('',(0.8,-1.45,0.));
#806=CARTESIAN_POINT('',(0.8,-1.45,0.625));
#807=CARTESIAN_POINT('Origin',(-1.75,-1.45,0.));
#808=CARTESIAN_POINT('',(1.75,-1.45,0.));
#809=CARTESIAN_POINT('',(1.75,-1.45,0.));
#810=CARTESIAN_POINT('',(1.75,-1.45,1.25));
#811=CARTESIAN_POINT('',(1.75,-1.45,0.));
#812=CARTESIAN_POINT('',(1.75,-1.45,1.25));
#813=CARTESIAN_POINT('Origin',(-1.75,-1.45,0.));
#814=CARTESIAN_POINT('',(-1.75,-1.45,1.25));
#815=CARTESIAN_POINT('',(1.75,-1.45,1.25));
#816=CARTESIAN_POINT('',(-1.75,-1.45,0.));
#817=CARTESIAN_POINT('',(-1.75,-1.45,0.));
#818=CARTESIAN_POINT('',(1.75,-1.45,0.));
#819=CARTESIAN_POINT('Origin',(1.75,-1.45,0.));
#820=CARTESIAN_POINT('',(1.75,1.45,1.25));
#821=CARTESIAN_POINT('',(1.75,1.45,0.));
#822=CARTESIAN_POINT('',(1.75,1.45,0.));
#823=CARTESIAN_POINT('',(1.75,1.45,1.25));
#824=CARTESIAN_POINT('',(1.75,1.45,0.));
#825=CARTESIAN_POINT('',(1.75,1.45,1.25));
#826=CARTESIAN_POINT('',(1.75,1.45,1.25));
#827=CARTESIAN_POINT('Origin',(-1.75,1.45,0.));
#828=CARTESIAN_POINT('',(-1.75,1.45,1.25));
#829=CARTESIAN_POINT('',(-1.75,-1.45,1.25));
#830=CARTESIAN_POINT('',(-1.75,1.45,0.));
#831=CARTESIAN_POINT('',(-1.75,1.45,0.));
#832=CARTESIAN_POINT('',(-1.75,-1.45,0.));
#833=CARTESIAN_POINT('',(-1.75,-1.45,1.25));
#834=CARTESIAN_POINT('',(-1.75,-1.45,1.25));
#835=CARTESIAN_POINT('Origin',(1.75,1.45,0.));
#836=CARTESIAN_POINT('',(-1.75,1.45,0.));
#837=CARTESIAN_POINT('',(-1.75,1.45,1.25));
#838=CARTESIAN_POINT('Origin',(-5.55111512312578E-16,0.,1.25));
#839=CARTESIAN_POINT('Origin',(-5.55111512312578E-16,0.,0.));
#840=UNCERTAINTY_MEASURE_WITH_UNIT(LENGTH_MEASURE(0.01),#844,
'DISTANCE_ACCURACY_VALUE',
'Maximum model space distance between geometric entities at asserted c
onnectivities');
#841=UNCERTAINTY_MEASURE_WITH_UNIT(LENGTH_MEASURE(0.01),#844,
'DISTANCE_ACCURACY_VALUE',
'Maximum model space distance between geometric entities at asserted c
onnectivities');
#842=(
GEOMETRIC_REPRESENTATION_CONTEXT(3)
GLOBAL_UNCERTAINTY_ASSIGNED_CONTEXT((#840))
GLOBAL_UNIT_ASSIGNED_CONTEXT((#844,#846,#847))
REPRESENTATION_CONTEXT('','3D')
);
#843=(
GEOMETRIC_REPRESENTATION_CONTEXT(3)
GLOBAL_UNCERTAINTY_ASSIGNED_CONTEXT((#841))
GLOBAL_UNIT_ASSIGNED_CONTEXT((#844,#846,#847))
REPRESENTATION_CONTEXT('','3D')
);
#844=(
LENGTH_UNIT()
NAMED_UNIT(*)
SI_UNIT(.MILLI.,.METRE.)
);
#845=(
LENGTH_UNIT()
NAMED_UNIT(*)
SI_UNIT($,.METRE.)
);
#846=(
NAMED_UNIT(*)
PLANE_ANGLE_UNIT()
SI_UNIT($,.RADIAN.)
);
#847=(
NAMED_UNIT(*)
SI_UNIT($,.STERADIAN.)
SOLID_ANGLE_UNIT()
);
#848=SHAPE_DEFINITION_REPRESENTATION(#849,#850);
#849=PRODUCT_DEFINITION_SHAPE('',$,#852);
#850=SHAPE_REPRESENTATION('',(#540),#842);
#851=PRODUCT_DEFINITION_CONTEXT('part definition',#856,'design');
#852=PRODUCT_DEFINITION('2026-08-29-17-25-16-138','SKSCLCE010',#853,#851);
#853=PRODUCT_DEFINITION_FORMATION('',$,#858);
#854=PRODUCT_RELATED_PRODUCT_CATEGORY('SKSCLCE010','SKSCLCE010',(#858));
#855=APPLICATION_PROTOCOL_DEFINITION('international standard',
'automotive_design',2009,#856);
#856=APPLICATION_CONTEXT(
'Core Data for Automotive Mechanical Design Process');
#857=PRODUCT_CONTEXT('part definition',#856,'mechanical');
#858=PRODUCT('2026-08-29-17-25-16-138','SKSCLCE010',$,(#857));
#859=PRESENTATION_STYLE_ASSIGNMENT((#860));
#860=SURFACE_STYLE_USAGE(.BOTH.,#861);
#861=SURFACE_SIDE_STYLE('',(#862));
#862=SURFACE_STYLE_FILL_AREA(#863);
#863=FILL_AREA_STYLE('Steel - Satin',(#864));
#864=FILL_AREA_STYLE_COLOUR('Steel - Satin',#865);
#865=COLOUR_RGB('Steel - Satin',0.627450980392157,0.627450980392157,0.627450980392157);
ENDSEC;
END-ISO-10303-21;
