#VRML V2.0 utf8
# 3D model generated by easyeda2kicad.py (https://github.com/uPesy/easyeda2kicad.py)

Shape{
    appearance Appearance {
        material  Material 	{
            diffuseColor 1.0 1.0 1.0
            specularColor 0.8784313725490196 0.8784313725490196 0.8784313725490196
            ambientIntensity 1.0
            transparency 0.0
            shininess 0.5
        }
    }
    geometry IndexedFaceSet {
        ccw TRUE
        solid FALSE
        coord DEF co Coordinate {
            point [
0.4310500 -0.3346500 0.4281000, 0.7244500 -0.3346500 0.4281000, 0.7244500 -0.3346500 0.5078000, -0.4026500 -0.3346500 0.4641000, -0.4304500 -0.3346500 0.4641000, -0.4304500 -0.3346500 0.4372000, 0.1377500 -0.3346500 0.4331000, 0.1371500 -0.3346500 0.4281000, -0.5807500 -0.3346500 0.2756000, -0.5183500 -0.3346500 0.2756000, -0.5183500 -0.3346500 0.4281000, -0.1367500 -0.3346500 0.4158000, -0.1367500 -0.3346500 0.4281000, -0.1905500 -0.3346500 0.4281000, 0.6856500 -0.3346500 0.7284000, 0.4310500 -0.3346500 0.7284000, 0.4310500 -0.3346500 0.5078000, -0.4563500 -0.3346500 0.4413000, -0.4563500 -0.3346500 0.4327000, -0.4487500 -0.3346500 0.4281000, -0.4647500 -0.3346500 0.4292000, -0.4679500 -0.3346500 0.5078000, -0.4655500 -0.3346500 0.5076000, -0.4487500 -0.3346500 0.5078000, -0.4563500 -0.3346500 0.5052000, -0.4563500 -0.3346500 0.4946000, -0.4652500 -0.3346500 0.4984000, -0.4578500 -0.3346500 0.4405000, -0.4748500 -0.3346500 0.4997000, -0.4825500 -0.3346500 0.4988000, -0.4884500 -0.3346500 0.4967000, -0.4939500 -0.3346500 0.4930000, -0.4986500 -0.3346500 0.4878000, -0.5044500 -0.3346500 0.4671000, -0.5036500 -0.3346500 0.4586000, -0.5014500 -0.3346500 0.4518000, -0.4839500 -0.3346500 0.4371000, -0.4766500 -0.3346500 0.4363000, -0.4896500 -0.3346500 0.4392000, -0.4945500 -0.3346500 0.4425000, -0.4982500 -0.3346500 0.4464000, -0.4661500 -0.3346500 0.4374000, -0.5019500 -0.3346500 0.4817000, -0.5040500 -0.3346500 0.4733000, -0.4749500 -0.3346500 0.5083000, -0.4487500 -0.3346500 0.7284000, -0.4808500 -0.3346500 0.5078000, -0.5183500 -0.3346500 0.7284000, -0.5017500 -0.3346500 0.4353000, -0.5076500 -0.3346500 0.4415000, -0.4953500 -0.3346500 0.4313000, -0.5149500 -0.3346500 0.4665000, -0.5138500 -0.3346500 0.4777000, -0.5183500 -0.3346500 0.5078000, -0.5108500 -0.3346500 0.4866000, -0.5062500 -0.3346500 0.4940000, -0.4990500 -0.3346500 0.5008000, -0.4916500 -0.3346500 0.5051000, -0.4828500 -0.3346500 0.5076000, -0.5118500 -0.3346500 0.4490000, -0.5142500 -0.3346500 0.4574000, -0.4727500 -0.3346500 0.4281000, -0.4759500 -0.3346500 0.4277000, -0.4487500 -0.3346500 0.2756000, -0.4780500 -0.3346500 0.4276000, -0.4826500 -0.3346500 0.4281000, -0.4877500 -0.3346500 0.4286000, -0.7244500 -0.3346500 0.5078000, -0.6857500 -0.3346500 0.7284000, -0.7244500 -0.3346500 0.6896000, -0.7231500 -0.3346500 0.6997000, -0.7193500 -0.3346500 0.7091000, -0.7215500 -0.3346500 0.7045000, -0.7006500 -0.3346500 0.7255000, -0.6958500 -0.3346500 0.7271000, -0.7051500 -0.3346500 0.7232000, -0.7094500 -0.3346500 0.7204000, -0.7165500 -0.3346500 0.7133000, -0.7132500 -0.3346500 0.7171000, 0.7005500 -0.3346500 0.7255000, 0.7244500 -0.3346500 0.6896000, 0.7231500 -0.3346500 0.6997000, 0.7214500 -0.3346500 0.7045000, 0.7192500 -0.3346500 0.7091000, 0.7051500 -0.3346500 0.7232000, 0.7093500 -0.3346500 0.7204000, 0.7164500 -0.3346500 0.7133000, 0.7131500 -0.3346500 0.7171000, 0.6200500 -0.3346500 0.1771000, 0.6200500 -0.3346500 0.0590000, 0.7244500 -0.3346500 0.1771000, 0.6856500 -0.3346500 0.0590000, 0.7244500 -0.3346500 0.0978000, 0.7192500 -0.3346500 0.0783000, 0.7214500 -0.3346500 0.0829000, 0.7005500 -0.3346500 0.0619000, 0.6957500 -0.3346500 0.0603000, 0.7231500 -0.3346500 0.0877000, 0.7051500 -0.3346500 0.0642000, 0.7093500 -0.3346500 0.0670000, 0.7164500 -0.3346500 0.0741000, 0.7131500 -0.3346500 0.0703000, 0.6003500 -0.3346500 0.2703000, 0.6085500 -0.3346500 0.2641000, 0.5908500 -0.3346500 0.2742000, 0.4310500 -0.3346500 0.2756000, 0.5806500 -0.3346500 0.2756000, 0.6147500 -0.3346500 0.2559000, 0.6187500 -0.3346500 0.2464000, 0.6200500 -0.3346500 0.2362000, -0.1281500 -0.3346500 0.3823000, 0.0738500 -0.3346500 0.3167000, 0.1004500 -0.3346500 0.3387000, 0.1207500 -0.3346500 0.3667000, -0.0587500 -0.3346500 0.3084000, -0.0878500 -0.3346500 0.3269000, -0.1905500 -0.3346500 0.2756000, -0.1115500 -0.3346500 0.3521000, 0.1334500 -0.3346500 0.3988000, 0.0425500 -0.3346500 0.3020000, 0.0086500 -0.3346500 0.2955000, -0.0258500 -0.3346500 0.2977000, -0.3171500 -0.3346500 0.2756000, -0.3171500 -0.3346500 0.4281000, -0.3911500 -0.3346500 0.2756000, -0.3911500 -0.3346500 0.4281000, -0.6187500 -0.3346500 0.2464000, -0.6148500 -0.3346500 0.2559000, -0.7244500 -0.3346500 0.4281000, -0.6085500 -0.3346500 0.2641000, -0.6004500 -0.3346500 0.2703000, -0.5909500 -0.3346500 0.2742000, -0.6857500 -0.3346500 0.0590000, -0.7244500 -0.3346500 0.1771000, -0.7244500 -0.3346500 0.0978000, -0.6201500 -0.3346500 0.2362000, -0.6201500 -0.3346500 0.1771000, -0.6201500 -0.3346500 0.0590000, -0.7051500 -0.3346500 0.0642000, -0.7006500 -0.3346500 0.0619000, -0.7215500 -0.3346500 0.0829000, -0.7231500 -0.3346500 0.0877000, -0.6958500 -0.3346500 0.0603000, -0.7193500 -0.3346500 0.0783000, -0.7165500 -0.3346500 0.0741000, -0.7094500 -0.3346500 0.0670000, -0.7132500 -0.3346500 0.0703000, 0.1146500 -0.3346500 0.5078000, 0.1207500 -0.3346500 0.4995000, 0.1334500 -0.3346500 0.4673000, -0.1149500 -0.3346500 0.5078000, -0.1115500 -0.3346500 0.5141000, -0.1905500 -0.3346500 0.7284000, -0.0878500 -0.3346500 0.5392000, -0.0587500 -0.3346500 0.5578000, 0.1004500 -0.3346500 0.5274000, 0.0738500 -0.3346500 0.5494000, -0.0258500 -0.3346500 0.5684000, 0.0086500 -0.3346500 0.5706000, 0.0425500 -0.3346500 0.5641000, -0.1367500 -0.3346500 0.4503000, -0.1281500 -0.3346500 0.4838000, -0.1905500 -0.3346500 0.5078000, -0.5216500 -0.3346500 0.4286000, -0.5620500 -0.3346500 0.4286000, -0.5216500 -0.3346500 0.4372000, -0.5514500 -0.3346500 0.4372000, -0.5514500 -0.3346500 0.5073000, -0.5620500 -0.3346500 0.5073000, -0.3911500 -0.3346500 0.5078000, -0.3987500 -0.3346500 0.4372000, -0.3987500 -0.3346500 0.4286000, -0.4410500 -0.3346500 0.4286000, -0.4410500 -0.3346500 0.5073000, -0.4007500 -0.3346500 0.5073000, -0.4007500 -0.3346500 0.4987000, -0.4304500 -0.3346500 0.4987000, -0.4304500 -0.3346500 0.4728000, -0.4026500 -0.3346500 0.4728000, -0.3211500 -0.3346500 0.4584000, -0.3239500 -0.3346500 0.4502000, -0.3284500 -0.3346500 0.4431000, -0.3349500 -0.3346500 0.4369000, -0.3431500 -0.3346500 0.4321000, -0.3611500 -0.3346500 0.5073000, -0.3171500 -0.3346500 0.5078000, -0.3498500 -0.3346500 0.5061000, -0.3406500 -0.3346500 0.5029000, -0.3320500 -0.3346500 0.4971000, -0.3319500 -0.3346500 0.4971000, -0.3263500 -0.3346500 0.4909000, -0.3522500 -0.3346500 0.4294000, -0.3620500 -0.3346500 0.4286000, -0.3834500 -0.3346500 0.4286000, -0.3834500 -0.3346500 0.5073000, -0.3227500 -0.3346500 0.4841000, -0.3206500 -0.3346500 0.4764000, -0.3200500 -0.3346500 0.4690000, -0.3142500 -0.3346500 0.4286000, -0.2627500 -0.3346500 0.4507000, -0.2952500 -0.3346500 0.4507000, -0.2547500 -0.3346500 0.4286000, -0.3027500 -0.3346500 0.4286000, -0.2845500 -0.3346500 0.5073000, -0.2739500 -0.3346500 0.5073000, -0.2432500 -0.3346500 0.4286000, 0.6957500 -0.3346500 0.7271000, -0.3171500 -0.3346500 0.7284000, -0.3911500 -0.3346500 0.7284000
]
        }
        coordIndex [
            0,1,2,-1,3,4,5,-1,6,7,0,-1,8,9,10,-1,11,12,13,-1,14,15,16,-1,17,18,19,-1,19,18,20,-1,21,22,23,-1,23,22,24,-1,23,24,25,-1,17,26,27,-1,27,26,28,-1,27,28,29,-1,29,30,27,-1,27,30,31,-1,27,31,32,-1,33,34,27,-1,27,34,35,-1,36,37,38,-1,38,37,39,-1,35,40,27,-1,27,40,39,-1,27,39,41,-1,41,39,37,-1,32,42,27,-1,27,42,43,-1,27,43,33,-1,44,45,46,-1,46,45,47,-1,48,49,10,-1,48,10,50,-1,51,52,53,-1,53,52,54,-1,53,54,55,-1,55,56,53,-1,53,56,57,-1,53,57,58,-1,49,59,10,-1,10,59,60,-1,10,60,51,-1,61,62,63,-1,63,62,9,-1,62,64,9,-1,9,64,65,-1,9,65,10,-1,10,65,66,-1,10,66,50,-1,58,46,53,-1,53,46,47,-1,53,47,67,-1,67,47,68,-1,67,68,69,-1,69,68,70,-1,71,72,73,-1,70,68,72,-1,72,68,74,-1,72,74,73,-1,73,75,71,-1,71,75,76,-1,71,76,77,-1,77,76,78,-1,79,80,81,-1,81,82,79,-1,79,82,83,-1,79,83,84,-1,84,83,85,-1,85,83,86,-1,85,86,87,-1,88,89,90,-1,90,89,91,-1,90,91,92,-1,93,94,95,-1,91,96,92,-1,92,96,95,-1,92,95,97,-1,97,95,94,-1,95,98,93,-1,93,98,99,-1,93,99,100,-1,100,99,101,-1,102,103,1,-1,102,1,104,-1,0,105,1,-1,1,105,106,-1,1,106,104,-1,103,107,1,-1,1,107,108,-1,1,108,90,-1,90,108,109,-1,90,109,88,-1,11,13,110,-1,111,105,112,-1,112,105,113,-1,114,115,116,-1,116,115,117,-1,0,7,105,-1,105,7,118,-1,105,118,113,-1,111,119,105,-1,105,119,120,-1,105,120,116,-1,116,120,121,-1,116,121,114,-1,117,110,116,-1,116,110,13,-1,116,13,122,-1,122,13,123,-1,122,123,124,-1,124,123,125,-1,124,125,63,-1,63,125,19,-1,63,19,61,-1,61,19,20,-1,126,127,128,-1,127,129,128,-1,128,129,130,-1,128,130,131,-1,132,133,134,-1,126,128,135,-1,135,128,133,-1,135,133,136,-1,136,133,132,-1,136,132,137,-1,138,139,140,-1,134,141,132,-1,132,141,140,-1,132,140,142,-1,142,140,139,-1,140,143,138,-1,138,143,144,-1,138,144,145,-1,145,144,146,-1,147,148,16,-1,16,148,149,-1,150,151,152,-1,152,151,153,-1,152,153,154,-1,147,16,155,-1,155,16,15,-1,155,15,156,-1,154,157,152,-1,152,157,158,-1,152,158,15,-1,15,158,159,-1,15,159,156,-1,160,161,162,-1,163,164,10,-1,51,53,10,-1,10,53,165,-1,10,165,163,-1,166,165,167,-1,167,165,53,-1,167,53,168,-1,168,53,67,-1,168,67,164,-1,164,67,128,-1,164,128,10,-1,10,128,131,-1,10,131,8,-1,125,169,170,-1,170,171,125,-1,125,171,172,-1,125,172,19,-1,19,172,23,-1,19,23,17,-1,17,23,25,-1,17,25,26,-1,172,173,23,-1,23,173,174,-1,23,174,169,-1,169,174,175,-1,176,177,175,-1,175,177,178,-1,175,178,169,-1,169,178,3,-1,169,3,170,-1,170,3,5,-1,179,180,123,-1,180,181,123,-1,123,181,182,-1,123,182,183,-1,169,184,185,-1,185,184,186,-1,185,186,187,-1,187,188,185,-1,185,188,189,-1,185,189,190,-1,183,191,123,-1,123,191,192,-1,123,192,125,-1,125,192,193,-1,125,193,169,-1,169,193,194,-1,169,194,184,-1,190,195,185,-1,185,195,196,-1,185,196,197,-1,198,185,123,-1,123,185,197,-1,123,197,179,-1,199,200,201,-1,201,200,202,-1,198,203,185,-1,185,203,204,-1,185,204,162,-1,162,204,13,-1,162,13,160,-1,160,13,12,-1,204,205,13,-1,13,205,201,-1,13,201,123,-1,123,201,202,-1,123,202,198,-1,79,206,80,-1,80,206,14,-1,80,14,2,-1,2,14,16,-1,2,16,0,-1,0,16,149,-1,0,149,6,-1,161,150,162,-1,162,150,152,-1,162,152,185,-1,185,152,207,-1,185,207,169,-1,169,207,208,-1,169,208,23,-1,23,208,45,-1,23,45,21,-1,21,45,44,-1,
        ]
    }
}
Shape{
    appearance Appearance {
        material  Material 	{
            diffuseColor 0.07058823529411765 0.07058823529411765 0.07058823529411765
            specularColor 0.00392156862745098 0.00392156862745098 0.00392156862745098
            ambientIntensity 0.102
            transparency 0.0
            shininess 0.5
        }
    }
    geometry IndexedFaceSet {
        ccw TRUE
        solid FALSE
        coord DEF co Coordinate {
            point [
-0.5514500 -0.3346500 0.5073000, -0.5620500 -0.3346500 0.5073000, -0.5514500 -0.3346500 0.4372000, -0.5620500 -0.3346500 0.4286000, -0.5216500 -0.3346500 0.4372000, -0.5216500 -0.3346500 0.4286000, -0.4652500 -0.3346500 0.4984000, -0.4563500 -0.3346500 0.4946000, -0.4563500 -0.3346500 0.5052000, -0.4563500 -0.3346500 0.4327000, -0.4563500 -0.3346500 0.4413000, -0.4578500 -0.3346500 0.4405000, -0.4647500 -0.3346500 0.4292000, -0.4661500 -0.3346500 0.4374000, -0.4727500 -0.3346500 0.4281000, -0.4766500 -0.3346500 0.4363000, -0.4759500 -0.3346500 0.4277000, -0.4780500 -0.3346500 0.4276000, -0.4839500 -0.3346500 0.4371000, -0.4826500 -0.3346500 0.4281000, -0.4655500 -0.3346500 0.5076000, -0.4679500 -0.3346500 0.5078000, -0.4748500 -0.3346500 0.4997000, -0.4749500 -0.3346500 0.5083000, -0.4808500 -0.3346500 0.5078000, -0.4825500 -0.3346500 0.4988000, -0.4828500 -0.3346500 0.5076000, -0.4884500 -0.3346500 0.4967000, -0.4916500 -0.3346500 0.5051000, -0.4939500 -0.3346500 0.4930000, -0.4990500 -0.3346500 0.5008000, -0.4986500 -0.3346500 0.4878000, -0.5062500 -0.3346500 0.4940000, -0.5019500 -0.3346500 0.4817000, -0.5108500 -0.3346500 0.4866000, -0.5040500 -0.3346500 0.4733000, -0.5138500 -0.3346500 0.4777000, -0.5044500 -0.3346500 0.4671000, -0.5149500 -0.3346500 0.4665000, -0.5036500 -0.3346500 0.4586000, -0.5142500 -0.3346500 0.4574000, -0.5014500 -0.3346500 0.4518000, -0.5118500 -0.3346500 0.4490000, -0.4982500 -0.3346500 0.4464000, -0.5076500 -0.3346500 0.4415000, -0.4945500 -0.3346500 0.4425000, -0.5017500 -0.3346500 0.4353000, -0.4896500 -0.3346500 0.4392000, -0.4953500 -0.3346500 0.4313000, -0.4877500 -0.3346500 0.4286000
]
        }
        coordIndex [
            0,1,2,-1,2,1,3,-1,2,3,4,-1,4,3,5,-1,6,7,8,-1,9,10,11,-1,9,11,12,-1,12,11,13,-1,12,13,14,-1,14,13,15,-1,14,15,16,-1,16,15,17,-1,17,15,18,-1,17,18,19,-1,8,20,6,-1,6,20,21,-1,6,21,22,-1,21,23,22,-1,22,23,24,-1,22,24,25,-1,25,24,26,-1,25,26,27,-1,27,26,28,-1,27,28,29,-1,29,28,30,-1,29,30,31,-1,31,30,32,-1,31,32,33,-1,33,32,34,-1,33,34,35,-1,35,34,36,-1,35,36,37,-1,37,36,38,-1,37,38,39,-1,39,38,40,-1,39,40,41,-1,41,40,42,-1,41,42,43,-1,43,42,44,-1,43,44,45,-1,45,44,46,-1,45,46,47,-1,47,46,48,-1,47,48,18,-1,18,48,49,-1,18,49,19,-1,
        ]
    }
}
Shape{
    appearance Appearance {
        material  Material 	{
            diffuseColor 1.0 1.0 1.0
            specularColor 0.8784313725490196 0.8784313725490196 0.8784313725490196
            ambientIntensity 1.0
            transparency 0.0
            shininess 0.5
        }
    }
    geometry IndexedFaceSet {
        ccw TRUE
        solid FALSE
        coord DEF co Coordinate {
            point [
-0.3728500 -0.3346500 0.4987000, -0.3728500 -0.3346500 0.4372000, -0.3612500 -0.3346500 0.4987000, -0.3616500 -0.3346500 0.4372000, -0.3533500 -0.3346500 0.4380000, -0.3306500 -0.3346500 0.4687000, -0.3312500 -0.3346500 0.4766000, -0.3331500 -0.3346500 0.4828000, -0.3519500 -0.3346500 0.4977000, -0.3467500 -0.3346500 0.4401000, -0.3413500 -0.3346500 0.4433000, -0.3369500 -0.3346500 0.4476000, -0.3336500 -0.3346500 0.4531000, -0.3313500 -0.3346500 0.4605000, -0.3358500 -0.3346500 0.4877000, -0.3396500 -0.3346500 0.4917000, -0.3454500 -0.3346500 0.4954000
]
        }
        coordIndex [
            0,1,2,-1,2,1,3,-1,2,3,4,-1,5,6,2,-1,2,6,7,-1,2,7,8,-1,4,9,2,-1,2,9,10,-1,2,10,11,-1,11,12,2,-1,2,12,13,-1,2,13,5,-1,14,15,7,-1,7,15,16,-1,7,16,8,-1,
        ]
    }
}
Shape{
    appearance Appearance {
        material  Material 	{
            diffuseColor 0.07058823529411765 0.07058823529411765 0.07058823529411765
            specularColor 0.00392156862745098 0.00392156862745098 0.00392156862745098
            ambientIntensity 0.102
            transparency 0.0
            shininess 0.5
        }
    }
    geometry IndexedFaceSet {
        ccw TRUE
        solid FALSE
        coord DEF co Coordinate {
            point [
-0.4410500 -0.3346500 0.4286000, -0.3987500 -0.3346500 0.4286000, -0.3987500 -0.3346500 0.4372000, -0.4304500 -0.3346500 0.4372000, -0.4304500 -0.3346500 0.4641000, -0.4410500 -0.3346500 0.5073000, -0.4007500 -0.3346500 0.4987000, -0.4007500 -0.3346500 0.5073000, -0.4304500 -0.3346500 0.4987000, -0.4304500 -0.3346500 0.4728000, -0.4026500 -0.3346500 0.4728000, -0.4026500 -0.3346500 0.4641000
]
        }
        coordIndex [
            0,1,2,-1,2,3,0,-1,0,3,4,-1,0,4,5,-1,6,7,8,-1,8,7,5,-1,8,5,9,-1,9,5,4,-1,9,4,10,-1,10,4,11,-1,
        ]
    }
}
Shape{
    appearance Appearance {
        material  Material 	{
            diffuseColor 1.0 1.0 1.0
            specularColor 0.8784313725490196 0.8784313725490196 0.8784313725490196
            ambientIntensity 1.0
            transparency 0.0
            shininess 0.5
        }
    }
    geometry IndexedFaceSet {
        ccw TRUE
        solid FALSE
        coord DEF co Coordinate {
            point [
-0.2925500 -0.3346500 0.4593000, -0.2662500 -0.3346500 0.4593000, -0.2808500 -0.3346500 0.4922000, -0.2781500 -0.3346500 0.4922000, -0.2800500 -0.3346500 0.4949000, -0.2788500 -0.3346500 0.4949000, -0.2795500 -0.3346500 0.4977000, -0.2793500 -0.3346500 0.4977000
]
        }
        coordIndex [
            0,1,2,-1,2,1,3,-1,2,3,4,-1,4,3,5,-1,4,5,6,-1,6,5,7,-1,
        ]
    }
}
Shape{
    appearance Appearance {
        material  Material 	{
            diffuseColor 0.07058823529411765 0.07058823529411765 0.07058823529411765
            specularColor 0.00392156862745098 0.00392156862745098 0.00392156862745098
            ambientIntensity 0.102
            transparency 0.0
            shininess 0.5
        }
    }
    geometry IndexedFaceSet {
        ccw TRUE
        solid FALSE
        coord DEF co Coordinate {
            point [
-0.3227500 -0.3346500 0.4841000, -0.3263500 -0.3346500 0.4909000, -0.3358500 -0.3346500 0.4877000, -0.3319500 -0.3346500 0.4971000, -0.3396500 -0.3346500 0.4917000, -0.3320500 -0.3346500 0.4971000, -0.3454500 -0.3346500 0.4954000, -0.3406500 -0.3346500 0.5029000, -0.3519500 -0.3346500 0.4977000, -0.3498500 -0.3346500 0.5061000, -0.3612500 -0.3346500 0.4987000, -0.3611500 -0.3346500 0.5073000, -0.3728500 -0.3346500 0.4987000, -0.3834500 -0.3346500 0.5073000, -0.3728500 -0.3346500 0.4372000, -0.3834500 -0.3346500 0.4286000, -0.3616500 -0.3346500 0.4372000, -0.3620500 -0.3346500 0.4286000, -0.3533500 -0.3346500 0.4380000, -0.3522500 -0.3346500 0.4294000, -0.3467500 -0.3346500 0.4401000, -0.3431500 -0.3346500 0.4321000, -0.3413500 -0.3346500 0.4433000, -0.3349500 -0.3346500 0.4369000, -0.3369500 -0.3346500 0.4476000, -0.3284500 -0.3346500 0.4431000, -0.3336500 -0.3346500 0.4531000, -0.3239500 -0.3346500 0.4502000, -0.3313500 -0.3346500 0.4605000, -0.3211500 -0.3346500 0.4584000, -0.3306500 -0.3346500 0.4687000, -0.3200500 -0.3346500 0.4690000, -0.3312500 -0.3346500 0.4766000, -0.3206500 -0.3346500 0.4764000, -0.3331500 -0.3346500 0.4828000
]
        }
        coordIndex [
            0,1,2,-1,2,1,3,-1,2,3,4,-1,4,3,5,-1,4,5,6,-1,6,5,7,-1,6,7,8,-1,8,7,9,-1,8,9,10,-1,10,9,11,-1,10,11,12,-1,12,11,13,-1,12,13,14,-1,14,13,15,-1,14,15,16,-1,16,15,17,-1,16,17,18,-1,18,17,19,-1,18,19,20,-1,20,19,21,-1,20,21,22,-1,22,21,23,-1,22,23,24,-1,24,23,25,-1,24,25,26,-1,26,25,27,-1,26,27,28,-1,28,27,29,-1,28,29,30,-1,30,29,31,-1,30,31,32,-1,32,31,33,-1,32,33,34,-1,34,33,0,-1,34,0,2,-1,
        ]
    }
}
Shape{
    appearance Appearance {
        material  Material 	{
            diffuseColor 1.0 1.0 1.0
            specularColor 0.8784313725490196 0.8784313725490196 0.8784313725490196
            ambientIntensity 1.0
            transparency 0.0
            shininess 0.5
        }
    }
    geometry IndexedFaceSet {
        ccw TRUE
        solid FALSE
        coord DEF co Coordinate {
            point [
0.2480500 -0.0000500 0.0512000, 0.2480500 -0.0000500 0.0000000, 0.4212500 -0.0000500 0.0000000, 0.5806500 -0.0000500 0.0512000, 0.5806500 -0.0000500 0.0787000, 0.4212500 -0.0000500 0.0512000, -0.5807500 -0.0000500 0.0787000, -0.5807500 -0.0000500 0.0512000, -0.4212500 -0.0000500 0.0512000, -0.4212500 -0.0000500 0.0000000, -0.2480500 -0.0000500 0.0000000, -0.2480500 -0.0000500 0.0512000, -0.0866500 -0.0000500 0.0512000, -0.0866500 -0.0000500 0.0000000, 0.0865500 -0.0000500 0.0000000, 0.0865500 -0.0000500 0.0512000, 0.5908500 -0.0013500 0.0002000, 0.5826500 -0.0000500 0.0000000, 0.7441500 -0.0000500 0.0000000, 0.6147500 -0.0197500 0.0035000, 0.6085500 -0.0115500 0.0020000, 0.5957500 -0.0030500 0.0005000, 0.6856500 -0.3346500 0.0590000, 0.6200500 -0.3346500 0.0590000, 0.7446500 -0.0000500 0.0000000, 0.6200500 -0.0393500 0.0069000, 0.6187500 -0.0292500 0.0051000, 0.6046500 -0.0081500 0.0014000, 0.6003500 -0.0052500 0.0009000, 0.6200500 -0.0393500 0.0787000, 0.6187500 -0.0292500 0.0787000, 0.6147500 -0.0197500 0.0787000, 0.6085500 -0.0115500 0.0787000, 0.6003500 -0.0052500 0.0787000, 0.5908500 -0.0013500 0.0787000, 0.5826500 -0.0000500 0.0512000, -0.5827500 -0.0000500 0.0512000, -0.5909500 -0.0013500 0.0787000, -0.5827500 -0.0000500 0.0000000, -0.5909500 -0.0013500 0.0002000, -0.5958500 -0.0030500 0.0005000, -0.6004500 -0.0052500 0.0787000, -0.6004500 -0.0052500 0.0009000, -0.6047500 -0.0081500 0.0014000, -0.6085500 -0.0115500 0.0787000, -0.6085500 -0.0115500 0.0020000, -0.6148500 -0.0197500 0.0787000, -0.6148500 -0.0197500 0.0035000, -0.6187500 -0.0292500 0.0787000, -0.6187500 -0.0292500 0.0051000, -0.6201500 -0.0393500 0.0787000, -0.6201500 -0.0393500 0.0069000
]
        }
        coordIndex [
            0,1,2,-1,3,4,5,-1,5,4,6,-1,6,7,8,-1,9,10,8,-1,8,10,11,-1,8,11,6,-1,6,11,12,-1,13,14,12,-1,12,14,15,-1,12,15,6,-1,6,15,0,-1,6,0,5,-1,5,0,2,-1,16,17,18,-1,18,19,20,-1,16,18,21,-1,22,23,24,-1,24,23,25,-1,24,25,18,-1,18,25,26,-1,18,26,19,-1,20,27,18,-1,18,27,28,-1,18,28,21,-1,25,29,30,-1,25,30,26,-1,26,30,31,-1,26,31,19,-1,19,31,32,-1,19,32,20,-1,20,32,27,-1,27,32,33,-1,27,33,28,-1,4,3,34,-1,34,3,35,-1,28,33,21,-1,21,33,34,-1,21,34,16,-1,16,34,35,-1,16,35,17,-1,7,6,36,-1,36,6,37,-1,38,36,39,-1,39,36,37,-1,39,37,40,-1,40,37,41,-1,40,41,42,-1,42,41,43,-1,43,41,44,-1,43,44,45,-1,45,44,46,-1,45,46,47,-1,47,46,48,-1,47,48,49,-1,49,48,50,-1,49,50,51,-1,
        ]
    }
}
Shape{
    appearance Appearance {
        material  Material 	{
            diffuseColor 0.07058823529411765 0.07058823529411765 0.07058823529411765
            specularColor 0.00392156862745098 0.00392156862745098 0.00392156862745098
            ambientIntensity 0.102
            transparency 0.0
            shininess 0.5
        }
    }
    geometry IndexedFaceSet {
        ccw TRUE
        solid FALSE
        coord DEF co Coordinate {
            point [
-0.2925500 -0.3346500 0.4593000, -0.2952500 -0.3346500 0.4507000, -0.2662500 -0.3346500 0.4593000, -0.2627500 -0.3346500 0.4507000, -0.2808500 -0.3346500 0.4922000, -0.2845500 -0.3346500 0.5073000, -0.3142500 -0.3346500 0.4286000, -0.3027500 -0.3346500 0.4286000, -0.2800500 -0.3346500 0.4949000, -0.2795500 -0.3346500 0.4977000, -0.2739500 -0.3346500 0.5073000, -0.2793500 -0.3346500 0.4977000, -0.2788500 -0.3346500 0.4949000, -0.2781500 -0.3346500 0.4922000, -0.2432500 -0.3346500 0.4286000, -0.2547500 -0.3346500 0.4286000
]
        }
        coordIndex [
            0,1,2,-1,2,1,3,-1,4,5,0,-1,0,5,6,-1,0,6,1,-1,1,6,7,-1,4,8,5,-1,5,8,9,-1,5,9,10,-1,10,9,11,-1,10,11,12,-1,12,13,10,-1,10,13,2,-1,10,2,14,-1,14,2,3,-1,14,3,15,-1,
        ]
    }
}
Shape{
    appearance Appearance {
        material  Material 	{
            diffuseColor 1.0 1.0 1.0
            specularColor 0.8784313725490196 0.8784313725490196 0.8784313725490196
            ambientIntensity 1.0
            transparency 0.0
            shininess 0.5
        }
    }
    geometry IndexedFaceSet {
        ccw TRUE
        solid FALSE
        coord DEF co Coordinate {
            point [
-0.5807500 -0.0393500 0.1181000, 0.5806500 -0.0393500 0.1181000, -0.5807500 -0.2756500 0.1181000, 0.5806500 -0.2756500 0.1181000, -0.6201500 -0.0393500 0.0069000, -0.6201500 -0.3346500 0.0590000, -0.6857500 -0.3346500 0.0590000, -0.6148500 -0.0197500 0.0035000, -0.6187500 -0.0292500 0.0051000, -0.7441500 -0.0000500 0.0000000, -0.7447500 -0.0000500 0.0000000, -0.5827500 -0.0000500 0.0000000, -0.5909500 -0.0013500 0.0002000, -0.5958500 -0.0030500 0.0005000, -0.6004500 -0.0052500 0.0009000, -0.6047500 -0.0081500 0.0014000, -0.6085500 -0.0115500 0.0020000, 0.7834500 -0.0000500 0.7481000, 0.7834500 -0.0000500 0.7486000, 0.7244500 -0.3346500 0.6896000, 0.7244500 -0.3346500 0.0978000, 0.7834500 -0.0000500 0.0388000, 0.7244500 -0.3346500 0.1771000, 0.7834500 -0.0000500 0.0393000, 0.7244500 -0.3346500 0.4281000, 0.7244500 -0.3346500 0.5078000, -0.7441500 -0.0000500 0.7874000, -0.7447500 -0.0000500 0.7874000, -0.6857500 -0.3346500 0.7284000, -0.5183500 -0.3346500 0.7284000, -0.4487500 -0.3346500 0.7284000, -0.3911500 -0.3346500 0.7284000, 0.6856500 -0.3346500 0.7284000, 0.7446500 -0.0000500 0.7874000, 0.4310500 -0.3346500 0.7284000, 0.7441500 -0.0000500 0.7874000, -0.1905500 -0.3346500 0.7284000, -0.3171500 -0.3346500 0.7284000, -0.7244500 -0.3346500 0.6896000, -0.7834500 -0.0000500 0.7486000, -0.7244500 -0.3346500 0.5078000, -0.7834500 -0.0000500 0.7481000, -0.7834500 -0.0000500 0.0388000, -0.7244500 -0.3346500 0.0978000, -0.7834500 -0.0000500 0.0393000, -0.7244500 -0.3346500 0.1771000, -0.7244500 -0.3346500 0.4281000, -0.7307500 0.2558500 0.7740000, -0.6394500 0.2558500 0.7740000, -0.6435500 0.3346500 0.7699000, 0.7265500 0.3346500 0.7699000, 0.7678500 0.2973500 0.7325000, 0.7678500 0.2973500 0.0549000, -0.7266500 0.3346500 0.0175000, 0.7441500 -0.0000500 0.0000000, 0.5826500 -0.0000500 0.0000000, 0.7265500 0.3346500 0.0175000, 0.5806500 -0.0000500 0.0000000, 0.4212500 -0.0000500 0.0000000, 0.2480500 -0.0000500 0.0000000, 0.0865500 -0.0000500 0.0000000, -0.0866500 -0.0000500 0.0000000, -0.2480500 -0.0000500 0.0000000, -0.4212500 -0.0000500 0.0000000, -0.5807500 -0.0000500 0.0000000, -0.7679500 0.2973500 0.6455000, -0.7679500 0.2973500 0.0549000, -0.7700500 0.2558500 0.6433000, -0.7700500 0.2558500 0.7347000, 0.4330500 0.3346500 0.1181000, -0.4331500 0.3346500 0.1181000, -0.5512500 0.3346500 0.2362000, -0.7285500 0.3346500 0.0176000, -0.5512500 0.3346500 0.5512000, -0.7285500 0.3346500 0.6848000, -0.4331500 0.3346500 0.6693000, 0.4330500 0.3346500 0.6693000, 0.5511500 0.3346500 0.5512000, 0.7285500 0.3346500 0.7698000, 0.5511500 0.3346500 0.2362000, 0.7285500 0.3346500 0.0176000
]
        }
        coordIndex [
            0,1,2,-1,2,1,3,-1,4,5,6,-1,7,8,9,-1,9,8,4,-1,9,4,10,-1,10,4,6,-1,11,12,9,-1,9,12,13,-1,9,13,14,-1,14,15,9,-1,9,15,16,-1,9,16,7,-1,17,18,19,-1,20,21,22,-1,22,21,23,-1,22,23,24,-1,24,23,17,-1,24,17,25,-1,25,17,19,-1,26,27,28,-1,28,29,26,-1,26,29,30,-1,26,30,31,-1,32,33,34,-1,34,33,35,-1,34,35,36,-1,36,35,26,-1,36,26,37,-1,37,26,31,-1,38,39,40,-1,40,39,41,-1,42,43,44,-1,44,43,45,-1,44,45,41,-1,41,45,46,-1,41,46,40,-1,47,26,48,-1,48,26,35,-1,48,35,49,-1,49,35,50,-1,17,23,51,-1,51,23,52,-1,11,9,53,-1,54,55,56,-1,56,55,57,-1,56,57,58,-1,58,59,56,-1,56,59,60,-1,56,60,53,-1,53,60,61,-1,53,61,62,-1,62,63,53,-1,53,63,64,-1,53,64,11,-1,65,66,67,-1,67,66,44,-1,67,44,68,-1,68,44,41,-1,69,56,70,-1,70,56,53,-1,70,53,71,-1,71,53,72,-1,71,72,73,-1,73,72,74,-1,73,74,75,-1,75,74,49,-1,75,49,76,-1,76,49,50,-1,76,50,77,-1,77,50,78,-1,77,78,79,-1,79,78,80,-1,79,80,69,-1,69,80,56,-1,
        ]
    }
}
Shape{
    appearance Appearance {
        material  Material 	{
            diffuseColor 0.7019607843137254 0.7019607843137254 0.7019607843137254
            specularColor 0.050980392156862744 0.050980392156862744 0.050980392156862744
            ambientIntensity 1.0
            transparency 0.0
            shininess 0.5
        }
    }
    geometry IndexedFaceSet {
        ccw TRUE
        solid FALSE
        coord DEF co Coordinate {
            point [
0.4015500 0.2558500 0.5933000, -0.4016500 0.2558500 0.5933000, 0.4330500 0.3346500 0.6693000, -0.4331500 0.3346500 0.6693000, -0.4751500 0.2558500 0.5197000, -0.5512500 0.3346500 0.5512000, -0.4751500 0.2558500 0.2677000, -0.5512500 0.3346500 0.2362000, -0.4016500 0.2558500 0.1941000, -0.4331500 0.3346500 0.1181000, 0.4015500 0.2558500 0.1941000, 0.4330500 0.3346500 0.1181000, 0.4751500 0.2558500 0.2677000, 0.5511500 0.3346500 0.2362000, 0.4751500 0.2558500 0.5197000, 0.5511500 0.3346500 0.5512000
]
        }
        coordIndex [
            0,1,2,-1,2,1,3,-1,1,4,3,-1,3,4,5,-1,4,6,5,-1,5,6,7,-1,6,8,7,-1,7,8,9,-1,8,10,9,-1,9,10,11,-1,10,12,11,-1,11,12,13,-1,12,14,13,-1,13,14,15,-1,14,0,15,-1,15,0,2,-1,14,12,0,-1,0,12,10,-1,1,0,4,-1,4,0,10,-1,4,10,6,-1,6,10,8,-1,
        ]
    }
}
Shape{
    appearance Appearance {
        material  Material 	{
            diffuseColor 1.0 1.0 1.0
            specularColor 0.8784313725490196 0.8784313725490196 0.8784313725490196
            ambientIntensity 1.0
            transparency 0.0
            shininess 0.5
        }
    }
    geometry IndexedFaceSet {
        ccw TRUE
        solid FALSE
        coord DEF co Coordinate {
            point [
-0.6394500 0.2558500 0.7740000, -0.7643500 0.3117500 0.6491000, -0.7661500 0.3070500 0.6473000, -0.6435500 0.3346500 0.7699000, -0.7285500 0.3346500 0.6848000, -0.7384500 0.3333500 0.6750000, -0.7476500 0.3296500 0.6657000, -0.7673500 0.3022500 0.6461000, -0.7679500 0.2973500 0.6455000, -0.7700500 0.2558500 0.6433000, -0.7556500 0.3238500 0.6577000, -0.7619500 0.3161500 0.6514000, -0.7307500 0.2558500 0.7740000, -0.7700500 0.2558500 0.7347000, -0.7687500 0.2558500 0.7449000, -0.7458500 0.2558500 0.7710000, -0.7409500 0.2558500 0.7727000, -0.7670500 0.2558500 0.7497000, -0.7648500 0.2558500 0.7543000, -0.7504500 0.2558500 0.7687000, -0.7619500 0.2558500 0.7586000, -0.7547500 0.2558500 0.7659000, -0.7585500 0.2558500 0.7625000, 0.6200500 -0.0393500 0.0787000, 0.6200500 -0.0393500 0.0069000, 0.6200500 -0.3149500 0.0787000, 0.6200500 -0.3346500 0.0590000, 0.6200500 -0.3149500 0.2362000, 0.6200500 -0.3346500 0.1771000, 0.6200500 -0.3346500 0.2362000, -0.6201500 -0.0393500 0.0069000, -0.6201500 -0.0393500 0.0787000, -0.6201500 -0.3346500 0.0590000, -0.6201500 -0.3149500 0.0787000, -0.6201500 -0.3346500 0.1771000, -0.6201500 -0.3149500 0.2362000, -0.6201500 -0.3346500 0.2362000, -0.5807500 -0.2756500 0.1181000, 0.5806500 -0.2756500 0.1181000, -0.5807500 -0.2756500 0.2362000, 0.5806500 -0.2756500 0.2362000, -0.3911500 -0.3346500 0.2756000, -0.4487500 -0.3346500 0.2756000, -0.5807500 -0.3149500 0.2756000, -0.5183500 -0.3346500 0.2756000, -0.5807500 -0.3346500 0.2756000, 0.5806500 -0.3346500 0.2756000, 0.4310500 -0.3346500 0.2756000, 0.5806500 -0.3149500 0.2756000, -0.1905500 -0.3346500 0.2756000, -0.3171500 -0.3346500 0.2756000, -0.5909500 -0.3149500 0.2742000, -0.5909500 -0.3346500 0.2742000, -0.6004500 -0.3149500 0.2703000, -0.6004500 -0.3346500 0.2703000, -0.6085500 -0.3149500 0.2641000, -0.6085500 -0.3346500 0.2641000, -0.6148500 -0.3149500 0.2559000, -0.6148500 -0.3346500 0.2559000, -0.6187500 -0.3149500 0.2464000, -0.6187500 -0.3346500 0.2464000, -0.5905500 -0.3047500 0.2730000, -0.5807500 -0.3047500 0.2742000, -0.5895500 -0.2952500 0.2692000, -0.5807500 -0.2952500 0.2703000, -0.5946500 -0.2871500 0.2603000, -0.5977500 -0.2952500 0.2657000, -0.5997500 -0.3047500 0.2692000, -0.5879500 -0.2871500 0.2631000, -0.5807500 -0.2871500 0.2641000, -0.5946500 -0.2808500 0.2501000, -0.6004500 -0.2871500 0.2559000, -0.6048500 -0.2952500 0.2603000, -0.6076500 -0.3047500 0.2631000, -0.5858500 -0.2808500 0.2552000, -0.5807500 -0.2808500 0.2559000, -0.5895500 -0.2769500 0.2413000, -0.5977500 -0.2808500 0.2461000, -0.6048500 -0.2871500 0.2501000, -0.6102500 -0.2952500 0.2533000, -0.6136500 -0.3047500 0.2552000, -0.5807500 -0.2769500 0.2464000, -0.5833500 -0.2769500 0.2461000, -0.5858500 -0.2769500 0.2450000, -0.5905500 -0.2808500 0.2533000, -0.5879500 -0.2769500 0.2434000, -0.5905500 -0.2769500 0.2389000, -0.5997500 -0.2808500 0.2413000, -0.6076500 -0.2871500 0.2434000, -0.6136500 -0.2952500 0.2450000, -0.6174500 -0.3047500 0.2461000, -0.5909500 -0.2769500 0.2362000, -0.6004500 -0.2808500 0.2362000, -0.6085500 -0.2871500 0.2362000, -0.6148500 -0.2952500 0.2362000, -0.6187500 -0.3047500 0.2362000, -0.5858500 -0.2759500 0.1178000, -0.5909500 -0.2769500 0.1168000, -0.5958500 -0.2786500 0.1151000, -0.6004500 -0.2808500 0.1128000, -0.6047500 -0.2837500 0.1100000, -0.6085500 -0.2871500 0.1066000, -0.6148500 -0.2952500 0.0984000, -0.6187500 -0.3047500 0.0889000, 0.5806500 -0.2769500 0.2464000, 0.5806500 -0.2808500 0.2559000, 0.5806500 -0.2871500 0.2641000, 0.5806500 -0.2952500 0.2703000, 0.5806500 -0.3047500 0.2742000, 0.6187500 -0.3149500 0.2464000, 0.6187500 -0.3346500 0.2464000, 0.6147500 -0.3149500 0.2559000, 0.6147500 -0.3346500 0.2559000, 0.6085500 -0.3149500 0.2641000, 0.6085500 -0.3346500 0.2641000, 0.6003500 -0.3149500 0.2703000, 0.6003500 -0.3346500 0.2703000, 0.5908500 -0.3149500 0.2742000, 0.5908500 -0.3346500 0.2742000, -0.6187500 -0.0393500 0.0889000, -0.6148500 -0.0393500 0.0984000, -0.6085500 -0.0393500 0.1066000, -0.6004500 -0.0393500 0.1128000, -0.5909500 -0.0393500 0.1168000, -0.5807500 -0.0393500 0.1181000, 0.6174500 -0.3047500 0.2461000, 0.6187500 -0.3047500 0.2362000, 0.6136500 -0.2952500 0.2450000, 0.6147500 -0.2952500 0.2362000, 0.6047500 -0.2871500 0.2501000, 0.6102500 -0.2952500 0.2533000, 0.6136500 -0.3047500 0.2552000, 0.6075500 -0.2871500 0.2434000, 0.6085500 -0.2871500 0.2362000, 0.5945500 -0.2808500 0.2501000, 0.6003500 -0.2871500 0.2559000, 0.6047500 -0.2952500 0.2603000, 0.6075500 -0.3047500 0.2631000, 0.5996500 -0.2808500 0.2413000, 0.6003500 -0.2808500 0.2362000, 0.5857500 -0.2769500 0.2450000, 0.5905500 -0.2808500 0.2533000, 0.5945500 -0.2871500 0.2603000, 0.5977500 -0.2952500 0.2657000, 0.5996500 -0.3047500 0.2692000, 0.5908500 -0.2769500 0.2362000, 0.5905500 -0.2769500 0.2389000, 0.5895500 -0.2769500 0.2413000, 0.5977500 -0.2808500 0.2461000, 0.5878500 -0.2769500 0.2434000, 0.5833500 -0.2769500 0.2461000, 0.5857500 -0.2808500 0.2552000, 0.5878500 -0.2871500 0.2631000, 0.5895500 -0.2952500 0.2692000, 0.5905500 -0.3047500 0.2730000, -0.5905500 -0.0292500 0.1155000, -0.5807500 -0.0292500 0.1168000, -0.5895500 -0.0197500 0.1117000, -0.5807500 -0.0197500 0.1128000, -0.5946500 -0.0115500 0.1028000, -0.5977500 -0.0197500 0.1083000, -0.5997500 -0.0292500 0.1117000, -0.5879500 -0.0115500 0.1056000, -0.5807500 -0.0115500 0.1066000, -0.5946500 -0.0052500 0.0927000, -0.6004500 -0.0115500 0.0984000, -0.6048500 -0.0197500 0.1028000, -0.6076500 -0.0292500 0.1056000, -0.5858500 -0.0052500 0.0978000, -0.5807500 -0.0052500 0.0984000, -0.5895500 -0.0013500 0.0838000, -0.5977500 -0.0052500 0.0886000, -0.6048500 -0.0115500 0.0927000, -0.6102500 -0.0197500 0.0958000, -0.6136500 -0.0292500 0.0978000, -0.5807500 -0.0000500 0.0787000, -0.5807500 -0.0013500 0.0889000, -0.5833500 -0.0013500 0.0886000, -0.5858500 -0.0013500 0.0876000, -0.5905500 -0.0052500 0.0958000, -0.5879500 -0.0013500 0.0859000, -0.5905500 -0.0013500 0.0814000, -0.5997500 -0.0052500 0.0838000, -0.6076500 -0.0115500 0.0859000, -0.6136500 -0.0197500 0.0876000, -0.6174500 -0.0292500 0.0886000, -0.5909500 -0.0013500 0.0787000, -0.6004500 -0.0052500 0.0787000, -0.6085500 -0.0115500 0.0787000, -0.6148500 -0.0197500 0.0787000, -0.6187500 -0.0292500 0.0787000, 0.6187500 -0.3047500 0.0889000, 0.6147500 -0.2952500 0.0984000, 0.6085500 -0.2871500 0.1066000, 0.6003500 -0.2808500 0.1128000, 0.6046500 -0.2837500 0.1100000, 0.5858500 -0.2759500 0.1178000, 0.5908500 -0.2769500 0.1168000, 0.5957500 -0.2786500 0.1151000, 0.5806500 -0.0393500 0.1181000, 0.5806500 -0.0292500 0.1168000, 0.5806500 -0.0197500 0.1128000, 0.5806500 -0.0115500 0.1066000, 0.5806500 -0.0052500 0.0984000, 0.5806500 -0.0013500 0.0889000, 0.5806500 -0.0000500 0.0787000, 0.5908500 -0.0393500 0.1168000, 0.6003500 -0.0393500 0.1128000, 0.6085500 -0.0393500 0.1066000, 0.6147500 -0.0393500 0.0984000, 0.6187500 -0.0393500 0.0889000, 0.6174500 -0.0292500 0.0886000, 0.6187500 -0.0292500 0.0787000, 0.6136500 -0.0197500 0.0876000, 0.6147500 -0.0197500 0.0787000, 0.6047500 -0.0115500 0.0927000, 0.6102500 -0.0197500 0.0958000, 0.6136500 -0.0292500 0.0978000, 0.6075500 -0.0115500 0.0859000, 0.6085500 -0.0115500 0.0787000, 0.5945500 -0.0052500 0.0927000, 0.6003500 -0.0115500 0.0984000, 0.6047500 -0.0197500 0.1028000, 0.6075500 -0.0292500 0.1056000, 0.5996500 -0.0052500 0.0838000, 0.6003500 -0.0052500 0.0787000, 0.5857500 -0.0013500 0.0876000, 0.5905500 -0.0052500 0.0958000, 0.5945500 -0.0115500 0.1028000, 0.5977500 -0.0197500 0.1083000, 0.5996500 -0.0292500 0.1117000, 0.5908500 -0.0013500 0.0787000, 0.5905500 -0.0013500 0.0814000, 0.5895500 -0.0013500 0.0838000, 0.5977500 -0.0052500 0.0886000, 0.5878500 -0.0013500 0.0859000, 0.5833500 -0.0013500 0.0886000, 0.5857500 -0.0052500 0.0978000, 0.5878500 -0.0115500 0.1056000, 0.5895500 -0.0197500 0.1117000, 0.5905500 -0.0292500 0.1155000, -0.7543500 -0.0005500 0.0014000, -0.7447500 -0.0000500 0.0000000, -0.6857500 -0.3346500 0.0590000, -0.7547500 -0.0005500 0.0014000, -0.6958500 -0.3346500 0.0603000, -0.7006500 -0.3346500 0.0619000, -0.7638500 -0.0008500 0.0052000, -0.7640500 -0.0008500 0.0053000, -0.7051500 -0.3346500 0.0642000, -0.7094500 -0.3346500 0.0670000, -0.7720500 -0.0009500 0.0115000, -0.7132500 -0.3346500 0.0703000, -0.7781500 -0.0008500 0.0194000, -0.7165500 -0.3346500 0.0741000, -0.7193500 -0.3346500 0.0783000, -0.7782500 -0.0008500 0.0196000, -0.7215500 -0.3346500 0.0829000, -0.7820500 -0.0005500 0.0288000, -0.7231500 -0.3346500 0.0877000, -0.7821500 -0.0005500 0.0291000, -0.7244500 -0.3346500 0.0978000, -0.7834500 -0.0000500 0.0388000, -0.7660500 0.3073500 0.0453000, -0.7834500 -0.0000500 0.0393000, -0.7679500 0.2973500 0.0549000, -0.7661500 0.3070500 0.0455000, -0.7615500 0.3166500 0.0363000, -0.7619500 0.3161500 0.0368000, -0.7556500 0.3238500 0.0292000, -0.7549500 0.3243500 0.0286000, -0.7465500 0.3302500 0.0226000, -0.7476500 0.3296500 0.0232000, -0.7425500 0.3320500 0.0207000, -0.7384500 0.3333500 0.0193000, -0.7368500 0.3336500 0.0189000, -0.7327500 0.3344500 0.0180000, -0.7441500 -0.0000500 0.0000000, -0.7285500 0.3346500 0.0176000, -0.7266500 0.3346500 0.0175000, 0.7820500 -0.0005500 0.0291000, 0.7834500 -0.0000500 0.0388000, 0.7244500 -0.3346500 0.0978000, 0.7820500 -0.0005500 0.0288000, 0.7231500 -0.3346500 0.0877000, 0.7214500 -0.3346500 0.0829000, 0.7781500 -0.0008500 0.0196000, 0.7781500 -0.0008500 0.0194000, 0.7192500 -0.3346500 0.0783000, 0.7164500 -0.3346500 0.0741000, 0.7719500 -0.0009500 0.0115000, 0.7131500 -0.3346500 0.0703000, 0.7639500 -0.0008500 0.0053000, 0.7093500 -0.3346500 0.0670000, 0.7051500 -0.3346500 0.0642000, 0.7638500 -0.0008500 0.0052000, 0.7005500 -0.3346500 0.0619000, 0.7546500 -0.0005500 0.0014000, 0.6957500 -0.3346500 0.0603000, 0.7543500 -0.0005500 0.0014000, 0.6856500 -0.3346500 0.0590000, 0.7446500 -0.0000500 0.0000000, 0.7543500 -0.0005500 0.7860000, 0.7446500 -0.0000500 0.7874000, 0.6856500 -0.3346500 0.7284000, 0.7546500 -0.0005500 0.7860000, 0.6957500 -0.3346500 0.7271000, 0.7005500 -0.3346500 0.7255000, 0.7638500 -0.0008500 0.7822000, 0.7639500 -0.0008500 0.7821000, 0.7051500 -0.3346500 0.7232000, 0.7093500 -0.3346500 0.7204000, 0.7719500 -0.0009500 0.7759000, 0.7131500 -0.3346500 0.7171000, 0.7781500 -0.0008500 0.7680000, 0.7164500 -0.3346500 0.7133000, 0.7192500 -0.3346500 0.7091000, 0.7781500 -0.0008500 0.7678000, 0.7214500 -0.3346500 0.7045000, 0.7820500 -0.0005500 0.7586000, 0.7231500 -0.3346500 0.6997000, 0.7820500 -0.0005500 0.7583000, 0.7244500 -0.3346500 0.6896000, 0.7834500 -0.0000500 0.7486000, 0.7659500 0.3074500 0.0452000, 0.7368500 0.3337500 0.0188000, 0.7326500 0.3344500 0.0180000, 0.7441500 -0.0000500 0.0000000, 0.7285500 0.3346500 0.0176000, 0.7265500 0.3346500 0.0175000, 0.7425500 0.3320500 0.0207000, 0.7383500 0.3332500 0.0193000, 0.7464500 0.3303500 0.0226000, 0.7476500 0.3296500 0.0232000, 0.7549500 0.3244500 0.0285000, 0.7555500 0.3237500 0.0292000, 0.7615500 0.3166500 0.0362000, 0.7618500 0.3160500 0.0368000, 0.7834500 -0.0000500 0.0393000, 0.7660500 0.3070500 0.0455000, 0.7678500 0.2973500 0.0549000, 0.7659500 0.3073500 0.7421000, 0.7834500 -0.0000500 0.7481000, 0.7678500 0.2973500 0.7325000, 0.7660500 0.3070500 0.7419000, 0.7615500 0.3166500 0.7511000, 0.7619500 0.3161500 0.7506000, 0.7556500 0.3238500 0.7582000, 0.7548500 0.3243500 0.7588000, 0.7464500 0.3302500 0.7648000, 0.7476500 0.3296500 0.7642000, 0.7425500 0.3320500 0.7667000, 0.7383500 0.3333500 0.7681000, 0.7367500 0.3336500 0.7685000, 0.7326500 0.3344500 0.7694000, 0.7441500 -0.0000500 0.7874000, 0.7285500 0.3346500 0.7698000, 0.7265500 0.3346500 0.7699000, -0.7834500 -0.0000500 0.7481000, -0.7834500 -0.0000500 0.7486000, -0.7821500 -0.0005500 0.7583000, -0.7820500 -0.0005500 0.7586000, -0.7782500 -0.0008500 0.7678000, -0.7781500 -0.0008500 0.7680000, -0.7720500 -0.0009500 0.7759000, -0.7640500 -0.0008500 0.7821000, -0.7441500 -0.0000500 0.7874000, -0.7447500 -0.0000500 0.7874000, -0.7543500 -0.0005500 0.7860000, -0.7547500 -0.0005500 0.7860000, -0.7638500 -0.0008500 0.7822000, -0.7244500 -0.3346500 0.6896000, -0.7231500 -0.3346500 0.6997000, -0.7215500 -0.3346500 0.7045000, -0.7193500 -0.3346500 0.7091000, -0.7165500 -0.3346500 0.7133000, -0.7132500 -0.3346500 0.7171000, -0.7094500 -0.3346500 0.7204000, -0.7051500 -0.3346500 0.7232000, -0.7006500 -0.3346500 0.7255000, -0.6958500 -0.3346500 0.7271000, -0.6857500 -0.3346500 0.7284000
]
        }
        coordIndex [
            0,1,2,-1,3,4,0,-1,0,4,5,-1,0,5,6,-1,2,7,0,-1,0,7,8,-1,0,8,9,-1,6,10,0,-1,0,10,11,-1,0,11,1,-1,0,9,12,-1,12,9,13,-1,14,15,13,-1,13,15,16,-1,13,16,12,-1,14,17,15,-1,15,17,18,-1,15,18,19,-1,19,18,20,-1,19,20,21,-1,21,20,22,-1,23,24,25,-1,25,24,26,-1,25,26,27,-1,27,26,28,-1,27,28,29,-1,30,31,32,-1,32,31,33,-1,32,33,34,-1,34,33,35,-1,34,35,36,-1,37,38,39,-1,39,38,40,-1,41,42,43,-1,43,42,44,-1,43,44,45,-1,46,47,48,-1,48,47,49,-1,48,49,43,-1,43,49,50,-1,43,50,41,-1,43,45,51,-1,51,45,52,-1,51,52,53,-1,53,52,54,-1,53,54,55,-1,55,54,56,-1,55,56,57,-1,57,56,58,-1,57,58,59,-1,59,58,60,-1,59,60,35,-1,35,60,36,-1,43,51,61,-1,43,61,62,-1,62,61,63,-1,62,63,64,-1,65,63,66,-1,66,63,61,-1,66,61,67,-1,67,61,51,-1,67,51,53,-1,68,69,64,-1,70,65,71,-1,71,65,66,-1,71,66,72,-1,72,66,67,-1,72,67,73,-1,73,67,53,-1,73,53,55,-1,74,75,69,-1,76,70,77,-1,77,70,71,-1,77,71,78,-1,78,71,72,-1,78,72,79,-1,79,72,73,-1,79,73,80,-1,80,73,55,-1,80,55,57,-1,39,81,82,-1,82,81,75,-1,75,74,82,-1,82,74,83,-1,82,83,39,-1,69,68,74,-1,74,68,84,-1,74,84,83,-1,83,84,85,-1,83,85,39,-1,39,76,86,-1,86,76,77,-1,86,77,87,-1,87,77,78,-1,87,78,88,-1,88,78,79,-1,88,79,89,-1,89,79,80,-1,89,80,90,-1,90,80,57,-1,90,57,59,-1,39,86,91,-1,91,86,87,-1,91,87,92,-1,92,87,88,-1,92,88,93,-1,93,88,89,-1,93,89,94,-1,94,89,90,-1,94,90,95,-1,95,90,59,-1,95,59,35,-1,64,63,68,-1,68,63,65,-1,68,65,84,-1,84,65,70,-1,84,70,85,-1,85,70,76,-1,85,76,39,-1,37,39,96,-1,96,39,91,-1,96,91,97,-1,97,91,98,-1,98,91,92,-1,98,92,99,-1,99,92,100,-1,100,92,93,-1,100,93,101,-1,101,93,94,-1,101,94,102,-1,102,94,95,-1,102,95,103,-1,103,95,35,-1,103,35,33,-1,39,40,81,-1,81,40,104,-1,81,104,75,-1,75,104,105,-1,75,105,69,-1,69,105,106,-1,69,106,64,-1,64,106,107,-1,64,107,62,-1,62,107,108,-1,62,108,43,-1,43,108,48,-1,27,29,109,-1,109,29,110,-1,109,110,111,-1,111,110,112,-1,111,112,113,-1,113,112,114,-1,113,114,115,-1,115,114,116,-1,115,116,117,-1,117,116,118,-1,117,118,48,-1,48,118,46,-1,33,31,119,-1,33,119,103,-1,103,119,120,-1,103,120,102,-1,102,120,121,-1,102,121,101,-1,122,99,121,-1,121,99,100,-1,121,100,101,-1,123,124,37,-1,37,96,123,-1,123,96,97,-1,123,97,122,-1,122,97,98,-1,122,98,99,-1,27,109,125,-1,27,125,126,-1,126,125,127,-1,126,127,128,-1,129,127,130,-1,130,127,125,-1,130,125,131,-1,131,125,109,-1,131,109,111,-1,132,133,128,-1,134,129,135,-1,135,129,130,-1,135,130,136,-1,136,130,131,-1,136,131,137,-1,137,131,111,-1,137,111,113,-1,138,139,133,-1,140,134,141,-1,141,134,135,-1,141,135,142,-1,142,135,136,-1,142,136,143,-1,143,136,137,-1,143,137,144,-1,144,137,113,-1,144,113,115,-1,40,145,146,-1,146,145,139,-1,139,138,146,-1,146,138,147,-1,146,147,40,-1,133,132,138,-1,138,132,148,-1,138,148,147,-1,147,148,149,-1,147,149,40,-1,40,140,150,-1,150,140,141,-1,150,141,151,-1,151,141,142,-1,151,142,152,-1,152,142,143,-1,152,143,153,-1,153,143,144,-1,153,144,154,-1,154,144,115,-1,154,115,117,-1,40,150,104,-1,104,150,151,-1,104,151,105,-1,105,151,152,-1,105,152,106,-1,106,152,153,-1,106,153,107,-1,107,153,154,-1,107,154,108,-1,108,154,117,-1,108,117,48,-1,128,127,132,-1,132,127,129,-1,132,129,148,-1,148,129,134,-1,148,134,149,-1,149,134,140,-1,149,140,40,-1,124,123,155,-1,124,155,156,-1,156,155,157,-1,156,157,158,-1,159,157,160,-1,160,157,155,-1,160,155,161,-1,161,155,123,-1,161,123,122,-1,162,163,158,-1,164,159,165,-1,165,159,160,-1,165,160,166,-1,166,160,161,-1,166,161,167,-1,167,161,122,-1,167,122,121,-1,168,169,163,-1,170,164,171,-1,171,164,165,-1,171,165,172,-1,172,165,166,-1,172,166,173,-1,173,166,167,-1,173,167,174,-1,174,167,121,-1,174,121,120,-1,175,176,177,-1,177,176,169,-1,169,168,177,-1,177,168,178,-1,177,178,175,-1,163,162,168,-1,168,162,179,-1,168,179,178,-1,178,179,180,-1,178,180,175,-1,175,170,181,-1,181,170,171,-1,181,171,182,-1,182,171,172,-1,182,172,183,-1,183,172,173,-1,183,173,184,-1,184,173,174,-1,184,174,185,-1,185,174,120,-1,185,120,119,-1,175,181,186,-1,186,181,182,-1,186,182,187,-1,187,182,183,-1,187,183,188,-1,188,183,184,-1,188,184,189,-1,189,184,185,-1,189,185,190,-1,190,185,119,-1,190,119,31,-1,158,157,162,-1,162,157,159,-1,162,159,179,-1,179,159,164,-1,179,164,180,-1,180,164,170,-1,180,170,175,-1,25,27,126,-1,25,126,191,-1,191,126,128,-1,191,128,192,-1,192,128,133,-1,192,133,193,-1,139,194,133,-1,133,194,195,-1,133,195,193,-1,145,40,38,-1,38,196,145,-1,145,196,197,-1,145,197,139,-1,139,197,198,-1,139,198,194,-1,199,124,200,-1,200,124,156,-1,200,156,201,-1,201,156,158,-1,201,158,202,-1,202,158,163,-1,202,163,203,-1,203,163,169,-1,203,169,204,-1,204,169,176,-1,204,176,205,-1,205,176,175,-1,38,199,196,-1,196,199,206,-1,196,206,197,-1,197,206,198,-1,198,206,207,-1,198,207,194,-1,194,207,195,-1,195,207,208,-1,195,208,193,-1,193,208,209,-1,193,209,192,-1,192,209,210,-1,192,210,191,-1,191,210,23,-1,191,23,25,-1,23,210,211,-1,23,211,212,-1,212,211,213,-1,212,213,214,-1,215,213,216,-1,216,213,211,-1,216,211,217,-1,217,211,210,-1,217,210,209,-1,218,219,214,-1,220,215,221,-1,221,215,216,-1,221,216,222,-1,222,216,217,-1,222,217,223,-1,223,217,209,-1,223,209,208,-1,224,225,219,-1,226,220,227,-1,227,220,221,-1,227,221,228,-1,228,221,222,-1,228,222,229,-1,229,222,223,-1,229,223,230,-1,230,223,208,-1,230,208,207,-1,205,231,232,-1,232,231,225,-1,225,224,232,-1,232,224,233,-1,232,233,205,-1,219,218,224,-1,224,218,234,-1,224,234,233,-1,233,234,235,-1,233,235,205,-1,205,226,236,-1,236,226,227,-1,236,227,237,-1,237,227,228,-1,237,228,238,-1,238,228,229,-1,238,229,239,-1,239,229,230,-1,239,230,240,-1,240,230,207,-1,240,207,206,-1,205,236,204,-1,204,236,237,-1,204,237,203,-1,203,237,238,-1,203,238,202,-1,202,238,239,-1,202,239,201,-1,201,239,240,-1,201,240,200,-1,200,240,206,-1,200,206,199,-1,214,213,218,-1,218,213,215,-1,218,215,234,-1,234,215,220,-1,234,220,235,-1,235,220,226,-1,235,226,205,-1,241,242,243,-1,241,243,244,-1,243,245,244,-1,244,245,246,-1,244,246,247,-1,247,246,248,-1,246,249,248,-1,248,249,250,-1,248,250,251,-1,251,250,252,-1,251,252,253,-1,252,254,253,-1,253,254,255,-1,253,255,256,-1,256,255,257,-1,256,257,258,-1,258,257,259,-1,258,259,260,-1,260,259,261,-1,260,261,262,-1,263,260,262,-1,264,265,262,-1,262,265,266,-1,262,266,263,-1,267,256,258,-1,260,263,258,-1,258,263,268,-1,258,268,267,-1,256,267,253,-1,253,267,269,-1,253,269,270,-1,271,247,272,-1,272,247,248,-1,272,248,270,-1,270,248,251,-1,270,251,253,-1,273,241,271,-1,271,241,244,-1,271,244,247,-1,273,274,241,-1,241,274,275,-1,241,275,242,-1,242,275,276,-1,242,276,277,-1,277,276,278,-1,277,278,279,-1,266,265,8,-1,8,7,266,-1,266,7,2,-1,266,2,263,-1,263,2,1,-1,263,1,268,-1,268,1,11,-1,268,11,267,-1,267,11,10,-1,267,10,269,-1,269,10,270,-1,270,10,6,-1,270,6,272,-1,272,6,271,-1,271,6,5,-1,271,5,273,-1,278,276,4,-1,4,276,275,-1,4,275,5,-1,5,275,274,-1,5,274,273,-1,280,281,282,-1,280,282,283,-1,282,284,283,-1,283,284,285,-1,283,285,286,-1,286,285,287,-1,285,288,287,-1,287,288,289,-1,287,289,290,-1,290,289,291,-1,290,291,292,-1,291,293,292,-1,292,293,294,-1,292,294,295,-1,295,294,296,-1,295,296,297,-1,297,296,298,-1,297,298,299,-1,299,298,300,-1,299,300,301,-1,302,303,304,-1,302,304,305,-1,304,306,305,-1,305,306,307,-1,305,307,308,-1,308,307,309,-1,307,310,309,-1,309,310,311,-1,309,311,312,-1,312,311,313,-1,312,313,314,-1,313,315,314,-1,314,315,316,-1,314,316,317,-1,317,316,318,-1,317,318,319,-1,319,318,320,-1,319,320,321,-1,321,320,322,-1,321,322,323,-1,281,280,324,-1,325,301,326,-1,326,301,327,-1,326,327,328,-1,328,327,329,-1,330,295,331,-1,331,295,297,-1,331,297,325,-1,325,297,299,-1,325,299,301,-1,330,332,295,-1,295,332,333,-1,295,333,292,-1,292,333,334,-1,292,334,290,-1,335,336,286,-1,335,286,334,-1,334,286,287,-1,334,287,290,-1,324,280,337,-1,337,280,336,-1,336,280,283,-1,336,283,286,-1,281,324,338,-1,338,324,339,-1,338,339,340,-1,341,321,323,-1,342,343,323,-1,323,343,344,-1,323,344,341,-1,345,317,319,-1,321,341,319,-1,319,341,346,-1,319,346,345,-1,317,345,314,-1,314,345,347,-1,314,347,348,-1,349,308,350,-1,350,308,309,-1,350,309,348,-1,348,309,312,-1,348,312,314,-1,351,302,349,-1,349,302,305,-1,349,305,308,-1,351,352,302,-1,302,352,353,-1,302,353,303,-1,303,353,354,-1,303,354,355,-1,355,354,356,-1,355,356,357,-1,330,331,349,-1,340,339,343,-1,343,339,344,-1,337,346,341,-1,344,339,341,-1,341,339,324,-1,341,324,337,-1,335,347,345,-1,346,337,345,-1,345,337,336,-1,345,336,335,-1,333,350,348,-1,347,335,348,-1,348,335,334,-1,348,334,333,-1,350,333,349,-1,349,333,332,-1,349,332,330,-1,356,354,328,-1,328,354,353,-1,328,353,326,-1,326,353,325,-1,325,353,352,-1,325,352,331,-1,331,352,351,-1,331,351,349,-1,14,13,358,-1,358,359,14,-1,14,359,360,-1,14,360,17,-1,17,360,361,-1,17,361,18,-1,18,361,362,-1,18,362,20,-1,20,362,363,-1,20,363,22,-1,22,363,364,-1,22,364,21,-1,21,364,365,-1,21,365,19,-1,366,12,367,-1,367,12,16,-1,367,16,368,-1,368,16,15,-1,368,15,369,-1,369,15,19,-1,369,19,370,-1,370,19,365,-1,360,359,371,-1,360,371,361,-1,371,372,361,-1,361,372,373,-1,361,373,362,-1,362,373,363,-1,373,374,363,-1,363,374,375,-1,363,375,364,-1,364,375,376,-1,364,376,365,-1,376,377,365,-1,365,377,378,-1,365,378,370,-1,370,378,379,-1,370,379,369,-1,369,379,380,-1,369,380,368,-1,368,380,381,-1,368,381,367,-1,
        ]
    }
}
Shape{
    appearance Appearance {
        material  Material 	{
            diffuseColor 0.7686274509803922 0.7686274509803922 0.7686274509803922
            specularColor 0.615686274509804 0.615686274509804 0.615686274509804
            ambientIntensity 0.7686
            transparency 0.0
            shininess 0.5
        }
    }
    geometry IndexedFaceSet {
        ccw TRUE
        solid FALSE
        coord DEF co Coordinate {
            point [
-0.5827500 -0.0000500 0.0512000, -0.5827500 -0.2677500 0.0512000, -0.5807500 -0.0000500 0.0512000, -0.4212500 -0.2677500 0.0512000, -0.4212500 -0.0000500 0.0512000, -0.4212500 -0.0000500 0.0000000, -0.4212500 -0.3031500 0.0000000, -0.5807500 -0.0000500 0.0000000, -0.5827500 -0.3031500 0.0000000, -0.5827500 -0.0000500 0.0000000, -0.4212500 -0.3113500 0.0011000, -0.5827500 -0.3113500 0.0011000, -0.4212500 -0.3189500 0.0042000, -0.5827500 -0.3189500 0.0042000, -0.4212500 -0.3254500 0.0092000, -0.5827500 -0.3254500 0.0092000, -0.4212500 -0.3304500 0.0157000, -0.5827500 -0.3304500 0.0157000, -0.4212500 -0.3335500 0.0233000, -0.5827500 -0.3335500 0.0233000, -0.4212500 -0.3346500 0.0315000, -0.5827500 -0.3346500 0.0315000, -0.5827500 -0.3346500 0.1772000, -0.4212500 -0.3346500 0.1772000, -0.4219500 -0.3346500 0.1823000, -0.4239500 -0.3346500 0.1870000, -0.4270500 -0.3346500 0.1911000, -0.4311500 -0.3346500 0.1942000, -0.4358500 -0.3346500 0.1962000, -0.4409500 -0.3346500 0.1969000, -0.5681500 -0.3346500 0.1962000, -0.5820500 -0.3346500 0.1823000, -0.5630500 -0.3346500 0.1969000, -0.5728500 -0.3346500 0.1942000, -0.5769500 -0.3346500 0.1911000, -0.5800500 -0.3346500 0.1870000, -0.5630500 -0.2874500 0.1969000, -0.4409500 -0.2874500 0.1969000, -0.4212500 -0.2874500 0.0709000, -0.5827500 -0.2874500 0.0709000, -0.4212500 -0.2874500 0.1772000, -0.5827500 -0.2874500 0.1772000, -0.5681500 -0.2874500 0.1962000, -0.5820500 -0.2874500 0.1823000, -0.4358500 -0.2874500 0.1962000, -0.4219500 -0.2874500 0.1823000, -0.4311500 -0.2874500 0.1942000, -0.4270500 -0.2874500 0.1911000, -0.4239500 -0.2874500 0.1870000, -0.5800500 -0.2874500 0.1870000, -0.5769500 -0.2874500 0.1911000, -0.5728500 -0.2874500 0.1942000, -0.5827500 -0.2867500 0.0658000, -0.4212500 -0.2867500 0.0658000, -0.5827500 -0.2847500 0.0610000, -0.4212500 -0.2847500 0.0610000, -0.5827500 -0.2816500 0.0569000, -0.4212500 -0.2816500 0.0569000, -0.5827500 -0.2775500 0.0538000, -0.4212500 -0.2775500 0.0538000, -0.5827500 -0.2728500 0.0519000, -0.4212500 -0.2728500 0.0519000, -0.2480500 -0.0000500 0.0512000, -0.2480500 -0.2677500 0.0512000, -0.0866500 -0.0000500 0.0512000, -0.0866500 -0.2677500 0.0512000, -0.2480500 -0.3031500 0.0000000, -0.2480500 -0.0000500 0.0000000, -0.0866500 -0.3031500 0.0000000, -0.0866500 -0.0000500 0.0000000, -0.0866500 -0.3113500 0.0011000, -0.2480500 -0.3113500 0.0011000, -0.0866500 -0.3189500 0.0042000, -0.2480500 -0.3189500 0.0042000, -0.0866500 -0.3254500 0.0092000, -0.2480500 -0.3254500 0.0092000, -0.0866500 -0.3304500 0.0157000, -0.2480500 -0.3304500 0.0157000, -0.0866500 -0.3335500 0.0233000, -0.2480500 -0.3335500 0.0233000, -0.0866500 -0.3346500 0.0315000, -0.2480500 -0.3346500 0.0315000, -0.1063500 -0.3346500 0.1969000, -0.2283500 -0.3346500 0.1969000, -0.0964500 -0.3346500 0.1942000, -0.0873500 -0.3346500 0.1823000, -0.0924500 -0.3346500 0.1911000, -0.0892500 -0.3346500 0.1870000, -0.0866500 -0.3346500 0.1772000, -0.1012500 -0.3346500 0.1962000, -0.2334500 -0.3346500 0.1962000, -0.2473500 -0.3346500 0.1823000, -0.2480500 -0.3346500 0.1772000, -0.2382500 -0.3346500 0.1942000, -0.2422500 -0.3346500 0.1911000, -0.2454500 -0.3346500 0.1870000, -0.2283500 -0.2874500 0.1969000, -0.1063500 -0.2874500 0.1969000, -0.0866500 -0.2874500 0.0709000, -0.2480500 -0.2874500 0.0709000, -0.1012500 -0.2874500 0.1962000, -0.0873500 -0.2874500 0.1823000, -0.0866500 -0.2874500 0.1772000, -0.0964500 -0.2874500 0.1942000, -0.0924500 -0.2874500 0.1911000, -0.0892500 -0.2874500 0.1870000, -0.2382500 -0.2874500 0.1942000, -0.2473500 -0.2874500 0.1823000, -0.2422500 -0.2874500 0.1911000, -0.2454500 -0.2874500 0.1870000, -0.2480500 -0.2874500 0.1772000, -0.2334500 -0.2874500 0.1962000, -0.2480500 -0.2867500 0.0658000, -0.0866500 -0.2867500 0.0658000, -0.2480500 -0.2847500 0.0610000, -0.0866500 -0.2847500 0.0610000, -0.2480500 -0.2816500 0.0569000, -0.0866500 -0.2816500 0.0569000, -0.2480500 -0.2775500 0.0538000, -0.0866500 -0.2775500 0.0538000, -0.2480500 -0.2728500 0.0519000, -0.0866500 -0.2728500 0.0519000, 0.0865500 -0.0000500 0.0512000, 0.0865500 -0.2677500 0.0512000, 0.2480500 -0.0000500 0.0512000, 0.2480500 -0.2677500 0.0512000, 0.0865500 -0.3031500 0.0000000, 0.0865500 -0.0000500 0.0000000, 0.2480500 -0.3031500 0.0000000, 0.2480500 -0.0000500 0.0000000, 0.2480500 -0.3113500 0.0011000, 0.0865500 -0.3113500 0.0011000, 0.2480500 -0.3189500 0.0042000, 0.0865500 -0.3189500 0.0042000, 0.2480500 -0.3254500 0.0092000, 0.0865500 -0.3254500 0.0092000, 0.2480500 -0.3304500 0.0157000, 0.0865500 -0.3304500 0.0157000, 0.2480500 -0.3335500 0.0233000, 0.0865500 -0.3335500 0.0233000, 0.2480500 -0.3346500 0.0315000, 0.0865500 -0.3346500 0.0315000, 0.0865500 -0.3346500 0.1772000, 0.2453500 -0.3346500 0.1870000, 0.2422500 -0.3346500 0.1911000, 0.2381500 -0.3346500 0.1942000, 0.2480500 -0.3346500 0.1772000, 0.2283500 -0.3346500 0.1969000, 0.1062500 -0.3346500 0.1969000, 0.2473500 -0.3346500 0.1823000, 0.2334500 -0.3346500 0.1962000, 0.0964500 -0.3346500 0.1942000, 0.0923500 -0.3346500 0.1911000, 0.0892500 -0.3346500 0.1870000, 0.1011500 -0.3346500 0.1962000, 0.0872500 -0.3346500 0.1823000, 0.1062500 -0.2874500 0.1969000, 0.2283500 -0.2874500 0.1969000, 0.2480500 -0.2874500 0.0709000, 0.0865500 -0.2874500 0.0709000, 0.2480500 -0.2874500 0.1772000, 0.0865500 -0.2874500 0.1772000, 0.2473500 -0.2874500 0.1823000, 0.0892500 -0.2874500 0.1870000, 0.0923500 -0.2874500 0.1911000, 0.0964500 -0.2874500 0.1942000, 0.2334500 -0.2874500 0.1962000, 0.2381500 -0.2874500 0.1942000, 0.2453500 -0.2874500 0.1870000, 0.2422500 -0.2874500 0.1911000, 0.0872500 -0.2874500 0.1823000, 0.1011500 -0.2874500 0.1962000, 0.0865500 -0.2867500 0.0658000, 0.2480500 -0.2867500 0.0658000, 0.0865500 -0.2847500 0.0610000, 0.2480500 -0.2847500 0.0610000, 0.0865500 -0.2816500 0.0569000, 0.2480500 -0.2816500 0.0569000, 0.0865500 -0.2775500 0.0538000, 0.2480500 -0.2775500 0.0538000, 0.0865500 -0.2728500 0.0519000, 0.2480500 -0.2728500 0.0519000, 0.4212500 -0.0000500 0.0512000, 0.4212500 -0.2677500 0.0512000, 0.5806500 -0.0000500 0.0512000, 0.5826500 -0.2677500 0.0512000, 0.5826500 -0.0000500 0.0512000, 0.5826500 -0.0000500 0.0000000, 0.5826500 -0.3031500 0.0000000, 0.5806500 -0.0000500 0.0000000, 0.4212500 -0.3031500 0.0000000, 0.4212500 -0.0000500 0.0000000, 0.5826500 -0.3113500 0.0011000, 0.4212500 -0.3113500 0.0011000, 0.5826500 -0.3189500 0.0042000, 0.4212500 -0.3189500 0.0042000, 0.5826500 -0.3254500 0.0092000, 0.4212500 -0.3254500 0.0092000, 0.5826500 -0.3304500 0.0157000, 0.4212500 -0.3304500 0.0157000, 0.5826500 -0.3335500 0.0233000, 0.4212500 -0.3335500 0.0233000, 0.5826500 -0.3346500 0.0315000, 0.4212500 -0.3346500 0.0315000, 0.5680500 -0.3346500 0.1962000, 0.5629500 -0.3346500 0.1969000, 0.5826500 -0.3346500 0.1772000, 0.4212500 -0.3346500 0.1772000, 0.5819500 -0.3346500 0.1823000, 0.5800500 -0.3346500 0.1870000, 0.5768500 -0.3346500 0.1911000, 0.5728500 -0.3346500 0.1942000, 0.4409500 -0.3346500 0.1969000, 0.4358500 -0.3346500 0.1962000, 0.4310500 -0.3346500 0.1942000, 0.4269500 -0.3346500 0.1911000, 0.4238500 -0.3346500 0.1870000, 0.4219500 -0.3346500 0.1823000, 0.4409500 -0.2874500 0.1969000, 0.5629500 -0.2874500 0.1969000, 0.5826500 -0.2874500 0.0709000, 0.4212500 -0.2874500 0.0709000, 0.5826500 -0.2874500 0.1772000, 0.4212500 -0.2874500 0.1772000, 0.5680500 -0.2874500 0.1962000, 0.5728500 -0.2874500 0.1942000, 0.5768500 -0.2874500 0.1911000, 0.4219500 -0.2874500 0.1823000, 0.4238500 -0.2874500 0.1870000, 0.4269500 -0.2874500 0.1911000, 0.4310500 -0.2874500 0.1942000, 0.4358500 -0.2874500 0.1962000, 0.5819500 -0.2874500 0.1823000, 0.5800500 -0.2874500 0.1870000, 0.4212500 -0.2867500 0.0658000, 0.5826500 -0.2867500 0.0658000, 0.4212500 -0.2847500 0.0610000, 0.5826500 -0.2847500 0.0610000, 0.4212500 -0.2816500 0.0569000, 0.5826500 -0.2816500 0.0569000, 0.4212500 -0.2775500 0.0538000, 0.5826500 -0.2775500 0.0538000, 0.4212500 -0.2728500 0.0519000, 0.5826500 -0.2728500 0.0519000
]
        }
        coordIndex [
            0,1,2,-1,2,1,3,-1,2,3,4,-1,5,6,7,-1,7,6,8,-1,7,8,9,-1,8,6,10,-1,8,10,11,-1,11,10,12,-1,11,12,13,-1,13,12,14,-1,13,14,15,-1,15,14,16,-1,15,16,17,-1,17,16,18,-1,17,18,19,-1,19,18,20,-1,19,20,21,-1,21,20,22,-1,22,20,23,-1,24,25,26,-1,26,27,24,-1,24,27,28,-1,24,28,29,-1,30,31,32,-1,32,31,22,-1,32,22,29,-1,29,22,23,-1,29,23,24,-1,30,33,31,-1,31,33,34,-1,31,34,35,-1,32,29,36,-1,36,29,37,-1,38,39,40,-1,40,39,41,-1,42,36,43,-1,44,45,37,-1,37,45,40,-1,37,40,36,-1,36,40,41,-1,36,41,43,-1,44,46,45,-1,45,46,47,-1,45,47,48,-1,49,50,43,-1,43,50,51,-1,43,51,42,-1,39,38,52,-1,52,38,53,-1,52,53,54,-1,54,53,55,-1,54,55,56,-1,56,55,57,-1,56,57,58,-1,58,57,59,-1,58,59,60,-1,60,59,61,-1,60,61,1,-1,1,61,3,-1,0,9,1,-1,1,9,8,-1,1,8,60,-1,22,41,21,-1,21,41,39,-1,15,56,13,-1,13,56,58,-1,60,8,58,-1,58,8,11,-1,58,11,13,-1,39,52,21,-1,21,52,54,-1,21,54,19,-1,19,54,56,-1,19,56,17,-1,17,56,15,-1,40,23,38,-1,38,23,20,-1,38,20,53,-1,53,20,55,-1,6,5,4,-1,55,20,57,-1,57,20,18,-1,57,18,16,-1,16,14,57,-1,57,14,12,-1,57,12,59,-1,59,12,10,-1,59,10,61,-1,61,10,6,-1,61,6,3,-1,3,6,4,-1,62,63,64,-1,64,63,65,-1,66,67,68,-1,68,67,69,-1,66,68,70,-1,66,70,71,-1,71,70,72,-1,71,72,73,-1,73,72,74,-1,73,74,75,-1,75,74,76,-1,75,76,77,-1,77,76,78,-1,77,78,79,-1,79,78,80,-1,79,80,81,-1,80,82,81,-1,81,82,83,-1,84,85,86,-1,86,85,87,-1,80,88,82,-1,82,88,85,-1,82,85,89,-1,89,85,84,-1,90,91,83,-1,83,91,92,-1,83,92,81,-1,90,93,91,-1,91,93,94,-1,91,94,95,-1,83,82,96,-1,96,82,97,-1,97,98,96,-1,96,98,99,-1,100,101,97,-1,97,101,102,-1,97,102,98,-1,100,103,101,-1,101,103,104,-1,101,104,105,-1,106,107,108,-1,108,107,109,-1,99,110,96,-1,96,110,107,-1,96,107,111,-1,111,107,106,-1,99,98,112,-1,112,98,113,-1,112,113,114,-1,114,113,115,-1,114,115,116,-1,116,115,117,-1,116,117,118,-1,118,117,119,-1,118,119,120,-1,120,119,121,-1,120,121,63,-1,63,121,65,-1,92,110,81,-1,81,110,99,-1,75,116,73,-1,73,116,118,-1,73,118,71,-1,71,118,66,-1,99,112,81,-1,81,112,114,-1,81,114,79,-1,79,114,116,-1,79,116,77,-1,77,116,75,-1,62,67,63,-1,63,67,66,-1,63,66,120,-1,120,66,118,-1,68,69,64,-1,102,88,98,-1,98,88,80,-1,64,65,68,-1,68,65,121,-1,68,121,70,-1,70,121,119,-1,70,119,72,-1,72,119,117,-1,72,117,74,-1,74,117,76,-1,76,117,78,-1,78,117,115,-1,78,115,80,-1,80,115,113,-1,80,113,98,-1,122,123,124,-1,124,123,125,-1,126,127,128,-1,128,127,129,-1,126,128,130,-1,126,130,131,-1,131,130,132,-1,131,132,133,-1,133,132,134,-1,133,134,135,-1,135,134,136,-1,135,136,137,-1,137,136,138,-1,137,138,139,-1,139,138,140,-1,139,140,141,-1,142,141,140,-1,143,144,145,-1,140,146,142,-1,142,146,147,-1,142,147,148,-1,146,149,147,-1,147,149,143,-1,147,143,150,-1,150,143,145,-1,151,152,153,-1,148,154,142,-1,142,154,151,-1,142,151,155,-1,155,151,153,-1,148,147,156,-1,156,147,157,-1,158,159,160,-1,160,159,161,-1,161,156,160,-1,160,156,157,-1,160,157,162,-1,163,164,165,-1,157,166,162,-1,162,166,167,-1,162,167,168,-1,168,167,169,-1,161,170,156,-1,156,170,163,-1,156,163,171,-1,171,163,165,-1,159,158,172,-1,172,158,173,-1,172,173,174,-1,174,173,175,-1,174,175,176,-1,176,175,177,-1,176,177,178,-1,178,177,179,-1,178,179,180,-1,180,179,181,-1,180,181,123,-1,123,181,125,-1,142,161,141,-1,141,161,159,-1,135,176,133,-1,133,176,178,-1,133,178,131,-1,131,178,126,-1,159,172,141,-1,141,172,174,-1,141,174,139,-1,139,174,176,-1,139,176,137,-1,137,176,135,-1,122,127,123,-1,123,127,126,-1,123,126,180,-1,180,126,178,-1,128,129,124,-1,160,146,158,-1,158,146,140,-1,124,125,128,-1,128,125,181,-1,128,181,130,-1,130,181,179,-1,130,179,132,-1,132,179,177,-1,132,177,134,-1,134,177,136,-1,136,177,138,-1,138,177,175,-1,138,175,140,-1,140,175,173,-1,140,173,158,-1,182,183,184,-1,184,183,185,-1,184,185,186,-1,187,188,189,-1,189,188,190,-1,189,190,191,-1,190,188,192,-1,190,192,193,-1,193,192,194,-1,193,194,195,-1,195,194,196,-1,195,196,197,-1,197,196,198,-1,197,198,199,-1,199,198,200,-1,199,200,201,-1,201,200,202,-1,201,202,203,-1,204,205,206,-1,206,205,207,-1,206,207,202,-1,202,207,203,-1,208,209,210,-1,208,210,206,-1,206,210,211,-1,206,211,204,-1,205,212,207,-1,207,212,213,-1,207,213,214,-1,214,215,207,-1,207,215,216,-1,207,216,217,-1,212,205,218,-1,218,205,219,-1,220,221,222,-1,222,221,223,-1,224,225,226,-1,227,228,223,-1,223,228,229,-1,223,229,230,-1,230,231,223,-1,223,231,218,-1,223,218,222,-1,222,218,219,-1,222,219,232,-1,232,219,224,-1,232,224,233,-1,233,224,226,-1,221,220,234,-1,234,220,235,-1,234,235,236,-1,236,235,237,-1,236,237,238,-1,238,237,239,-1,238,239,240,-1,240,239,241,-1,240,241,242,-1,242,241,243,-1,242,243,183,-1,183,243,185,-1,182,191,183,-1,183,191,190,-1,183,190,242,-1,207,223,203,-1,203,223,221,-1,197,238,195,-1,195,238,240,-1,242,190,240,-1,240,190,193,-1,240,193,195,-1,221,234,203,-1,203,234,236,-1,203,236,201,-1,201,236,238,-1,201,238,199,-1,199,238,197,-1,222,206,220,-1,220,206,202,-1,220,202,235,-1,235,202,237,-1,188,187,186,-1,237,202,239,-1,239,202,200,-1,239,200,198,-1,198,196,239,-1,239,196,194,-1,239,194,241,-1,241,194,192,-1,241,192,243,-1,243,192,188,-1,243,188,185,-1,185,188,186,-1,
        ]
    }
}
Shape{
    appearance Appearance {
        material  Material 	{
            diffuseColor 1.0 1.0 1.0
            specularColor 0.8784313725490196 0.8784313725490196 0.8784313725490196
            ambientIntensity 1.0
            transparency 0.0
            shininess 0.5
        }
    }
    geometry IndexedFaceSet {
        ccw TRUE
        solid FALSE
        coord DEF co Coordinate {
            point [
-0.1298500 -0.2952500 0.4495000, -0.1367500 -0.3346500 0.4281000, -0.1298500 -0.2952500 0.4167000, -0.1367500 -0.3346500 0.4158000, -0.1216500 -0.2952500 0.3849000, -0.1281500 -0.3346500 0.3823000, -0.1058500 -0.2952500 0.3562000, -0.1115500 -0.3346500 0.3521000, -0.0834500 -0.2952500 0.3322000, -0.0878500 -0.3346500 0.3269000, -0.0557500 -0.2952500 0.3147000, -0.0587500 -0.3346500 0.3084000, -0.0245500 -0.2952500 0.3045000, -0.0258500 -0.3346500 0.2977000, 0.0081500 -0.2952500 0.3025000, 0.0086500 -0.3346500 0.2955000, 0.0404500 -0.2952500 0.3086000, 0.0425500 -0.3346500 0.3020000, 0.0700500 -0.2952500 0.3226000, 0.0738500 -0.3346500 0.3167000, 0.0953500 -0.2952500 0.3435000, 0.1004500 -0.3346500 0.3387000, 0.1146500 -0.2952500 0.3700000, 0.1207500 -0.3346500 0.3667000, 0.1267500 -0.2952500 0.4005000, -0.1058500 -0.2952500 0.5100000, -0.1149500 -0.3346500 0.5078000, -0.1216500 -0.2952500 0.4812000, -0.1281500 -0.3346500 0.4838000, -0.1367500 -0.3346500 0.4503000, 0.1146500 -0.2952500 0.4961000, 0.1146500 -0.3346500 0.5078000, 0.0953500 -0.2952500 0.5226000, 0.1004500 -0.3346500 0.5274000, 0.0700500 -0.2952500 0.5436000, 0.0738500 -0.3346500 0.5494000, 0.0404500 -0.2952500 0.5575000, 0.0425500 -0.3346500 0.5641000, 0.0081500 -0.2952500 0.5637000, 0.0086500 -0.3346500 0.5706000, -0.0245500 -0.2952500 0.5616000, -0.0258500 -0.3346500 0.5684000, -0.0557500 -0.2952500 0.5515000, -0.0587500 -0.3346500 0.5578000, -0.0834500 -0.2952500 0.5339000, -0.0878500 -0.3346500 0.5392000, -0.1115500 -0.3346500 0.5141000, 0.1334500 -0.3346500 0.3988000, 0.1371500 -0.3346500 0.4281000, 0.1308500 -0.2952500 0.4331000, 0.1377500 -0.3346500 0.4331000, 0.1267500 -0.2952500 0.4656000, 0.1334500 -0.3346500 0.4673000, 0.1207500 -0.3346500 0.4995000, -0.0000500 -0.2952500 0.4331000
]
        }
        coordIndex [
            0,1,2,-1,2,1,3,-1,2,3,4,-1,4,3,5,-1,4,5,6,-1,6,5,7,-1,6,7,8,-1,8,7,9,-1,8,9,10,-1,10,9,11,-1,10,11,12,-1,12,11,13,-1,12,13,14,-1,14,13,15,-1,14,15,16,-1,16,15,17,-1,16,17,18,-1,18,17,19,-1,18,19,20,-1,20,19,21,-1,20,21,22,-1,22,21,23,-1,22,23,24,-1,25,26,27,-1,27,26,28,-1,27,28,0,-1,0,28,29,-1,0,29,1,-1,30,31,32,-1,32,31,33,-1,32,33,34,-1,34,33,35,-1,34,35,36,-1,36,35,37,-1,36,37,38,-1,38,37,39,-1,38,39,40,-1,40,39,41,-1,40,41,42,-1,42,41,43,-1,42,43,44,-1,44,43,45,-1,44,45,25,-1,25,45,46,-1,25,46,26,-1,23,47,24,-1,24,47,48,-1,24,48,49,-1,49,48,50,-1,49,50,51,-1,51,50,52,-1,51,52,30,-1,30,52,53,-1,30,53,31,-1,49,51,54,-1,20,22,54,-1,54,22,24,-1,54,24,49,-1,14,16,54,-1,54,16,18,-1,54,18,20,-1,8,10,54,-1,54,10,12,-1,54,12,14,-1,2,4,54,-1,54,4,6,-1,54,6,8,-1,25,27,54,-1,54,27,0,-1,54,0,2,-1,40,42,54,-1,54,42,44,-1,54,44,25,-1,34,36,54,-1,54,36,38,-1,54,38,40,-1,51,30,54,-1,54,30,32,-1,54,32,34,-1,
        ]
    }
}
Shape{
    appearance Appearance {
        material  Material 	{
            diffuseColor 0.7686274509803922 0.7686274509803922 0.7686274509803922
            specularColor 0.615686274509804 0.615686274509804 0.615686274509804
            ambientIntensity 0.7686
            transparency 0.0
            shininess 0.5
        }
    }
    geometry IndexedFaceSet {
        ccw TRUE
        solid FALSE
        coord DEF co Coordinate {
            point [
-0.5827500 -0.2874500 0.1772000, -0.5827500 -0.3346500 0.1772000, -0.5820500 -0.3346500 0.1823000, -0.5820500 -0.2874500 0.1823000, -0.5800500 -0.3346500 0.1870000, -0.5800500 -0.2874500 0.1870000, -0.5769500 -0.3346500 0.1911000, -0.5769500 -0.2874500 0.1911000, -0.5728500 -0.3346500 0.1942000, -0.5728500 -0.2874500 0.1942000, -0.5681500 -0.3346500 0.1962000, -0.5681500 -0.2874500 0.1962000, -0.5630500 -0.3346500 0.1969000, -0.5630500 -0.2874500 0.1969000, -0.4212500 -0.3346500 0.1772000, -0.4212500 -0.2874500 0.1772000, -0.4219500 -0.2874500 0.1823000, -0.4219500 -0.3346500 0.1823000, -0.4239500 -0.2874500 0.1870000, -0.4239500 -0.3346500 0.1870000, -0.4270500 -0.2874500 0.1911000, -0.4270500 -0.3346500 0.1911000, -0.4311500 -0.2874500 0.1942000, -0.4311500 -0.3346500 0.1942000, -0.4358500 -0.2874500 0.1962000, -0.4358500 -0.3346500 0.1962000, -0.4409500 -0.2874500 0.1969000, -0.4409500 -0.3346500 0.1969000, -0.2480500 -0.2874500 0.1772000, -0.2480500 -0.3346500 0.1772000, -0.2473500 -0.3346500 0.1823000, -0.2473500 -0.2874500 0.1823000, -0.2454500 -0.3346500 0.1870000, -0.2454500 -0.2874500 0.1870000, -0.2422500 -0.3346500 0.1911000, -0.2422500 -0.2874500 0.1911000, -0.2382500 -0.3346500 0.1942000, -0.2382500 -0.2874500 0.1942000, -0.2334500 -0.3346500 0.1962000, -0.2334500 -0.2874500 0.1962000, -0.2283500 -0.3346500 0.1969000, -0.2283500 -0.2874500 0.1969000, -0.0866500 -0.3346500 0.1772000, -0.0866500 -0.2874500 0.1772000, -0.0873500 -0.2874500 0.1823000, -0.0873500 -0.3346500 0.1823000, -0.0892500 -0.2874500 0.1870000, -0.0892500 -0.3346500 0.1870000, -0.0924500 -0.2874500 0.1911000, -0.0924500 -0.3346500 0.1911000, -0.0964500 -0.2874500 0.1942000, -0.0964500 -0.3346500 0.1942000, -0.1012500 -0.2874500 0.1962000, -0.1012500 -0.3346500 0.1962000, -0.1063500 -0.2874500 0.1969000, -0.1063500 -0.3346500 0.1969000, 0.0865500 -0.2874500 0.1772000, 0.0865500 -0.3346500 0.1772000, 0.0872500 -0.3346500 0.1823000, 0.0872500 -0.2874500 0.1823000, 0.0892500 -0.3346500 0.1870000, 0.0892500 -0.2874500 0.1870000, 0.0923500 -0.3346500 0.1911000, 0.0923500 -0.2874500 0.1911000, 0.0964500 -0.3346500 0.1942000, 0.0964500 -0.2874500 0.1942000, 0.1011500 -0.3346500 0.1962000, 0.1011500 -0.2874500 0.1962000, 0.1062500 -0.3346500 0.1969000, 0.1062500 -0.2874500 0.1969000, 0.2480500 -0.3346500 0.1772000, 0.2480500 -0.2874500 0.1772000, 0.2473500 -0.2874500 0.1823000, 0.2473500 -0.3346500 0.1823000, 0.2453500 -0.2874500 0.1870000, 0.2453500 -0.3346500 0.1870000, 0.2422500 -0.2874500 0.1911000, 0.2422500 -0.3346500 0.1911000, 0.2381500 -0.2874500 0.1942000, 0.2381500 -0.3346500 0.1942000, 0.2334500 -0.2874500 0.1962000, 0.2334500 -0.3346500 0.1962000, 0.2283500 -0.2874500 0.1969000, 0.2283500 -0.3346500 0.1969000, 0.4212500 -0.2874500 0.1772000, 0.4212500 -0.3346500 0.1772000, 0.4219500 -0.3346500 0.1823000, 0.4219500 -0.2874500 0.1823000, 0.4238500 -0.3346500 0.1870000, 0.4238500 -0.2874500 0.1870000, 0.4269500 -0.3346500 0.1911000, 0.4269500 -0.2874500 0.1911000, 0.4310500 -0.3346500 0.1942000, 0.4310500 -0.2874500 0.1942000, 0.4358500 -0.3346500 0.1962000, 0.4358500 -0.2874500 0.1962000, 0.4409500 -0.3346500 0.1969000, 0.4409500 -0.2874500 0.1969000, 0.5826500 -0.3346500 0.1772000, 0.5826500 -0.2874500 0.1772000, 0.5819500 -0.2874500 0.1823000, 0.5819500 -0.3346500 0.1823000, 0.5800500 -0.2874500 0.1870000, 0.5800500 -0.3346500 0.1870000, 0.5768500 -0.2874500 0.1911000, 0.5768500 -0.3346500 0.1911000, 0.5728500 -0.2874500 0.1942000, 0.5728500 -0.3346500 0.1942000, 0.5680500 -0.2874500 0.1962000, 0.5680500 -0.3346500 0.1962000, 0.5629500 -0.2874500 0.1969000, 0.5629500 -0.3346500 0.1969000
]
        }
        coordIndex [
            0,1,2,-1,0,2,3,-1,3,2,4,-1,3,4,5,-1,5,4,6,-1,5,6,7,-1,7,6,8,-1,7,8,9,-1,9,8,10,-1,9,10,11,-1,11,10,12,-1,11,12,13,-1,14,15,16,-1,14,16,17,-1,17,16,18,-1,17,18,19,-1,19,18,20,-1,19,20,21,-1,21,20,22,-1,21,22,23,-1,23,22,24,-1,23,24,25,-1,25,24,26,-1,25,26,27,-1,28,29,30,-1,28,30,31,-1,31,30,32,-1,31,32,33,-1,33,32,34,-1,33,34,35,-1,35,34,36,-1,35,36,37,-1,37,36,38,-1,37,38,39,-1,39,38,40,-1,39,40,41,-1,42,43,44,-1,42,44,45,-1,45,44,46,-1,45,46,47,-1,47,46,48,-1,47,48,49,-1,49,48,50,-1,49,50,51,-1,51,50,52,-1,51,52,53,-1,53,52,54,-1,53,54,55,-1,56,57,58,-1,56,58,59,-1,59,58,60,-1,59,60,61,-1,61,60,62,-1,61,62,63,-1,63,62,64,-1,63,64,65,-1,65,64,66,-1,65,66,67,-1,67,66,68,-1,67,68,69,-1,70,71,72,-1,70,72,73,-1,73,72,74,-1,73,74,75,-1,75,74,76,-1,75,76,77,-1,77,76,78,-1,77,78,79,-1,79,78,80,-1,79,80,81,-1,81,80,82,-1,81,82,83,-1,84,85,86,-1,84,86,87,-1,87,86,88,-1,87,88,89,-1,89,88,90,-1,89,90,91,-1,91,90,92,-1,91,92,93,-1,93,92,94,-1,93,94,95,-1,95,94,96,-1,95,96,97,-1,98,99,100,-1,98,100,101,-1,101,100,102,-1,101,102,103,-1,103,102,104,-1,103,104,105,-1,105,104,106,-1,105,106,107,-1,107,106,108,-1,107,108,109,-1,109,108,110,-1,109,110,111,-1,
        ]
    }
}