0
SECTION
2
HEADER
9
$INSUNITS
70
4
9
$ACADVER
1
AC1014
9
$HANDSEED
5
FFFF
0
ENDSEC
0
SECTION
2
TABLES
0
TABLE
2
VPORT
5
8
100
AcDbSymbolTable
0
ENDTAB
0
TABLE
2
LTYPE
5
5
100
AcDbSymbolTable
0
LTYPE
5
14
100
AcDbSymbolTableRecord
100
AcDbLinetypeTableRecord
2
BYBLOCK
70
0
0
LTYPE
5
15
100
AcDbSymbolTableRecord
100
AcDbLinetypeTableRecord
2
BYLAYER
70
0
0
LTYPE
5
16
100
AcDbSymbolTableRecord
100
AcDbLinetypeTableRecord
2
DASHED
70
0
3
Dashed __ __ __ __ __ __ __ __ __ __ __ __ __ _
72
65
73
2
40
0.75
49
0.5
74
0
49
-0.25
74
0
0
ENDTAB
0
TABLE
2
LAYER
5
2
100
AcDbSymbolTable
70
2
0
LAYER
5
50
100
AcDbSymbolTableRecord
100
AcDbLayerTableRecord
2
0
70
0
62
7
6
CONTINUOUS
0
ENDTAB
0
TABLE
2
STYLE
5
3
100
AcDbSymbolTable
70
1
0
STYLE
5
11
100
AcDbSymbolTableRecord
100
AcDbTextStyleTableRecord
2
STANDARD
70
0
0
ENDTAB
0
TABLE
2
VIEW
5
6
100
AcDbSymbolTable
70
0
0
ENDTAB
0
TABLE
2
UCS
5
7
100
AcDbSymbolTable
70
0
0
ENDTAB
0
TABLE
2
APPID
5
9
100
AcDbSymbolTable
70
2
0
APPID
5
12
100
AcDbSymbolTableRecord
100
AcDbRegAppTableRecord
2
ACAD
70
0
0
ENDTAB
0
TABLE
2
DIMSTYLE
5
A
100
AcDbSymbolTable
70
1
0
ENDTAB
0
TABLE
2
BLOCK_RECORD
5
1
100
AcDbSymbolTable
70
1
0
BLOCK_RECORD
5
1F
100
AcDbSymbolTableRecord
100
AcDbBlockTableRecord
2
*MODEL_SPACE
0
BLOCK_RECORD
5
1B
100
AcDbSymbolTableRecord
100
AcDbBlockTableRecord
2
*PAPER_SPACE
0
ENDTAB
0
ENDSEC
0
SECTION
2
BLOCKS
0
BLOCK
5
20
100
AcDbEntity
100
AcDbBlockBegin
2
*MODEL_SPACE
0
ENDBLK
5
21
100
AcDbEntity
100
AcDbBlockEnd
0
BLOCK
5
1C
100
AcDbEntity
100
AcDbBlockBegin
2
*PAPER_SPACE
0
ENDBLK
5
1D
100
AcDbEntity
100
AcDbBlockEnd
0
ENDSEC
0
SECTION
2
ENTITIES
0
LWPOLYLINE
5
100
100
AcDbEntity
8
0
100
AcDbPolyline
90
4
70
1
43
0.0
10
-16
20
-32.75
10
16
20
-32.75
10
15.999999999999988
20
32.750000000000007
10
-16
20
32.750000000000014
0
CIRCLE
5
101
100
AcDbEntity
8
0
100
AcDbCircle
10
13.999999999999986
20
-30.749999999999996
30
0
40
1.0000000000000009
210
0
220
-0
230
1
0
CIRCLE
5
102
100
AcDbEntity
8
0
100
AcDbCircle
10
-13.999999999999986
20
-30.749999999999996
30
0
40
1.0000000000000009
210
0
220
-0
230
1
0
CIRCLE
5
103
100
AcDbEntity
8
0
100
AcDbCircle
10
13.999999999999986
20
30.749999999999996
30
0
40
1.0000000000000009
210
0
220
-0
230
1
0
CIRCLE
5
104
100
AcDbEntity
8
0
100
AcDbCircle
10
-13.999999999999986
20
30.749999999999996
30
0
40
1.0000000000000009
210
0
220
-0
230
1
0
CIRCLE
5
105
100
AcDbEntity
8
0
100
AcDbCircle
10
14.489999999999995
20
6.2400000000000055
30
0
40
0.50999999999999934
210
0
220
0
230
1
0
CIRCLE
5
106
100
AcDbEntity
8
0
100
AcDbCircle
10
14.489999999999995
20
3.7000000000000064
30
0
40
0.50999999999999934
210
0
220
0
230
1
0
CIRCLE
5
107
100
AcDbEntity
8
0
100
AcDbCircle
10
14.489999999999995
20
1.1600000000000064
30
0
40
0.50999999999999934
210
0
220
0
230
1
0
CIRCLE
5
108
100
AcDbEntity
8
0
100
AcDbCircle
10
14.489999999999995
20
1.1600000000000064
30
0
40
0.50999999999999934
210
0
220
0
230
1
0
CIRCLE
5
109
100
AcDbEntity
8
0
100
AcDbCircle
10
14.489999999999995
20
3.7000000000000064
30
0
40
0.50999999999999934
210
0
220
0
230
1
0
CIRCLE
5
110
100
AcDbEntity
8
0
100
AcDbCircle
10
14.489999999999995
20
6.2400000000000055
30
0
40
0.50999999999999934
210
0
220
0
230
1
0
CIRCLE
5
111
100
AcDbEntity
8
0
100
AcDbCircle
10
13.999999999999986
20
-30.749999999999996
30
0
40
1.0000000000000009
210
0
220
-0
230
1
0
CIRCLE
5
112
100
AcDbEntity
8
0
100
AcDbCircle
10
-13.999999999999986
20
-30.749999999999996
30
0
40
1.0000000000000009
210
0
220
-0
230
1
0
CIRCLE
5
113
100
AcDbEntity
8
0
100
AcDbCircle
10
13.999999999999986
20
30.749999999999996
30
0
40
1.0000000000000009
210
0
220
-0
230
1
0
CIRCLE
5
114
100
AcDbEntity
8
0
100
AcDbCircle
10
-13.999999999999986
20
30.749999999999996
30
0
40
1.0000000000000009
210
0
220
-0
230
1
0
LWPOLYLINE
5
115
100
AcDbEntity
8
0
100
AcDbPolyline
90
4
70
1
43
0.0
10
-16
20
-32.749999999999993
10
-16
20
32.750000000000014
10
15.999999999999988
20
32.750000000000007
10
16
20
-32.75
0
CIRCLE
5
116
100
AcDbEntity
8
0
100
AcDbCircle
10
-10.800000000000001
20
3.5500000000000007
30
0
40
4
210
0
220
0
230
1
0
LWPOLYLINE
5
117
100
AcDbEntity
8
0
100
AcDbPolyline
90
4
70
1
43
0.0
10
-13.75
20
-19.599999999999998
10
-13.75
20
-2.5999999999999956
10
3.2500000000000018
20
-2.5999999999999956
10
3.2500000000000018
20
-19.599999999999998
0
LWPOLYLINE
5
118
100
AcDbEntity
8
0
100
AcDbPolyline
90
4
70
1
43
0.0
10
-5.0600000000014003
20
-33.350000000000001
10
-5.0600000000014003
20
-20.349999999999994
10
5.0599999999985998
20
-20.350000000007171
10
5.0599999999986034
20
-33.350000000000001
0
CIRCLE
5
119
100
AcDbEntity
8
0
100
AcDbCircle
10
10.099999999999998
20
-18.249999999999996
30
0
40
3.9999999999999991
210
0
220
0
230
1
0
LWPOLYLINE
5
120
100
AcDbEntity
8
0
100
AcDbPolyline
90
8
70
1
43
0.0
10
-2.8750000000000191
20
34.20000000000001
10
-4.400000000000019
20
34.20000000000001
10
-4.400000000000019
20
26.900000000000009
10
-2.8750000000000195
20
26.900000000000009
10
2.874999999999984
20
26.900000000000009
10
4.3999999999999844
20
26.900000000000009
10
4.3999999999999844
20
34.20000000000001
10
2.8749999999999849
20
34.20000000000001
0
CIRCLE
5
121
100
AcDbEntity
8
0
100
AcDbCircle
10
-14.389999999999997
20
-26.939999999999998
30
0
40
0.51000000000000156
210
0
220
0
230
1
0
CIRCLE
5
122
100
AcDbEntity
8
0
100
AcDbCircle
10
14.389999999999997
20
-26.939999999999998
30
0
40
0.51000000000000156
210
0
220
0
230
1
0
CIRCLE
5
123
100
AcDbEntity
8
0
100
AcDbCircle
10
-14.389999999999997
20
-24.399999999999999
30
0
40
0.51000000000000156
210
0
220
0
230
1
0
CIRCLE
5
124
100
AcDbEntity
8
0
100
AcDbCircle
10
14.389999999999997
20
-24.399999999999999
30
0
40
0.51000000000000156
210
0
220
0
230
1
0
CIRCLE
5
125
100
AcDbEntity
8
0
100
AcDbCircle
10
14.389999999999997
20
-24.399999999999999
30
0
40
0.51000000000000156
210
0
220
0
230
1
0
CIRCLE
5
126
100
AcDbEntity
8
0
100
AcDbCircle
10
-14.389999999999997
20
-24.399999999999999
30
0
40
0.51000000000000156
210
0
220
0
230
1
0
CIRCLE
5
127
100
AcDbEntity
8
0
100
AcDbCircle
10
14.389999999999997
20
-26.939999999999998
30
0
40
0.51000000000000156
210
0
220
0
230
1
0
CIRCLE
5
128
100
AcDbEntity
8
0
100
AcDbCircle
10
-14.389999999999997
20
-26.939999999999998
30
0
40
0.51000000000000156
210
0
220
0
230
1
0
LWPOLYLINE
5
129
100
AcDbEntity
8
0
100
AcDbPolyline
90
4
70
1
43
0.0
10
12.139999999999995
20
12.20000000000001
10
12.139999999999995
20
-12.649999999999991
10
-12.710000000000012
20
-12.649999999999991
10
-12.710000000000012
20
12.20000000000001
0
ENDSEC
0
SECTION
2
OBJECTS
0
DICTIONARY
5
C
100
AcDbDictionary
3
ACAD_GROUP
350
D
3
ACAD_MLINESTYLE
350
17
0
DICTIONARY
5
D
100
AcDbDictionary
0
DICTIONARY
5
1A
330
C
100
AcDbDictionary
0
DICTIONARY
5
17
100
AcDbDictionary
0
ENDSEC
0
EOF
