ISO-10303-21;
HEADER;
/* Generated by software containing ST-Developer
 * from STEP Tools, Inc. (www.steptools.com) 
 */

FILE_DESCRIPTION(
/* description */ (''),
/* implementation_level */ '2;1');

FILE_NAME(
/* name */ 'SW3538_140W_Module.step',
/* time_stamp */ '2026-07-05T07:15:55-07:00',
/* author */ (''),
/* organization */ (''),
/* preprocessor_version */ 'ST-DEVELOPER v20.1',
/* originating_system */ 'Autodesk Translation Framework v15.8.0.0',
/* authorisation */ '');

FILE_SCHEMA (('AUTOMOTIVE_DESIGN { 1 0 10303 214 3 1 1 }'));
ENDSEC;

DATA;
#10=MECHANICAL_DESIGN_GEOMETRIC_PRESENTATION_REPRESENTATION('',(#90,#91,
#92,#93,#94,#95,#96),#1296);
#11=ITEM_DEFINED_TRANSFORMATION($,$,#792,#862);
#12=ITEM_DEFINED_TRANSFORMATION($,$,#799,#863);
#13=ITEM_DEFINED_TRANSFORMATION($,$,#810,#864);
#14=ITEM_DEFINED_TRANSFORMATION($,$,#817,#865);
#15=ITEM_DEFINED_TRANSFORMATION($,$,#828,#866);
#16=(
REPRESENTATION_RELATIONSHIP($,$,#1319,#1318)
REPRESENTATION_RELATIONSHIP_WITH_TRANSFORMATION(#11)
SHAPE_REPRESENTATION_RELATIONSHIP()
);
#17=(
REPRESENTATION_RELATIONSHIP($,$,#1320,#1318)
REPRESENTATION_RELATIONSHIP_WITH_TRANSFORMATION(#12)
SHAPE_REPRESENTATION_RELATIONSHIP()
);
#18=(
REPRESENTATION_RELATIONSHIP($,$,#1321,#1318)
REPRESENTATION_RELATIONSHIP_WITH_TRANSFORMATION(#13)
SHAPE_REPRESENTATION_RELATIONSHIP()
);
#19=(
REPRESENTATION_RELATIONSHIP($,$,#1322,#1318)
REPRESENTATION_RELATIONSHIP_WITH_TRANSFORMATION(#14)
SHAPE_REPRESENTATION_RELATIONSHIP()
);
#20=(
REPRESENTATION_RELATIONSHIP($,$,#1323,#1318)
REPRESENTATION_RELATIONSHIP_WITH_TRANSFORMATION(#15)
SHAPE_REPRESENTATION_RELATIONSHIP()
);
#21=CONTEXT_DEPENDENT_SHAPE_REPRESENTATION(#16,#1313);
#22=CONTEXT_DEPENDENT_SHAPE_REPRESENTATION(#17,#1314);
#23=CONTEXT_DEPENDENT_SHAPE_REPRESENTATION(#18,#1315);
#24=CONTEXT_DEPENDENT_SHAPE_REPRESENTATION(#19,#1316);
#25=CONTEXT_DEPENDENT_SHAPE_REPRESENTATION(#20,#1317);
#26=NEXT_ASSEMBLY_USAGE_OCCURRENCE('dc-jack:1','dc-jack:1','dc-jack:1',
#1325,#1326,'dc-jack:1');
#27=NEXT_ASSEMBLY_USAGE_OCCURRENCE('caps:1','caps:1','caps:1',#1325,#1327,
'caps:1');
#28=NEXT_ASSEMBLY_USAGE_OCCURRENCE('inductor:1','inductor:1',
'inductor:1',#1325,#1328,'inductor:1');
#29=NEXT_ASSEMBLY_USAGE_OCCURRENCE('usb-c:1','usb-c:1','usb-c:1',#1325,
#1329,'usb-c:1');
#30=NEXT_ASSEMBLY_USAGE_OCCURRENCE('heat-sinks:1','heat-sinks:1',
'heat-sinks:1',#1325,#1330,'heat-sinks:1');
#31=FACE_BOUND('',#189,.T.);
#32=FACE_BOUND('',#190,.T.);
#33=FACE_BOUND('',#191,.T.);
#34=FACE_BOUND('',#192,.T.);
#35=FACE_BOUND('',#193,.T.);
#36=FACE_BOUND('',#194,.T.);
#37=FACE_BOUND('',#195,.T.);
#38=FACE_BOUND('',#197,.T.);
#39=FACE_BOUND('',#198,.T.);
#40=FACE_BOUND('',#199,.T.);
#41=FACE_BOUND('',#200,.T.);
#42=FACE_BOUND('',#201,.T.);
#43=FACE_BOUND('',#202,.T.);
#44=FACE_BOUND('',#203,.T.);
#45=CIRCLE('',#801,4.);
#46=CIRCLE('',#802,4.);
#47=CIRCLE('',#806,4.);
#48=CIRCLE('',#807,4.);
#49=CIRCLE('',#819,1.525);
#50=CIRCLE('',#820,1.525);
#51=CIRCLE('',#822,1.525);
#52=CIRCLE('',#823,1.525);
#53=CIRCLE('',#836,0.5);
#54=CIRCLE('',#837,0.5);
#55=CIRCLE('',#839,0.5);
#56=CIRCLE('',#840,0.5);
#57=CIRCLE('',#842,0.5);
#58=CIRCLE('',#843,0.5);
#59=CIRCLE('',#845,1.);
#60=CIRCLE('',#846,1.);
#61=CIRCLE('',#848,1.);
#62=CIRCLE('',#849,1.);
#63=CIRCLE('',#851,1.);
#64=CIRCLE('',#852,1.);
#65=CIRCLE('',#854,1.);
#66=CIRCLE('',#855,1.);
#67=CYLINDRICAL_SURFACE('',#800,4.);
#68=CYLINDRICAL_SURFACE('',#805,4.);
#69=CYLINDRICAL_SURFACE('',#818,1.525);
#70=CYLINDRICAL_SURFACE('',#821,1.525);
#71=CYLINDRICAL_SURFACE('',#835,0.5);
#72=CYLINDRICAL_SURFACE('',#838,0.5);
#73=CYLINDRICAL_SURFACE('',#841,0.5);
#74=CYLINDRICAL_SURFACE('',#844,1.);
#75=CYLINDRICAL_SURFACE('',#847,1.);
#76=CYLINDRICAL_SURFACE('',#850,1.);
#77=CYLINDRICAL_SURFACE('',#853,1.);
#78=SHAPE_REPRESENTATION_RELATIONSHIP('SRR','None',#1319,#84);
#79=SHAPE_REPRESENTATION_RELATIONSHIP('SRR','None',#1320,#85);
#80=SHAPE_REPRESENTATION_RELATIONSHIP('SRR','None',#1321,#86);
#81=SHAPE_REPRESENTATION_RELATIONSHIP('SRR','None',#1322,#87);
#82=SHAPE_REPRESENTATION_RELATIONSHIP('SRR','None',#1323,#88);
#83=SHAPE_REPRESENTATION_RELATIONSHIP('SRR','None',#1318,#89);
#84=ADVANCED_BREP_SHAPE_REPRESENTATION('',(#97),#1291);
#85=ADVANCED_BREP_SHAPE_REPRESENTATION('',(#98,#99),#1292);
#86=ADVANCED_BREP_SHAPE_REPRESENTATION('',(#100),#1293);
#87=ADVANCED_BREP_SHAPE_REPRESENTATION('',(#101),#1294);
#88=ADVANCED_BREP_SHAPE_REPRESENTATION('',(#102),#1295);
#89=ADVANCED_BREP_SHAPE_REPRESENTATION('',(#103),#1290);
#90=STYLED_ITEM('',(#1352),#97);
#91=STYLED_ITEM('',(#1352),#98);
#92=STYLED_ITEM('',(#1352),#99);
#93=STYLED_ITEM('',(#1352),#100);
#94=STYLED_ITEM('',(#1352),#101);
#95=STYLED_ITEM('',(#1352),#102);
#96=STYLED_ITEM('',(#1353),#103);
#97=MANIFOLD_SOLID_BREP('Body1',#728);
#98=MANIFOLD_SOLID_BREP('Body1',#729);
#99=MANIFOLD_SOLID_BREP('Body2',#730);
#100=MANIFOLD_SOLID_BREP('Body1',#731);
#101=MANIFOLD_SOLID_BREP('Body1',#732);
#102=MANIFOLD_SOLID_BREP('Body1',#733);
#103=MANIFOLD_SOLID_BREP('Body1',#734);
#104=FACE_OUTER_BOUND('',#147,.T.);
#105=FACE_OUTER_BOUND('',#148,.T.);
#106=FACE_OUTER_BOUND('',#149,.T.);
#107=FACE_OUTER_BOUND('',#150,.T.);
#108=FACE_OUTER_BOUND('',#151,.T.);
#109=FACE_OUTER_BOUND('',#152,.T.);
#110=FACE_OUTER_BOUND('',#153,.T.);
#111=FACE_OUTER_BOUND('',#154,.T.);
#112=FACE_OUTER_BOUND('',#155,.T.);
#113=FACE_OUTER_BOUND('',#156,.T.);
#114=FACE_OUTER_BOUND('',#157,.T.);
#115=FACE_OUTER_BOUND('',#158,.T.);
#116=FACE_OUTER_BOUND('',#159,.T.);
#117=FACE_OUTER_BOUND('',#160,.T.);
#118=FACE_OUTER_BOUND('',#161,.T.);
#119=FACE_OUTER_BOUND('',#162,.T.);
#120=FACE_OUTER_BOUND('',#163,.T.);
#121=FACE_OUTER_BOUND('',#164,.T.);
#122=FACE_OUTER_BOUND('',#165,.T.);
#123=FACE_OUTER_BOUND('',#166,.T.);
#124=FACE_OUTER_BOUND('',#167,.T.);
#125=FACE_OUTER_BOUND('',#168,.T.);
#126=FACE_OUTER_BOUND('',#169,.T.);
#127=FACE_OUTER_BOUND('',#170,.T.);
#128=FACE_OUTER_BOUND('',#171,.T.);
#129=FACE_OUTER_BOUND('',#172,.T.);
#130=FACE_OUTER_BOUND('',#173,.T.);
#131=FACE_OUTER_BOUND('',#174,.T.);
#132=FACE_OUTER_BOUND('',#175,.T.);
#133=FACE_OUTER_BOUND('',#176,.T.);
#134=FACE_OUTER_BOUND('',#177,.T.);
#135=FACE_OUTER_BOUND('',#178,.T.);
#136=FACE_OUTER_BOUND('',#179,.T.);
#137=FACE_OUTER_BOUND('',#180,.T.);
#138=FACE_OUTER_BOUND('',#181,.T.);
#139=FACE_OUTER_BOUND('',#182,.T.);
#140=FACE_OUTER_BOUND('',#183,.T.);
#141=FACE_OUTER_BOUND('',#184,.T.);
#142=FACE_OUTER_BOUND('',#185,.T.);
#143=FACE_OUTER_BOUND('',#186,.T.);
#144=FACE_OUTER_BOUND('',#187,.T.);
#145=FACE_OUTER_BOUND('',#188,.T.);
#146=FACE_OUTER_BOUND('',#196,.T.);
#147=EDGE_LOOP('',(#479,#480,#481,#482));
#148=EDGE_LOOP('',(#483,#484,#485,#486));
#149=EDGE_LOOP('',(#487,#488,#489,#490));
#150=EDGE_LOOP('',(#491,#492,#493,#494));
#151=EDGE_LOOP('',(#495,#496,#497,#498));
#152=EDGE_LOOP('',(#499,#500,#501,#502));
#153=EDGE_LOOP('',(#503,#504,#505,#506));
#154=EDGE_LOOP('',(#507));
#155=EDGE_LOOP('',(#508));
#156=EDGE_LOOP('',(#509,#510,#511,#512));
#157=EDGE_LOOP('',(#513));
#158=EDGE_LOOP('',(#514));
#159=EDGE_LOOP('',(#515,#516,#517,#518));
#160=EDGE_LOOP('',(#519,#520,#521,#522));
#161=EDGE_LOOP('',(#523,#524,#525,#526));
#162=EDGE_LOOP('',(#527,#528,#529,#530));
#163=EDGE_LOOP('',(#531,#532,#533,#534));
#164=EDGE_LOOP('',(#535,#536,#537,#538));
#165=EDGE_LOOP('',(#539,#540,#541,#542));
#166=EDGE_LOOP('',(#543,#544,#545,#546));
#167=EDGE_LOOP('',(#547,#548,#549,#550));
#168=EDGE_LOOP('',(#551,#552,#553,#554));
#169=EDGE_LOOP('',(#555,#556,#557,#558));
#170=EDGE_LOOP('',(#559,#560,#561,#562));
#171=EDGE_LOOP('',(#563,#564,#565,#566));
#172=EDGE_LOOP('',(#567,#568,#569,#570));
#173=EDGE_LOOP('',(#571,#572,#573,#574));
#174=EDGE_LOOP('',(#575,#576,#577,#578));
#175=EDGE_LOOP('',(#579,#580,#581,#582));
#176=EDGE_LOOP('',(#583,#584,#585,#586));
#177=EDGE_LOOP('',(#587,#588,#589,#590));
#178=EDGE_LOOP('',(#591,#592,#593,#594));
#179=EDGE_LOOP('',(#595,#596,#597,#598));
#180=EDGE_LOOP('',(#599,#600,#601,#602));
#181=EDGE_LOOP('',(#603,#604,#605,#606));
#182=EDGE_LOOP('',(#607,#608,#609,#610));
#183=EDGE_LOOP('',(#611,#612,#613,#614));
#184=EDGE_LOOP('',(#615,#616,#617,#618));
#185=EDGE_LOOP('',(#619,#620,#621,#622));
#186=EDGE_LOOP('',(#623,#624,#625,#626));
#187=EDGE_LOOP('',(#627,#628,#629,#630));
#188=EDGE_LOOP('',(#631,#632,#633,#634));
#189=EDGE_LOOP('',(#635));
#190=EDGE_LOOP('',(#636));
#191=EDGE_LOOP('',(#637));
#192=EDGE_LOOP('',(#638));
#193=EDGE_LOOP('',(#639));
#194=EDGE_LOOP('',(#640));
#195=EDGE_LOOP('',(#641));
#196=EDGE_LOOP('',(#642,#643,#644,#645));
#197=EDGE_LOOP('',(#646));
#198=EDGE_LOOP('',(#647));
#199=EDGE_LOOP('',(#648));
#200=EDGE_LOOP('',(#649));
#201=EDGE_LOOP('',(#650));
#202=EDGE_LOOP('',(#651));
#203=EDGE_LOOP('',(#652));
#204=LINE('',#1089,#269);
#205=LINE('',#1091,#270);
#206=LINE('',#1093,#271);
#207=LINE('',#1094,#272);
#208=LINE('',#1097,#273);
#209=LINE('',#1099,#274);
#210=LINE('',#1100,#275);
#211=LINE('',#1103,#276);
#212=LINE('',#1105,#277);
#213=LINE('',#1106,#278);
#214=LINE('',#1108,#279);
#215=LINE('',#1109,#280);
#216=LINE('',#1117,#281);
#217=LINE('',#1125,#282);
#218=LINE('',#1133,#283);
#219=LINE('',#1135,#284);
#220=LINE('',#1137,#285);
#221=LINE('',#1138,#286);
#222=LINE('',#1141,#287);
#223=LINE('',#1143,#288);
#224=LINE('',#1144,#289);
#225=LINE('',#1147,#290);
#226=LINE('',#1149,#291);
#227=LINE('',#1150,#292);
#228=LINE('',#1152,#293);
#229=LINE('',#1153,#294);
#230=LINE('',#1162,#295);
#231=LINE('',#1165,#296);
#232=LINE('',#1171,#297);
#233=LINE('',#1174,#298);
#234=LINE('',#1176,#299);
#235=LINE('',#1177,#300);
#236=LINE('',#1179,#301);
#237=LINE('',#1181,#302);
#238=LINE('',#1187,#303);
#239=LINE('',#1189,#304);
#240=LINE('',#1191,#305);
#241=LINE('',#1192,#306);
#242=LINE('',#1195,#307);
#243=LINE('',#1197,#308);
#244=LINE('',#1198,#309);
#245=LINE('',#1201,#310);
#246=LINE('',#1203,#311);
#247=LINE('',#1204,#312);
#248=LINE('',#1206,#313);
#249=LINE('',#1207,#314);
#250=LINE('',#1214,#315);
#251=LINE('',#1220,#316);
#252=LINE('',#1226,#317);
#253=LINE('',#1232,#318);
#254=LINE('',#1238,#319);
#255=LINE('',#1244,#320);
#256=LINE('',#1250,#321);
#257=LINE('',#1255,#322);
#258=LINE('',#1257,#323);
#259=LINE('',#1259,#324);
#260=LINE('',#1260,#325);
#261=LINE('',#1263,#326);
#262=LINE('',#1265,#327);
#263=LINE('',#1266,#328);
#264=LINE('',#1269,#329);
#265=LINE('',#1271,#330);
#266=LINE('',#1272,#331);
#267=LINE('',#1274,#332);
#268=LINE('',#1275,#333);
#269=VECTOR('',#873,10.);
#270=VECTOR('',#874,10.);
#271=VECTOR('',#875,10.);
#272=VECTOR('',#876,10.);
#273=VECTOR('',#879,10.);
#274=VECTOR('',#880,10.);
#275=VECTOR('',#881,10.);
#276=VECTOR('',#884,10.);
#277=VECTOR('',#885,10.);
#278=VECTOR('',#886,10.);
#279=VECTOR('',#889,10.);
#280=VECTOR('',#890,10.);
#281=VECTOR('',#901,4.);
#282=VECTOR('',#912,4.);
#283=VECTOR('',#923,10.);
#284=VECTOR('',#924,10.);
#285=VECTOR('',#925,10.);
#286=VECTOR('',#926,10.);
#287=VECTOR('',#929,10.);
#288=VECTOR('',#930,10.);
#289=VECTOR('',#931,10.);
#290=VECTOR('',#934,10.);
#291=VECTOR('',#935,10.);
#292=VECTOR('',#936,10.);
#293=VECTOR('',#939,10.);
#294=VECTOR('',#940,10.);
#295=VECTOR('',#951,10.);
#296=VECTOR('',#954,10.);
#297=VECTOR('',#959,10.);
#298=VECTOR('',#962,10.);
#299=VECTOR('',#965,10.);
#300=VECTOR('',#966,10.);
#301=VECTOR('',#969,10.);
#302=VECTOR('',#972,10.);
#303=VECTOR('',#979,10.);
#304=VECTOR('',#980,10.);
#305=VECTOR('',#981,10.);
#306=VECTOR('',#982,10.);
#307=VECTOR('',#985,10.);
#308=VECTOR('',#986,10.);
#309=VECTOR('',#987,10.);
#310=VECTOR('',#990,10.);
#311=VECTOR('',#991,10.);
#312=VECTOR('',#992,10.);
#313=VECTOR('',#995,10.);
#314=VECTOR('',#996,10.);
#315=VECTOR('',#1005,0.5);
#316=VECTOR('',#1012,0.5);
#317=VECTOR('',#1019,0.5);
#318=VECTOR('',#1026,1.);
#319=VECTOR('',#1033,1.);
#320=VECTOR('',#1040,1.);
#321=VECTOR('',#1047,1.);
#322=VECTOR('',#1052,10.);
#323=VECTOR('',#1053,10.);
#324=VECTOR('',#1054,10.);
#325=VECTOR('',#1055,10.);
#326=VECTOR('',#1058,10.);
#327=VECTOR('',#1059,10.);
#328=VECTOR('',#1060,10.);
#329=VECTOR('',#1063,10.);
#330=VECTOR('',#1064,10.);
#331=VECTOR('',#1065,10.);
#332=VECTOR('',#1068,10.);
#333=VECTOR('',#1069,10.);
#334=VERTEX_POINT('',#1087);
#335=VERTEX_POINT('',#1088);
#336=VERTEX_POINT('',#1090);
#337=VERTEX_POINT('',#1092);
#338=VERTEX_POINT('',#1096);
#339=VERTEX_POINT('',#1098);
#340=VERTEX_POINT('',#1102);
#341=VERTEX_POINT('',#1104);
#342=VERTEX_POINT('',#1114);
#343=VERTEX_POINT('',#1116);
#344=VERTEX_POINT('',#1122);
#345=VERTEX_POINT('',#1124);
#346=VERTEX_POINT('',#1131);
#347=VERTEX_POINT('',#1132);
#348=VERTEX_POINT('',#1134);
#349=VERTEX_POINT('',#1136);
#350=VERTEX_POINT('',#1140);
#351=VERTEX_POINT('',#1142);
#352=VERTEX_POINT('',#1146);
#353=VERTEX_POINT('',#1148);
#354=VERTEX_POINT('',#1158);
#355=VERTEX_POINT('',#1159);
#356=VERTEX_POINT('',#1161);
#357=VERTEX_POINT('',#1163);
#358=VERTEX_POINT('',#1167);
#359=VERTEX_POINT('',#1168);
#360=VERTEX_POINT('',#1170);
#361=VERTEX_POINT('',#1172);
#362=VERTEX_POINT('',#1185);
#363=VERTEX_POINT('',#1186);
#364=VERTEX_POINT('',#1188);
#365=VERTEX_POINT('',#1190);
#366=VERTEX_POINT('',#1194);
#367=VERTEX_POINT('',#1196);
#368=VERTEX_POINT('',#1200);
#369=VERTEX_POINT('',#1202);
#370=VERTEX_POINT('',#1211);
#371=VERTEX_POINT('',#1213);
#372=VERTEX_POINT('',#1217);
#373=VERTEX_POINT('',#1219);
#374=VERTEX_POINT('',#1223);
#375=VERTEX_POINT('',#1225);
#376=VERTEX_POINT('',#1229);
#377=VERTEX_POINT('',#1231);
#378=VERTEX_POINT('',#1235);
#379=VERTEX_POINT('',#1237);
#380=VERTEX_POINT('',#1241);
#381=VERTEX_POINT('',#1243);
#382=VERTEX_POINT('',#1247);
#383=VERTEX_POINT('',#1249);
#384=VERTEX_POINT('',#1253);
#385=VERTEX_POINT('',#1254);
#386=VERTEX_POINT('',#1256);
#387=VERTEX_POINT('',#1258);
#388=VERTEX_POINT('',#1262);
#389=VERTEX_POINT('',#1264);
#390=VERTEX_POINT('',#1268);
#391=VERTEX_POINT('',#1270);
#392=EDGE_CURVE('',#334,#335,#204,.T.);
#393=EDGE_CURVE('',#334,#336,#205,.T.);
#394=EDGE_CURVE('',#337,#336,#206,.T.);
#395=EDGE_CURVE('',#335,#337,#207,.T.);
#396=EDGE_CURVE('',#335,#338,#208,.T.);
#397=EDGE_CURVE('',#339,#337,#209,.T.);
#398=EDGE_CURVE('',#338,#339,#210,.T.);
#399=EDGE_CURVE('',#338,#340,#211,.T.);
#400=EDGE_CURVE('',#341,#339,#212,.T.);
#401=EDGE_CURVE('',#340,#341,#213,.T.);
#402=EDGE_CURVE('',#340,#334,#214,.T.);
#403=EDGE_CURVE('',#336,#341,#215,.T.);
#404=EDGE_CURVE('',#342,#342,#45,.T.);
#405=EDGE_CURVE('',#342,#343,#216,.T.);
#406=EDGE_CURVE('',#343,#343,#46,.T.);
#407=EDGE_CURVE('',#344,#344,#47,.T.);
#408=EDGE_CURVE('',#344,#345,#217,.T.);
#409=EDGE_CURVE('',#345,#345,#48,.T.);
#410=EDGE_CURVE('',#346,#347,#218,.T.);
#411=EDGE_CURVE('',#346,#348,#219,.T.);
#412=EDGE_CURVE('',#349,#348,#220,.T.);
#413=EDGE_CURVE('',#347,#349,#221,.T.);
#414=EDGE_CURVE('',#347,#350,#222,.T.);
#415=EDGE_CURVE('',#351,#349,#223,.T.);
#416=EDGE_CURVE('',#350,#351,#224,.T.);
#417=EDGE_CURVE('',#350,#352,#225,.T.);
#418=EDGE_CURVE('',#353,#351,#226,.T.);
#419=EDGE_CURVE('',#352,#353,#227,.T.);
#420=EDGE_CURVE('',#352,#346,#228,.T.);
#421=EDGE_CURVE('',#348,#353,#229,.T.);
#422=EDGE_CURVE('',#354,#355,#49,.T.);
#423=EDGE_CURVE('',#356,#354,#230,.T.);
#424=EDGE_CURVE('',#357,#356,#50,.T.);
#425=EDGE_CURVE('',#357,#355,#231,.T.);
#426=EDGE_CURVE('',#358,#359,#51,.T.);
#427=EDGE_CURVE('',#360,#358,#232,.T.);
#428=EDGE_CURVE('',#361,#360,#52,.T.);
#429=EDGE_CURVE('',#361,#359,#233,.T.);
#430=EDGE_CURVE('',#357,#360,#234,.T.);
#431=EDGE_CURVE('',#358,#355,#235,.T.);
#432=EDGE_CURVE('',#354,#359,#236,.T.);
#433=EDGE_CURVE('',#361,#356,#237,.T.);
#434=EDGE_CURVE('',#362,#363,#238,.T.);
#435=EDGE_CURVE('',#362,#364,#239,.T.);
#436=EDGE_CURVE('',#365,#364,#240,.T.);
#437=EDGE_CURVE('',#363,#365,#241,.T.);
#438=EDGE_CURVE('',#363,#366,#242,.T.);
#439=EDGE_CURVE('',#367,#365,#243,.T.);
#440=EDGE_CURVE('',#366,#367,#244,.T.);
#441=EDGE_CURVE('',#366,#368,#245,.T.);
#442=EDGE_CURVE('',#369,#367,#246,.T.);
#443=EDGE_CURVE('',#368,#369,#247,.T.);
#444=EDGE_CURVE('',#368,#362,#248,.T.);
#445=EDGE_CURVE('',#364,#369,#249,.T.);
#446=EDGE_CURVE('',#370,#370,#53,.T.);
#447=EDGE_CURVE('',#370,#371,#250,.T.);
#448=EDGE_CURVE('',#371,#371,#54,.T.);
#449=EDGE_CURVE('',#372,#372,#55,.T.);
#450=EDGE_CURVE('',#372,#373,#251,.T.);
#451=EDGE_CURVE('',#373,#373,#56,.T.);
#452=EDGE_CURVE('',#374,#374,#57,.T.);
#453=EDGE_CURVE('',#374,#375,#252,.T.);
#454=EDGE_CURVE('',#375,#375,#58,.T.);
#455=EDGE_CURVE('',#376,#376,#59,.T.);
#456=EDGE_CURVE('',#376,#377,#253,.T.);
#457=EDGE_CURVE('',#377,#377,#60,.T.);
#458=EDGE_CURVE('',#378,#378,#61,.T.);
#459=EDGE_CURVE('',#378,#379,#254,.T.);
#460=EDGE_CURVE('',#379,#379,#62,.T.);
#461=EDGE_CURVE('',#380,#380,#63,.T.);
#462=EDGE_CURVE('',#380,#381,#255,.T.);
#463=EDGE_CURVE('',#381,#381,#64,.T.);
#464=EDGE_CURVE('',#382,#382,#65,.T.);
#465=EDGE_CURVE('',#382,#383,#256,.T.);
#466=EDGE_CURVE('',#383,#383,#66,.T.);
#467=EDGE_CURVE('',#384,#385,#257,.T.);
#468=EDGE_CURVE('',#384,#386,#258,.T.);
#469=EDGE_CURVE('',#387,#386,#259,.T.);
#470=EDGE_CURVE('',#385,#387,#260,.T.);
#471=EDGE_CURVE('',#385,#388,#261,.T.);
#472=EDGE_CURVE('',#389,#387,#262,.T.);
#473=EDGE_CURVE('',#388,#389,#263,.T.);
#474=EDGE_CURVE('',#388,#390,#264,.T.);
#475=EDGE_CURVE('',#391,#389,#265,.T.);
#476=EDGE_CURVE('',#390,#391,#266,.T.);
#477=EDGE_CURVE('',#390,#384,#267,.T.);
#478=EDGE_CURVE('',#386,#391,#268,.T.);
#479=ORIENTED_EDGE('',*,*,#392,.F.);
#480=ORIENTED_EDGE('',*,*,#393,.T.);
#481=ORIENTED_EDGE('',*,*,#394,.F.);
#482=ORIENTED_EDGE('',*,*,#395,.F.);
#483=ORIENTED_EDGE('',*,*,#396,.F.);
#484=ORIENTED_EDGE('',*,*,#395,.T.);
#485=ORIENTED_EDGE('',*,*,#397,.F.);
#486=ORIENTED_EDGE('',*,*,#398,.F.);
#487=ORIENTED_EDGE('',*,*,#399,.F.);
#488=ORIENTED_EDGE('',*,*,#398,.T.);
#489=ORIENTED_EDGE('',*,*,#400,.F.);
#490=ORIENTED_EDGE('',*,*,#401,.F.);
#491=ORIENTED_EDGE('',*,*,#402,.F.);
#492=ORIENTED_EDGE('',*,*,#401,.T.);
#493=ORIENTED_EDGE('',*,*,#403,.F.);
#494=ORIENTED_EDGE('',*,*,#393,.F.);
#495=ORIENTED_EDGE('',*,*,#403,.T.);
#496=ORIENTED_EDGE('',*,*,#400,.T.);
#497=ORIENTED_EDGE('',*,*,#397,.T.);
#498=ORIENTED_EDGE('',*,*,#394,.T.);
#499=ORIENTED_EDGE('',*,*,#402,.T.);
#500=ORIENTED_EDGE('',*,*,#392,.T.);
#501=ORIENTED_EDGE('',*,*,#396,.T.);
#502=ORIENTED_EDGE('',*,*,#399,.T.);
#503=ORIENTED_EDGE('',*,*,#404,.F.);
#504=ORIENTED_EDGE('',*,*,#405,.T.);
#505=ORIENTED_EDGE('',*,*,#406,.T.);
#506=ORIENTED_EDGE('',*,*,#405,.F.);
#507=ORIENTED_EDGE('',*,*,#404,.T.);
#508=ORIENTED_EDGE('',*,*,#406,.F.);
#509=ORIENTED_EDGE('',*,*,#407,.F.);
#510=ORIENTED_EDGE('',*,*,#408,.T.);
#511=ORIENTED_EDGE('',*,*,#409,.T.);
#512=ORIENTED_EDGE('',*,*,#408,.F.);
#513=ORIENTED_EDGE('',*,*,#407,.T.);
#514=ORIENTED_EDGE('',*,*,#409,.F.);
#515=ORIENTED_EDGE('',*,*,#410,.F.);
#516=ORIENTED_EDGE('',*,*,#411,.T.);
#517=ORIENTED_EDGE('',*,*,#412,.F.);
#518=ORIENTED_EDGE('',*,*,#413,.F.);
#519=ORIENTED_EDGE('',*,*,#414,.F.);
#520=ORIENTED_EDGE('',*,*,#413,.T.);
#521=ORIENTED_EDGE('',*,*,#415,.F.);
#522=ORIENTED_EDGE('',*,*,#416,.F.);
#523=ORIENTED_EDGE('',*,*,#417,.F.);
#524=ORIENTED_EDGE('',*,*,#416,.T.);
#525=ORIENTED_EDGE('',*,*,#418,.F.);
#526=ORIENTED_EDGE('',*,*,#419,.F.);
#527=ORIENTED_EDGE('',*,*,#420,.F.);
#528=ORIENTED_EDGE('',*,*,#419,.T.);
#529=ORIENTED_EDGE('',*,*,#421,.F.);
#530=ORIENTED_EDGE('',*,*,#411,.F.);
#531=ORIENTED_EDGE('',*,*,#421,.T.);
#532=ORIENTED_EDGE('',*,*,#418,.T.);
#533=ORIENTED_EDGE('',*,*,#415,.T.);
#534=ORIENTED_EDGE('',*,*,#412,.T.);
#535=ORIENTED_EDGE('',*,*,#420,.T.);
#536=ORIENTED_EDGE('',*,*,#410,.T.);
#537=ORIENTED_EDGE('',*,*,#414,.T.);
#538=ORIENTED_EDGE('',*,*,#417,.T.);
#539=ORIENTED_EDGE('',*,*,#422,.F.);
#540=ORIENTED_EDGE('',*,*,#423,.F.);
#541=ORIENTED_EDGE('',*,*,#424,.F.);
#542=ORIENTED_EDGE('',*,*,#425,.T.);
#543=ORIENTED_EDGE('',*,*,#426,.F.);
#544=ORIENTED_EDGE('',*,*,#427,.F.);
#545=ORIENTED_EDGE('',*,*,#428,.F.);
#546=ORIENTED_EDGE('',*,*,#429,.T.);
#547=ORIENTED_EDGE('',*,*,#425,.F.);
#548=ORIENTED_EDGE('',*,*,#430,.T.);
#549=ORIENTED_EDGE('',*,*,#427,.T.);
#550=ORIENTED_EDGE('',*,*,#431,.T.);
#551=ORIENTED_EDGE('',*,*,#422,.T.);
#552=ORIENTED_EDGE('',*,*,#431,.F.);
#553=ORIENTED_EDGE('',*,*,#426,.T.);
#554=ORIENTED_EDGE('',*,*,#432,.F.);
#555=ORIENTED_EDGE('',*,*,#424,.T.);
#556=ORIENTED_EDGE('',*,*,#433,.F.);
#557=ORIENTED_EDGE('',*,*,#428,.T.);
#558=ORIENTED_EDGE('',*,*,#430,.F.);
#559=ORIENTED_EDGE('',*,*,#423,.T.);
#560=ORIENTED_EDGE('',*,*,#432,.T.);
#561=ORIENTED_EDGE('',*,*,#429,.F.);
#562=ORIENTED_EDGE('',*,*,#433,.T.);
#563=ORIENTED_EDGE('',*,*,#434,.F.);
#564=ORIENTED_EDGE('',*,*,#435,.T.);
#565=ORIENTED_EDGE('',*,*,#436,.F.);
#566=ORIENTED_EDGE('',*,*,#437,.F.);
#567=ORIENTED_EDGE('',*,*,#438,.F.);
#568=ORIENTED_EDGE('',*,*,#437,.T.);
#569=ORIENTED_EDGE('',*,*,#439,.F.);
#570=ORIENTED_EDGE('',*,*,#440,.F.);
#571=ORIENTED_EDGE('',*,*,#441,.F.);
#572=ORIENTED_EDGE('',*,*,#440,.T.);
#573=ORIENTED_EDGE('',*,*,#442,.F.);
#574=ORIENTED_EDGE('',*,*,#443,.F.);
#575=ORIENTED_EDGE('',*,*,#444,.F.);
#576=ORIENTED_EDGE('',*,*,#443,.T.);
#577=ORIENTED_EDGE('',*,*,#445,.F.);
#578=ORIENTED_EDGE('',*,*,#435,.F.);
#579=ORIENTED_EDGE('',*,*,#445,.T.);
#580=ORIENTED_EDGE('',*,*,#442,.T.);
#581=ORIENTED_EDGE('',*,*,#439,.T.);
#582=ORIENTED_EDGE('',*,*,#436,.T.);
#583=ORIENTED_EDGE('',*,*,#444,.T.);
#584=ORIENTED_EDGE('',*,*,#434,.T.);
#585=ORIENTED_EDGE('',*,*,#438,.T.);
#586=ORIENTED_EDGE('',*,*,#441,.T.);
#587=ORIENTED_EDGE('',*,*,#446,.F.);
#588=ORIENTED_EDGE('',*,*,#447,.T.);
#589=ORIENTED_EDGE('',*,*,#448,.F.);
#590=ORIENTED_EDGE('',*,*,#447,.F.);
#591=ORIENTED_EDGE('',*,*,#449,.F.);
#592=ORIENTED_EDGE('',*,*,#450,.T.);
#593=ORIENTED_EDGE('',*,*,#451,.F.);
#594=ORIENTED_EDGE('',*,*,#450,.F.);
#595=ORIENTED_EDGE('',*,*,#452,.F.);
#596=ORIENTED_EDGE('',*,*,#453,.T.);
#597=ORIENTED_EDGE('',*,*,#454,.F.);
#598=ORIENTED_EDGE('',*,*,#453,.F.);
#599=ORIENTED_EDGE('',*,*,#455,.F.);
#600=ORIENTED_EDGE('',*,*,#456,.T.);
#601=ORIENTED_EDGE('',*,*,#457,.T.);
#602=ORIENTED_EDGE('',*,*,#456,.F.);
#603=ORIENTED_EDGE('',*,*,#458,.F.);
#604=ORIENTED_EDGE('',*,*,#459,.T.);
#605=ORIENTED_EDGE('',*,*,#460,.T.);
#606=ORIENTED_EDGE('',*,*,#459,.F.);
#607=ORIENTED_EDGE('',*,*,#461,.F.);
#608=ORIENTED_EDGE('',*,*,#462,.T.);
#609=ORIENTED_EDGE('',*,*,#463,.T.);
#610=ORIENTED_EDGE('',*,*,#462,.F.);
#611=ORIENTED_EDGE('',*,*,#464,.F.);
#612=ORIENTED_EDGE('',*,*,#465,.T.);
#613=ORIENTED_EDGE('',*,*,#466,.T.);
#614=ORIENTED_EDGE('',*,*,#465,.F.);
#615=ORIENTED_EDGE('',*,*,#467,.F.);
#616=ORIENTED_EDGE('',*,*,#468,.T.);
#617=ORIENTED_EDGE('',*,*,#469,.F.);
#618=ORIENTED_EDGE('',*,*,#470,.F.);
#619=ORIENTED_EDGE('',*,*,#471,.F.);
#620=ORIENTED_EDGE('',*,*,#470,.T.);
#621=ORIENTED_EDGE('',*,*,#472,.F.);
#622=ORIENTED_EDGE('',*,*,#473,.F.);
#623=ORIENTED_EDGE('',*,*,#474,.F.);
#624=ORIENTED_EDGE('',*,*,#473,.T.);
#625=ORIENTED_EDGE('',*,*,#475,.F.);
#626=ORIENTED_EDGE('',*,*,#476,.F.);
#627=ORIENTED_EDGE('',*,*,#477,.F.);
#628=ORIENTED_EDGE('',*,*,#476,.T.);
#629=ORIENTED_EDGE('',*,*,#478,.F.);
#630=ORIENTED_EDGE('',*,*,#468,.F.);
#631=ORIENTED_EDGE('',*,*,#478,.T.);
#632=ORIENTED_EDGE('',*,*,#475,.T.);
#633=ORIENTED_EDGE('',*,*,#472,.T.);
#634=ORIENTED_EDGE('',*,*,#469,.T.);
#635=ORIENTED_EDGE('',*,*,#455,.T.);
#636=ORIENTED_EDGE('',*,*,#458,.T.);
#637=ORIENTED_EDGE('',*,*,#461,.T.);
#638=ORIENTED_EDGE('',*,*,#464,.T.);
#639=ORIENTED_EDGE('',*,*,#452,.T.);
#640=ORIENTED_EDGE('',*,*,#449,.T.);
#641=ORIENTED_EDGE('',*,*,#446,.T.);
#642=ORIENTED_EDGE('',*,*,#477,.T.);
#643=ORIENTED_EDGE('',*,*,#467,.T.);
#644=ORIENTED_EDGE('',*,*,#471,.T.);
#645=ORIENTED_EDGE('',*,*,#474,.T.);
#646=ORIENTED_EDGE('',*,*,#457,.F.);
#647=ORIENTED_EDGE('',*,*,#460,.F.);
#648=ORIENTED_EDGE('',*,*,#463,.F.);
#649=ORIENTED_EDGE('',*,*,#466,.F.);
#650=ORIENTED_EDGE('',*,*,#454,.T.);
#651=ORIENTED_EDGE('',*,*,#451,.T.);
#652=ORIENTED_EDGE('',*,*,#448,.T.);
#653=PLANE('',#793);
#654=PLANE('',#794);
#655=PLANE('',#795);
#656=PLANE('',#796);
#657=PLANE('',#797);
#658=PLANE('',#798);
#659=PLANE('',#803);
#660=PLANE('',#804);
#661=PLANE('',#808);
#662=PLANE('',#809);
#663=PLANE('',#811);
#664=PLANE('',#812);
#665=PLANE('',#813);
#666=PLANE('',#814);
#667=PLANE('',#815);
#668=PLANE('',#816);
#669=PLANE('',#824);
#670=PLANE('',#825);
#671=PLANE('',#826);
#672=PLANE('',#827);
#673=PLANE('',#829);
#674=PLANE('',#830);
#675=PLANE('',#831);
#676=PLANE('',#832);
#677=PLANE('',#833);
#678=PLANE('',#834);
#679=PLANE('',#856);
#680=PLANE('',#857);
#681=PLANE('',#858);
#682=PLANE('',#859);
#683=PLANE('',#860);
#684=PLANE('',#861);
#685=ADVANCED_FACE('',(#104),#653,.T.);
#686=ADVANCED_FACE('',(#105),#654,.T.);
#687=ADVANCED_FACE('',(#106),#655,.T.);
#688=ADVANCED_FACE('',(#107),#656,.T.);
#689=ADVANCED_FACE('',(#108),#657,.T.);
#690=ADVANCED_FACE('',(#109),#658,.F.);
#691=ADVANCED_FACE('',(#110),#67,.T.);
#692=ADVANCED_FACE('',(#111),#659,.T.);
#693=ADVANCED_FACE('',(#112),#660,.F.);
#694=ADVANCED_FACE('',(#113),#68,.T.);
#695=ADVANCED_FACE('',(#114),#661,.T.);
#696=ADVANCED_FACE('',(#115),#662,.F.);
#697=ADVANCED_FACE('',(#116),#663,.T.);
#698=ADVANCED_FACE('',(#117),#664,.T.);
#699=ADVANCED_FACE('',(#118),#665,.T.);
#700=ADVANCED_FACE('',(#119),#666,.T.);
#701=ADVANCED_FACE('',(#120),#667,.T.);
#702=ADVANCED_FACE('',(#121),#668,.F.);
#703=ADVANCED_FACE('',(#122),#69,.T.);
#704=ADVANCED_FACE('',(#123),#70,.T.);
#705=ADVANCED_FACE('',(#124),#669,.F.);
#706=ADVANCED_FACE('',(#125),#670,.T.);
#707=ADVANCED_FACE('',(#126),#671,.T.);
#708=ADVANCED_FACE('',(#127),#672,.T.);
#709=ADVANCED_FACE('',(#128),#673,.T.);
#710=ADVANCED_FACE('',(#129),#674,.T.);
#711=ADVANCED_FACE('',(#130),#675,.T.);
#712=ADVANCED_FACE('',(#131),#676,.T.);
#713=ADVANCED_FACE('',(#132),#677,.T.);
#714=ADVANCED_FACE('',(#133),#678,.F.);
#715=ADVANCED_FACE('',(#134),#71,.F.);
#716=ADVANCED_FACE('',(#135),#72,.F.);
#717=ADVANCED_FACE('',(#136),#73,.F.);
#718=ADVANCED_FACE('',(#137),#74,.F.);
#719=ADVANCED_FACE('',(#138),#75,.F.);
#720=ADVANCED_FACE('',(#139),#76,.F.);
#721=ADVANCED_FACE('',(#140),#77,.F.);
#722=ADVANCED_FACE('',(#141),#679,.T.);
#723=ADVANCED_FACE('',(#142),#680,.T.);
#724=ADVANCED_FACE('',(#143),#681,.T.);
#725=ADVANCED_FACE('',(#144),#682,.T.);
#726=ADVANCED_FACE('',(#145,#31,#32,#33,#34,#35,#36,#37),#683,.T.);
#727=ADVANCED_FACE('',(#146,#38,#39,#40,#41,#42,#43,#44),#684,.F.);
#728=CLOSED_SHELL('',(#685,#686,#687,#688,#689,#690));
#729=CLOSED_SHELL('',(#691,#692,#693));
#730=CLOSED_SHELL('',(#694,#695,#696));
#731=CLOSED_SHELL('',(#697,#698,#699,#700,#701,#702));
#732=CLOSED_SHELL('',(#703,#704,#705,#706,#707,#708));
#733=CLOSED_SHELL('',(#709,#710,#711,#712,#713,#714));
#734=CLOSED_SHELL('',(#715,#716,#717,#718,#719,#720,#721,#722,#723,#724,
#725,#726,#727));
#735=DERIVED_UNIT_ELEMENT(#745,1.);
#736=DERIVED_UNIT_ELEMENT(#1298,-3.);
#737=DERIVED_UNIT_ELEMENT(#745,1.);
#738=DERIVED_UNIT_ELEMENT(#1298,-3.);
#739=DERIVED_UNIT_ELEMENT(#745,1.);
#740=DERIVED_UNIT_ELEMENT(#1298,-3.);
#741=DERIVED_UNIT_ELEMENT(#745,1.);
#742=DERIVED_UNIT_ELEMENT(#1298,-3.);
#743=DERIVED_UNIT_ELEMENT(#745,1.);
#744=DERIVED_UNIT_ELEMENT(#1298,-3.);
#745=(
MASS_UNIT()
NAMED_UNIT(*)
SI_UNIT(.KILO.,.GRAM.)
);
#746=DERIVED_UNIT((#735,#736));
#747=DERIVED_UNIT((#737,#738));
#748=DERIVED_UNIT((#739,#740));
#749=DERIVED_UNIT((#741,#742));
#750=DERIVED_UNIT((#743,#744));
#751=MEASURE_REPRESENTATION_ITEM('density measure',
POSITIVE_RATIO_MEASURE(7850.),#746);
#752=MEASURE_REPRESENTATION_ITEM('density measure',
POSITIVE_RATIO_MEASURE(7850.),#747);
#753=MEASURE_REPRESENTATION_ITEM('density measure',
POSITIVE_RATIO_MEASURE(7850.),#748);
#754=MEASURE_REPRESENTATION_ITEM('density measure',
POSITIVE_RATIO_MEASURE(7850.),#749);
#755=MEASURE_REPRESENTATION_ITEM('density measure',
POSITIVE_RATIO_MEASURE(7850.),#750);
#756=PROPERTY_DEFINITION_REPRESENTATION(#781,#766);
#757=PROPERTY_DEFINITION_REPRESENTATION(#782,#767);
#758=PROPERTY_DEFINITION_REPRESENTATION(#783,#768);
#759=PROPERTY_DEFINITION_REPRESENTATION(#784,#769);
#760=PROPERTY_DEFINITION_REPRESENTATION(#785,#770);
#761=PROPERTY_DEFINITION_REPRESENTATION(#786,#771);
#762=PROPERTY_DEFINITION_REPRESENTATION(#787,#772);
#763=PROPERTY_DEFINITION_REPRESENTATION(#788,#773);
#764=PROPERTY_DEFINITION_REPRESENTATION(#789,#774);
#765=PROPERTY_DEFINITION_REPRESENTATION(#790,#775);
#766=REPRESENTATION('material name',(#776),#1291);
#767=REPRESENTATION('density',(#751),#1291);
#768=REPRESENTATION('material name',(#777),#1292);
#769=REPRESENTATION('density',(#752),#1292);
#770=REPRESENTATION('material name',(#778),#1293);
#771=REPRESENTATION('density',(#753),#1293);
#772=REPRESENTATION('material name',(#779),#1294);
#773=REPRESENTATION('density',(#754),#1294);
#774=REPRESENTATION('material name',(#780),#1295);
#775=REPRESENTATION('density',(#755),#1295);
#776=DESCRIPTIVE_REPRESENTATION_ITEM('Steel','Steel');
#777=DESCRIPTIVE_REPRESENTATION_ITEM('Steel','Steel');
#778=DESCRIPTIVE_REPRESENTATION_ITEM('Steel','Steel');
#779=DESCRIPTIVE_REPRESENTATION_ITEM('Steel','Steel');
#780=DESCRIPTIVE_REPRESENTATION_ITEM('Steel','Steel');
#781=PROPERTY_DEFINITION('material property','material name',#1326);
#782=PROPERTY_DEFINITION('material property','density of part',#1326);
#783=PROPERTY_DEFINITION('material property','material name',#1327);
#784=PROPERTY_DEFINITION('material property','density of part',#1327);
#785=PROPERTY_DEFINITION('material property','material name',#1328);
#786=PROPERTY_DEFINITION('material property','density of part',#1328);
#787=PROPERTY_DEFINITION('material property','material name',#1329);
#788=PROPERTY_DEFINITION('material property','density of part',#1329);
#789=PROPERTY_DEFINITION('material property','material name',#1330);
#790=PROPERTY_DEFINITION('material property','density of part',#1330);
#791=AXIS2_PLACEMENT_3D('',#1084,#867,#868);
#792=AXIS2_PLACEMENT_3D('',#1085,#869,#870);
#793=AXIS2_PLACEMENT_3D('',#1086,#871,#872);
#794=AXIS2_PLACEMENT_3D('',#1095,#877,#878);
#795=AXIS2_PLACEMENT_3D('',#1101,#882,#883);
#796=AXIS2_PLACEMENT_3D('',#1107,#887,#888);
#797=AXIS2_PLACEMENT_3D('',#1110,#891,#892);
#798=AXIS2_PLACEMENT_3D('',#1111,#893,#894);
#799=AXIS2_PLACEMENT_3D('',#1112,#895,#896);
#800=AXIS2_PLACEMENT_3D('',#1113,#897,#898);
#801=AXIS2_PLACEMENT_3D('',#1115,#899,#900);
#802=AXIS2_PLACEMENT_3D('',#1118,#902,#903);
#803=AXIS2_PLACEMENT_3D('',#1119,#904,#905);
#804=AXIS2_PLACEMENT_3D('',#1120,#906,#907);
#805=AXIS2_PLACEMENT_3D('',#1121,#908,#909);
#806=AXIS2_PLACEMENT_3D('',#1123,#910,#911);
#807=AXIS2_PLACEMENT_3D('',#1126,#913,#914);
#808=AXIS2_PLACEMENT_3D('',#1127,#915,#916);
#809=AXIS2_PLACEMENT_3D('',#1128,#917,#918);
#810=AXIS2_PLACEMENT_3D('',#1129,#919,#920);
#811=AXIS2_PLACEMENT_3D('',#1130,#921,#922);
#812=AXIS2_PLACEMENT_3D('',#1139,#927,#928);
#813=AXIS2_PLACEMENT_3D('',#1145,#932,#933);
#814=AXIS2_PLACEMENT_3D('',#1151,#937,#938);
#815=AXIS2_PLACEMENT_3D('',#1154,#941,#942);
#816=AXIS2_PLACEMENT_3D('',#1155,#943,#944);
#817=AXIS2_PLACEMENT_3D('',#1156,#945,#946);
#818=AXIS2_PLACEMENT_3D('',#1157,#947,#948);
#819=AXIS2_PLACEMENT_3D('',#1160,#949,#950);
#820=AXIS2_PLACEMENT_3D('',#1164,#952,#953);
#821=AXIS2_PLACEMENT_3D('',#1166,#955,#956);
#822=AXIS2_PLACEMENT_3D('',#1169,#957,#958);
#823=AXIS2_PLACEMENT_3D('',#1173,#960,#961);
#824=AXIS2_PLACEMENT_3D('',#1175,#963,#964);
#825=AXIS2_PLACEMENT_3D('',#1178,#967,#968);
#826=AXIS2_PLACEMENT_3D('',#1180,#970,#971);
#827=AXIS2_PLACEMENT_3D('',#1182,#973,#974);
#828=AXIS2_PLACEMENT_3D('',#1183,#975,#976);
#829=AXIS2_PLACEMENT_3D('',#1184,#977,#978);
#830=AXIS2_PLACEMENT_3D('',#1193,#983,#984);
#831=AXIS2_PLACEMENT_3D('',#1199,#988,#989);
#832=AXIS2_PLACEMENT_3D('',#1205,#993,#994);
#833=AXIS2_PLACEMENT_3D('',#1208,#997,#998);
#834=AXIS2_PLACEMENT_3D('',#1209,#999,#1000);
#835=AXIS2_PLACEMENT_3D('',#1210,#1001,#1002);
#836=AXIS2_PLACEMENT_3D('',#1212,#1003,#1004);
#837=AXIS2_PLACEMENT_3D('',#1215,#1006,#1007);
#838=AXIS2_PLACEMENT_3D('',#1216,#1008,#1009);
#839=AXIS2_PLACEMENT_3D('',#1218,#1010,#1011);
#840=AXIS2_PLACEMENT_3D('',#1221,#1013,#1014);
#841=AXIS2_PLACEMENT_3D('',#1222,#1015,#1016);
#842=AXIS2_PLACEMENT_3D('',#1224,#1017,#1018);
#843=AXIS2_PLACEMENT_3D('',#1227,#1020,#1021);
#844=AXIS2_PLACEMENT_3D('',#1228,#1022,#1023);
#845=AXIS2_PLACEMENT_3D('',#1230,#1024,#1025);
#846=AXIS2_PLACEMENT_3D('',#1233,#1027,#1028);
#847=AXIS2_PLACEMENT_3D('',#1234,#1029,#1030);
#848=AXIS2_PLACEMENT_3D('',#1236,#1031,#1032);
#849=AXIS2_PLACEMENT_3D('',#1239,#1034,#1035);
#850=AXIS2_PLACEMENT_3D('',#1240,#1036,#1037);
#851=AXIS2_PLACEMENT_3D('',#1242,#1038,#1039);
#852=AXIS2_PLACEMENT_3D('',#1245,#1041,#1042);
#853=AXIS2_PLACEMENT_3D('',#1246,#1043,#1044);
#854=AXIS2_PLACEMENT_3D('',#1248,#1045,#1046);
#855=AXIS2_PLACEMENT_3D('',#1251,#1048,#1049);
#856=AXIS2_PLACEMENT_3D('',#1252,#1050,#1051);
#857=AXIS2_PLACEMENT_3D('',#1261,#1056,#1057);
#858=AXIS2_PLACEMENT_3D('',#1267,#1061,#1062);
#859=AXIS2_PLACEMENT_3D('',#1273,#1066,#1067);
#860=AXIS2_PLACEMENT_3D('',#1276,#1070,#1071);
#861=AXIS2_PLACEMENT_3D('',#1277,#1072,#1073);
#862=AXIS2_PLACEMENT_3D('',#1278,#1074,#1075);
#863=AXIS2_PLACEMENT_3D('',#1279,#1076,#1077);
#864=AXIS2_PLACEMENT_3D('',#1280,#1078,#1079);
#865=AXIS2_PLACEMENT_3D('',#1281,#1080,#1081);
#866=AXIS2_PLACEMENT_3D('',#1282,#1082,#1083);
#867=DIRECTION('axis',(0.,0.,1.));
#868=DIRECTION('refdir',(1.,0.,0.));
#869=DIRECTION('axis',(0.,0.,1.));
#870=DIRECTION('refdir',(1.,0.,0.));
#871=DIRECTION('center_axis',(1.,0.,0.));
#872=DIRECTION('ref_axis',(0.,1.,0.));
#873=DIRECTION('',(0.,-1.,0.));
#874=DIRECTION('',(0.,0.,1.));
#875=DIRECTION('',(0.,1.,0.));
#876=DIRECTION('',(0.,0.,1.));
#877=DIRECTION('center_axis',(-7.09138501104448E-13,-1.,0.));
#878=DIRECTION('ref_axis',(1.,-7.09138501104448E-13,0.));
#879=DIRECTION('',(-1.,7.09138501104448E-13,0.));
#880=DIRECTION('',(1.,-7.09138501104448E-13,0.));
#881=DIRECTION('',(0.,0.,1.));
#882=DIRECTION('center_axis',(-1.,-1.70803542250118E-16,0.));
#883=DIRECTION('ref_axis',(1.70803542250118E-16,-1.,0.));
#884=DIRECTION('',(-1.70803542250118E-16,1.,0.));
#885=DIRECTION('',(1.70803542250118E-16,-1.,0.));
#886=DIRECTION('',(0.,0.,1.));
#887=DIRECTION('center_axis',(0.,1.,0.));
#888=DIRECTION('ref_axis',(-1.,0.,0.));
#889=DIRECTION('',(1.,0.,0.));
#890=DIRECTION('',(-1.,0.,0.));
#891=DIRECTION('center_axis',(0.,0.,1.));
#892=DIRECTION('ref_axis',(1.,0.,0.));
#893=DIRECTION('center_axis',(0.,0.,1.));
#894=DIRECTION('ref_axis',(-1.,0.,0.));
#895=DIRECTION('axis',(0.,0.,1.));
#896=DIRECTION('refdir',(1.,0.,0.));
#897=DIRECTION('center_axis',(0.,0.,1.));
#898=DIRECTION('ref_axis',(-1.,0.,0.));
#899=DIRECTION('center_axis',(0.,0.,1.));
#900=DIRECTION('ref_axis',(-1.,0.,0.));
#901=DIRECTION('',(0.,0.,-1.));
#902=DIRECTION('center_axis',(0.,0.,1.));
#903=DIRECTION('ref_axis',(-1.,0.,0.));
#904=DIRECTION('center_axis',(0.,0.,1.));
#905=DIRECTION('ref_axis',(-1.,0.,0.));
#906=DIRECTION('center_axis',(0.,0.,1.));
#907=DIRECTION('ref_axis',(-1.,0.,0.));
#908=DIRECTION('center_axis',(0.,0.,1.));
#909=DIRECTION('ref_axis',(-1.,0.,0.));
#910=DIRECTION('center_axis',(0.,0.,1.));
#911=DIRECTION('ref_axis',(-1.,0.,0.));
#912=DIRECTION('',(0.,0.,-1.));
#913=DIRECTION('center_axis',(0.,0.,1.));
#914=DIRECTION('ref_axis',(-1.,0.,0.));
#915=DIRECTION('center_axis',(0.,0.,1.));
#916=DIRECTION('ref_axis',(-1.,0.,0.));
#917=DIRECTION('center_axis',(0.,0.,1.));
#918=DIRECTION('ref_axis',(-1.,0.,0.));
#919=DIRECTION('axis',(0.,0.,1.));
#920=DIRECTION('refdir',(1.,0.,0.));
#921=DIRECTION('center_axis',(1.,0.,0.));
#922=DIRECTION('ref_axis',(0.,1.,0.));
#923=DIRECTION('',(0.,-1.,0.));
#924=DIRECTION('',(0.,0.,1.));
#925=DIRECTION('',(0.,1.,0.));
#926=DIRECTION('',(0.,0.,1.));
#927=DIRECTION('center_axis',(0.,-1.,0.));
#928=DIRECTION('ref_axis',(1.,0.,0.));
#929=DIRECTION('',(-1.,0.,0.));
#930=DIRECTION('',(1.,0.,0.));
#931=DIRECTION('',(0.,0.,1.));
#932=DIRECTION('center_axis',(-1.,0.,0.));
#933=DIRECTION('ref_axis',(0.,-1.,0.));
#934=DIRECTION('',(0.,1.,0.));
#935=DIRECTION('',(0.,-1.,0.));
#936=DIRECTION('',(0.,0.,1.));
#937=DIRECTION('center_axis',(0.,1.,0.));
#938=DIRECTION('ref_axis',(-1.,0.,0.));
#939=DIRECTION('',(1.,0.,0.));
#940=DIRECTION('',(-1.,0.,0.));
#941=DIRECTION('center_axis',(0.,0.,1.));
#942=DIRECTION('ref_axis',(1.,0.,0.));
#943=DIRECTION('center_axis',(0.,0.,1.));
#944=DIRECTION('ref_axis',(-1.,0.,0.));
#945=DIRECTION('axis',(0.,0.,1.));
#946=DIRECTION('refdir',(1.,0.,0.));
#947=DIRECTION('center_axis',(0.,1.,0.));
#948=DIRECTION('ref_axis',(0.,0.,-1.));
#949=DIRECTION('center_axis',(-5.04646829375071E-16,-1.,0.));
#950=DIRECTION('ref_axis',(0.,0.,-1.));
#951=DIRECTION('',(0.,-1.,0.));
#952=DIRECTION('center_axis',(5.04646829375071E-16,1.,0.));
#953=DIRECTION('ref_axis',(0.,0.,-1.));
#954=DIRECTION('',(0.,-1.,0.));
#955=DIRECTION('center_axis',(0.,1.,0.));
#956=DIRECTION('ref_axis',(0.,0.,1.));
#957=DIRECTION('center_axis',(-5.04646829375071E-16,-1.,0.));
#958=DIRECTION('ref_axis',(0.,0.,1.));
#959=DIRECTION('',(0.,-1.,0.));
#960=DIRECTION('center_axis',(5.04646829375071E-16,1.,0.));
#961=DIRECTION('ref_axis',(0.,0.,1.));
#962=DIRECTION('',(0.,-1.,0.));
#963=DIRECTION('center_axis',(0.,0.,-1.));
#964=DIRECTION('ref_axis',(1.,0.,0.));
#965=DIRECTION('',(-1.,5.04646829375071E-16,0.));
#966=DIRECTION('',(1.,-5.04646829375071E-16,0.));
#967=DIRECTION('center_axis',(-5.04646829375071E-16,-1.,0.));
#968=DIRECTION('ref_axis',(-1.,5.04646829375071E-16,0.));
#969=DIRECTION('',(-1.,5.04646829375071E-16,0.));
#970=DIRECTION('center_axis',(5.04646829375071E-16,1.,0.));
#971=DIRECTION('ref_axis',(1.,-5.04646829375071E-16,0.));
#972=DIRECTION('',(1.,-5.04646829375071E-16,0.));
#973=DIRECTION('center_axis',(0.,0.,-1.));
#974=DIRECTION('ref_axis',(-1.,0.,0.));
#975=DIRECTION('axis',(0.,0.,1.));
#976=DIRECTION('refdir',(1.,0.,0.));
#977=DIRECTION('center_axis',(-1.,0.,0.));
#978=DIRECTION('ref_axis',(0.,1.,0.));
#979=DIRECTION('',(0.,-1.,0.));
#980=DIRECTION('',(0.,0.,-1.));
#981=DIRECTION('',(0.,1.,0.));
#982=DIRECTION('',(0.,0.,-1.));
#983=DIRECTION('center_axis',(0.,-1.,0.));
#984=DIRECTION('ref_axis',(-1.,0.,0.));
#985=DIRECTION('',(1.,0.,0.));
#986=DIRECTION('',(-1.,0.,0.));
#987=DIRECTION('',(0.,0.,-1.));
#988=DIRECTION('center_axis',(1.,0.,0.));
#989=DIRECTION('ref_axis',(0.,-1.,0.));
#990=DIRECTION('',(0.,1.,0.));
#991=DIRECTION('',(0.,-1.,0.));
#992=DIRECTION('',(0.,0.,-1.));
#993=DIRECTION('center_axis',(0.,1.,0.));
#994=DIRECTION('ref_axis',(1.,0.,0.));
#995=DIRECTION('',(-1.,0.,0.));
#996=DIRECTION('',(1.,0.,0.));
#997=DIRECTION('center_axis',(0.,0.,-1.));
#998=DIRECTION('ref_axis',(-1.,0.,0.));
#999=DIRECTION('center_axis',(0.,0.,-1.));
#1000=DIRECTION('ref_axis',(1.,0.,0.));
#1001=DIRECTION('center_axis',(0.,0.,-1.));
#1002=DIRECTION('ref_axis',(-1.,0.,0.));
#1003=DIRECTION('center_axis',(0.,0.,-1.));
#1004=DIRECTION('ref_axis',(-1.,0.,0.));
#1005=DIRECTION('',(0.,0.,-1.));
#1006=DIRECTION('center_axis',(0.,0.,1.));
#1007=DIRECTION('ref_axis',(-1.,0.,0.));
#1008=DIRECTION('center_axis',(0.,0.,-1.));
#1009=DIRECTION('ref_axis',(-1.,0.,0.));
#1010=DIRECTION('center_axis',(0.,0.,-1.));
#1011=DIRECTION('ref_axis',(-1.,0.,0.));
#1012=DIRECTION('',(0.,0.,-1.));
#1013=DIRECTION('center_axis',(0.,0.,1.));
#1014=DIRECTION('ref_axis',(-1.,0.,0.));
#1015=DIRECTION('center_axis',(0.,0.,-1.));
#1016=DIRECTION('ref_axis',(-1.,0.,0.));
#1017=DIRECTION('center_axis',(0.,0.,-1.));
#1018=DIRECTION('ref_axis',(-1.,0.,0.));
#1019=DIRECTION('',(0.,0.,-1.));
#1020=DIRECTION('center_axis',(0.,0.,1.));
#1021=DIRECTION('ref_axis',(-1.,0.,0.));
#1022=DIRECTION('center_axis',(0.,0.,1.));
#1023=DIRECTION('ref_axis',(1.,0.,0.));
#1024=DIRECTION('center_axis',(0.,0.,-1.));
#1025=DIRECTION('ref_axis',(1.,0.,0.));
#1026=DIRECTION('',(0.,0.,-1.));
#1027=DIRECTION('center_axis',(0.,0.,-1.));
#1028=DIRECTION('ref_axis',(1.,0.,0.));
#1029=DIRECTION('center_axis',(0.,0.,1.));
#1030=DIRECTION('ref_axis',(1.,0.,0.));
#1031=DIRECTION('center_axis',(0.,0.,-1.));
#1032=DIRECTION('ref_axis',(1.,0.,0.));
#1033=DIRECTION('',(0.,0.,-1.));
#1034=DIRECTION('center_axis',(0.,0.,-1.));
#1035=DIRECTION('ref_axis',(1.,0.,0.));
#1036=DIRECTION('center_axis',(0.,0.,1.));
#1037=DIRECTION('ref_axis',(1.,0.,0.));
#1038=DIRECTION('center_axis',(0.,0.,-1.));
#1039=DIRECTION('ref_axis',(1.,0.,0.));
#1040=DIRECTION('',(0.,0.,-1.));
#1041=DIRECTION('center_axis',(0.,0.,-1.));
#1042=DIRECTION('ref_axis',(1.,0.,0.));
#1043=DIRECTION('center_axis',(0.,0.,1.));
#1044=DIRECTION('ref_axis',(1.,0.,0.));
#1045=DIRECTION('center_axis',(0.,0.,-1.));
#1046=DIRECTION('ref_axis',(1.,0.,0.));
#1047=DIRECTION('',(0.,0.,-1.));
#1048=DIRECTION('center_axis',(0.,0.,-1.));
#1049=DIRECTION('ref_axis',(1.,0.,0.));
#1050=DIRECTION('center_axis',(1.,0.,0.));
#1051=DIRECTION('ref_axis',(0.,1.,0.));
#1052=DIRECTION('',(0.,-1.,0.));
#1053=DIRECTION('',(0.,0.,1.));
#1054=DIRECTION('',(0.,1.,0.));
#1055=DIRECTION('',(0.,0.,1.));
#1056=DIRECTION('center_axis',(0.,-1.,0.));
#1057=DIRECTION('ref_axis',(1.,0.,0.));
#1058=DIRECTION('',(-1.,0.,0.));
#1059=DIRECTION('',(1.,0.,0.));
#1060=DIRECTION('',(0.,0.,1.));
#1061=DIRECTION('center_axis',(-1.,-2.03399638099265E-16,0.));
#1062=DIRECTION('ref_axis',(2.03399638099265E-16,-1.,0.));
#1063=DIRECTION('',(-2.03399638099265E-16,1.,0.));
#1064=DIRECTION('',(2.03399638099265E-16,-1.,0.));
#1065=DIRECTION('',(0.,0.,1.));
#1066=DIRECTION('center_axis',(1.38777878078145E-16,1.,0.));
#1067=DIRECTION('ref_axis',(-1.,1.38777878078145E-16,0.));
#1068=DIRECTION('',(1.,-1.38777878078145E-16,0.));
#1069=DIRECTION('',(-1.,1.38777878078145E-16,0.));
#1070=DIRECTION('center_axis',(0.,0.,1.));
#1071=DIRECTION('ref_axis',(1.,0.,0.));
#1072=DIRECTION('center_axis',(0.,0.,1.));
#1073=DIRECTION('ref_axis',(1.,0.,0.));
#1074=DIRECTION('',(0.,0.,1.));
#1075=DIRECTION('',(1.,0.,0.));
#1076=DIRECTION('',(0.,0.,1.));
#1077=DIRECTION('',(1.,0.,0.));
#1078=DIRECTION('',(0.,0.,1.));
#1079=DIRECTION('',(1.,0.,0.));
#1080=DIRECTION('',(0.,0.,1.));
#1081=DIRECTION('',(1.,0.,0.));
#1082=DIRECTION('',(0.,0.,1.));
#1083=DIRECTION('',(1.,0.,0.));
#1084=CARTESIAN_POINT('',(0.,0.,0.));
#1085=CARTESIAN_POINT('',(0.,0.,0.));
#1086=CARTESIAN_POINT('Origin',(5.0600000000014,20.35,1.6));
#1087=CARTESIAN_POINT('',(5.0600000000014,33.35,1.6));
#1088=CARTESIAN_POINT('',(5.0600000000014,20.35,1.6));
#1089=CARTESIAN_POINT('',(5.0600000000014,33.35,1.6));
#1090=CARTESIAN_POINT('',(5.0600000000014,33.35,11.75));
#1091=CARTESIAN_POINT('',(5.0600000000014,33.35,1.6));
#1092=CARTESIAN_POINT('',(5.0600000000014,20.35,11.75));
#1093=CARTESIAN_POINT('',(5.0600000000014,33.35,11.75));
#1094=CARTESIAN_POINT('',(5.0600000000014,20.35,1.6));
#1095=CARTESIAN_POINT('Origin',(-5.0599999999986,20.3500000000072,1.6));
#1096=CARTESIAN_POINT('',(-5.0599999999986,20.3500000000072,1.6));
#1097=CARTESIAN_POINT('',(5.0600000000014,20.35,1.6));
#1098=CARTESIAN_POINT('',(-5.0599999999986,20.3500000000072,11.75));
#1099=CARTESIAN_POINT('',(5.0600000000014,20.35,11.75));
#1100=CARTESIAN_POINT('',(-5.0599999999986,20.3500000000072,1.6));
#1101=CARTESIAN_POINT('Origin',(-5.0599999999986,33.35,1.6));
#1102=CARTESIAN_POINT('',(-5.0599999999986,33.35,1.6));
#1103=CARTESIAN_POINT('',(-5.0599999999986,20.3500000000072,1.6));
#1104=CARTESIAN_POINT('',(-5.0599999999986,33.35,11.75));
#1105=CARTESIAN_POINT('',(-5.0599999999986,20.3500000000072,11.75));
#1106=CARTESIAN_POINT('',(-5.0599999999986,33.35,1.6));
#1107=CARTESIAN_POINT('Origin',(5.0600000000014,33.35,1.6));
#1108=CARTESIAN_POINT('',(-5.0599999999986,33.35,1.6));
#1109=CARTESIAN_POINT('',(-5.0599999999986,33.35,11.75));
#1110=CARTESIAN_POINT('Origin',(1.3988810110277E-12,26.85,11.75));
#1111=CARTESIAN_POINT('Origin',(1.3988810110277E-12,26.85,1.6));
#1112=CARTESIAN_POINT('',(0.,0.,0.));
#1113=CARTESIAN_POINT('Origin',(-10.1,18.25,1.6));
#1114=CARTESIAN_POINT('',(-6.1,18.25,11.1));
#1115=CARTESIAN_POINT('Origin',(-10.1,18.25,11.1));
#1116=CARTESIAN_POINT('',(-6.1,18.25,1.6));
#1117=CARTESIAN_POINT('',(-6.1,18.25,1.6));
#1118=CARTESIAN_POINT('Origin',(-10.1,18.25,1.6));
#1119=CARTESIAN_POINT('Origin',(-10.1,18.25,11.1));
#1120=CARTESIAN_POINT('Origin',(-10.1,18.25,1.6));
#1121=CARTESIAN_POINT('Origin',(10.8,-3.55,1.6));
#1122=CARTESIAN_POINT('',(14.8,-3.55,11.1));
#1123=CARTESIAN_POINT('Origin',(10.8,-3.55,11.1));
#1124=CARTESIAN_POINT('',(14.8,-3.55,1.6));
#1125=CARTESIAN_POINT('',(14.8,-3.55,1.6));
#1126=CARTESIAN_POINT('Origin',(10.8,-3.55,1.6));
#1127=CARTESIAN_POINT('Origin',(10.8,-3.55,11.1));
#1128=CARTESIAN_POINT('Origin',(10.8,-3.55,1.6));
#1129=CARTESIAN_POINT('',(0.,0.,0.));
#1130=CARTESIAN_POINT('Origin',(13.75,2.6,1.6));
#1131=CARTESIAN_POINT('',(13.75,19.6,1.6));
#1132=CARTESIAN_POINT('',(13.75,2.6,1.6));
#1133=CARTESIAN_POINT('',(13.75,19.6,1.6));
#1134=CARTESIAN_POINT('',(13.75,19.6,8.35));
#1135=CARTESIAN_POINT('',(13.75,19.6,1.6));
#1136=CARTESIAN_POINT('',(13.75,2.6,8.35));
#1137=CARTESIAN_POINT('',(13.75,19.6,8.35));
#1138=CARTESIAN_POINT('',(13.75,2.6,1.6));
#1139=CARTESIAN_POINT('Origin',(-3.25,2.6,1.6));
#1140=CARTESIAN_POINT('',(-3.25,2.6,1.6));
#1141=CARTESIAN_POINT('',(13.75,2.6,1.6));
#1142=CARTESIAN_POINT('',(-3.25,2.6,8.35));
#1143=CARTESIAN_POINT('',(13.75,2.6,8.35));
#1144=CARTESIAN_POINT('',(-3.25,2.6,1.6));
#1145=CARTESIAN_POINT('Origin',(-3.25,19.6,1.6));
#1146=CARTESIAN_POINT('',(-3.25,19.6,1.6));
#1147=CARTESIAN_POINT('',(-3.25,2.6,1.6));
#1148=CARTESIAN_POINT('',(-3.25,19.6,8.35));
#1149=CARTESIAN_POINT('',(-3.25,2.6,8.35));
#1150=CARTESIAN_POINT('',(-3.25,19.6,1.6));
#1151=CARTESIAN_POINT('Origin',(13.75,19.6,1.6));
#1152=CARTESIAN_POINT('',(-3.25,19.6,1.6));
#1153=CARTESIAN_POINT('',(-3.25,19.6,8.35));
#1154=CARTESIAN_POINT('Origin',(5.25,11.1,8.35));
#1155=CARTESIAN_POINT('Origin',(5.25,11.1,1.6));
#1156=CARTESIAN_POINT('',(0.,0.,0.));
#1157=CARTESIAN_POINT('Origin',(2.87500000000002,-34.2,-1.525));
#1158=CARTESIAN_POINT('',(2.87500000000002,-34.2,-3.05));
#1159=CARTESIAN_POINT('',(2.87500000000002,-34.2,-5.55111512312578E-16));
#1160=CARTESIAN_POINT('Origin',(2.87500000000002,-34.2,-1.525));
#1161=CARTESIAN_POINT('',(2.87500000000002,-26.9,-3.05));
#1162=CARTESIAN_POINT('',(2.87500000000002,-34.2,-3.05));
#1163=CARTESIAN_POINT('',(2.87500000000002,-26.9,-5.55111512312578E-16));
#1164=CARTESIAN_POINT('Origin',(2.87500000000002,-26.9,-1.525));
#1165=CARTESIAN_POINT('',(2.87500000000002,-34.2,0.));
#1166=CARTESIAN_POINT('Origin',(-2.87499999999998,-34.2,-1.525));
#1167=CARTESIAN_POINT('',(-2.87499999999998,-34.2,-2.77555756156289E-16));
#1168=CARTESIAN_POINT('',(-2.87499999999998,-34.2,-3.05));
#1169=CARTESIAN_POINT('Origin',(-2.87499999999998,-34.2,-1.525));
#1170=CARTESIAN_POINT('',(-2.87499999999998,-26.9,-2.77555756156289E-16));
#1171=CARTESIAN_POINT('',(-2.87499999999998,-34.2,0.));
#1172=CARTESIAN_POINT('',(-2.87499999999998,-26.9,-3.05));
#1173=CARTESIAN_POINT('Origin',(-2.87499999999998,-26.9,-1.525));
#1174=CARTESIAN_POINT('',(-2.87499999999998,-34.2,-3.05));
#1175=CARTESIAN_POINT('Origin',(2.77555756156289E-15,-30.55,0.));
#1176=CARTESIAN_POINT('',(4.40000000000001,-26.9,0.));
#1177=CARTESIAN_POINT('',(-4.4,-34.2,0.));
#1178=CARTESIAN_POINT('Origin',(4.4,-34.2,0.));
#1179=CARTESIAN_POINT('',(-4.4,-34.2,-3.05));
#1180=CARTESIAN_POINT('Origin',(-4.4,-26.9,0.));
#1181=CARTESIAN_POINT('',(4.40000000000001,-26.9,-3.05));
#1182=CARTESIAN_POINT('Origin',(2.77555756156289E-15,-30.55,-3.05));
#1183=CARTESIAN_POINT('',(0.,0.,0.));
#1184=CARTESIAN_POINT('Origin',(-12.14,-12.2,0.));
#1185=CARTESIAN_POINT('',(-12.14,12.65,0.));
#1186=CARTESIAN_POINT('',(-12.14,-12.2,0.));
#1187=CARTESIAN_POINT('',(-12.14,12.65,0.));
#1188=CARTESIAN_POINT('',(-12.14,12.65,-5.3));
#1189=CARTESIAN_POINT('',(-12.14,12.65,0.));
#1190=CARTESIAN_POINT('',(-12.14,-12.2,-5.3));
#1191=CARTESIAN_POINT('',(-12.14,12.65,-5.3));
#1192=CARTESIAN_POINT('',(-12.14,-12.2,0.));
#1193=CARTESIAN_POINT('Origin',(12.71,-12.2,0.));
#1194=CARTESIAN_POINT('',(12.71,-12.2,0.));
#1195=CARTESIAN_POINT('',(-12.14,-12.2,0.));
#1196=CARTESIAN_POINT('',(12.71,-12.2,-5.3));
#1197=CARTESIAN_POINT('',(-12.14,-12.2,-5.3));
#1198=CARTESIAN_POINT('',(12.71,-12.2,0.));
#1199=CARTESIAN_POINT('Origin',(12.71,12.65,0.));
#1200=CARTESIAN_POINT('',(12.71,12.65,0.));
#1201=CARTESIAN_POINT('',(12.71,-12.2,0.));
#1202=CARTESIAN_POINT('',(12.71,12.65,-5.3));
#1203=CARTESIAN_POINT('',(12.71,-12.2,-5.3));
#1204=CARTESIAN_POINT('',(12.71,12.65,0.));
#1205=CARTESIAN_POINT('Origin',(-12.14,12.65,0.));
#1206=CARTESIAN_POINT('',(12.71,12.65,0.));
#1207=CARTESIAN_POINT('',(12.71,12.65,-5.3));
#1208=CARTESIAN_POINT('Origin',(0.285000000000009,0.224999999999991,-5.3));
#1209=CARTESIAN_POINT('Origin',(0.285000000000009,0.224999999999991,0.));
#1210=CARTESIAN_POINT('Origin',(-14.825,-0.345000000000007,1.6));
#1211=CARTESIAN_POINT('',(-14.325,-0.345000000000007,1.6));
#1212=CARTESIAN_POINT('Origin',(-14.825,-0.345000000000007,1.6));
#1213=CARTESIAN_POINT('',(-14.325,-0.345000000000007,0.));
#1214=CARTESIAN_POINT('',(-14.325,-0.345000000000007,1.6));
#1215=CARTESIAN_POINT('Origin',(-14.825,-0.345000000000007,0.));
#1216=CARTESIAN_POINT('Origin',(-14.825,-3.52000000000001,1.6));
#1217=CARTESIAN_POINT('',(-14.325,-3.52000000000001,1.6));
#1218=CARTESIAN_POINT('Origin',(-14.825,-3.52000000000001,1.6));
#1219=CARTESIAN_POINT('',(-14.325,-3.52000000000001,0.));
#1220=CARTESIAN_POINT('',(-14.325,-3.52000000000001,1.6));
#1221=CARTESIAN_POINT('Origin',(-14.825,-3.52000000000001,0.));
#1222=CARTESIAN_POINT('Origin',(-14.825,-6.69500000000001,1.6));
#1223=CARTESIAN_POINT('',(-14.325,-6.69500000000001,1.6));
#1224=CARTESIAN_POINT('Origin',(-14.825,-6.69500000000001,1.6));
#1225=CARTESIAN_POINT('',(-14.325,-6.69500000000001,0.));
#1226=CARTESIAN_POINT('',(-14.325,-6.69500000000001,1.6));
#1227=CARTESIAN_POINT('Origin',(-14.825,-6.69500000000001,0.));
#1228=CARTESIAN_POINT('Origin',(-14.,30.75,0.));
#1229=CARTESIAN_POINT('',(-15.,30.75,1.6));
#1230=CARTESIAN_POINT('Origin',(-14.,30.75,1.6));
#1231=CARTESIAN_POINT('',(-15.,30.75,0.));
#1232=CARTESIAN_POINT('',(-15.,30.75,0.));
#1233=CARTESIAN_POINT('Origin',(-14.,30.75,0.));
#1234=CARTESIAN_POINT('Origin',(14.,30.75,0.));
#1235=CARTESIAN_POINT('',(13.,30.75,1.6));
#1236=CARTESIAN_POINT('Origin',(14.,30.75,1.6));
#1237=CARTESIAN_POINT('',(13.,30.75,0.));
#1238=CARTESIAN_POINT('',(13.,30.75,0.));
#1239=CARTESIAN_POINT('Origin',(14.,30.75,0.));
#1240=CARTESIAN_POINT('Origin',(-14.,-30.75,0.));
#1241=CARTESIAN_POINT('',(-15.,-30.75,1.6));
#1242=CARTESIAN_POINT('Origin',(-14.,-30.75,1.6));
#1243=CARTESIAN_POINT('',(-15.,-30.75,0.));
#1244=CARTESIAN_POINT('',(-15.,-30.75,0.));
#1245=CARTESIAN_POINT('Origin',(-14.,-30.75,0.));
#1246=CARTESIAN_POINT('Origin',(14.,-30.75,0.));
#1247=CARTESIAN_POINT('',(13.,-30.75,1.6));
#1248=CARTESIAN_POINT('Origin',(14.,-30.75,1.6));
#1249=CARTESIAN_POINT('',(13.,-30.75,0.));
#1250=CARTESIAN_POINT('',(13.,-30.75,0.));
#1251=CARTESIAN_POINT('Origin',(14.,-30.75,0.));
#1252=CARTESIAN_POINT('Origin',(16.,-32.75,0.));
#1253=CARTESIAN_POINT('',(16.,32.75,0.));
#1254=CARTESIAN_POINT('',(16.,-32.75,0.));
#1255=CARTESIAN_POINT('',(16.,32.75,0.));
#1256=CARTESIAN_POINT('',(16.,32.75,1.6));
#1257=CARTESIAN_POINT('',(16.,32.75,0.));
#1258=CARTESIAN_POINT('',(16.,-32.75,1.6));
#1259=CARTESIAN_POINT('',(16.,32.75,1.6));
#1260=CARTESIAN_POINT('',(16.,-32.75,0.));
#1261=CARTESIAN_POINT('Origin',(-16.,-32.75,0.));
#1262=CARTESIAN_POINT('',(-16.,-32.75,0.));
#1263=CARTESIAN_POINT('',(16.,-32.75,0.));
#1264=CARTESIAN_POINT('',(-16.,-32.75,1.6));
#1265=CARTESIAN_POINT('',(16.,-32.75,1.6));
#1266=CARTESIAN_POINT('',(-16.,-32.75,0.));
#1267=CARTESIAN_POINT('Origin',(-16.,32.75,0.));
#1268=CARTESIAN_POINT('',(-16.,32.75,0.));
#1269=CARTESIAN_POINT('',(-16.,-32.75,0.));
#1270=CARTESIAN_POINT('',(-16.,32.75,1.6));
#1271=CARTESIAN_POINT('',(-16.,-32.75,1.6));
#1272=CARTESIAN_POINT('',(-16.,32.75,0.));
#1273=CARTESIAN_POINT('Origin',(16.,32.75,0.));
#1274=CARTESIAN_POINT('',(-16.,32.75,0.));
#1275=CARTESIAN_POINT('',(-16.,32.75,1.6));
#1276=CARTESIAN_POINT('Origin',(0.,-8.88178419700125E-15,1.6));
#1277=CARTESIAN_POINT('Origin',(0.,-8.88178419700125E-15,0.));
#1278=CARTESIAN_POINT('',(0.,0.,0.));
#1279=CARTESIAN_POINT('',(0.,0.,0.));
#1280=CARTESIAN_POINT('',(0.,0.,0.));
#1281=CARTESIAN_POINT('',(0.,0.,0.));
#1282=CARTESIAN_POINT('',(0.,0.,0.));
#1283=UNCERTAINTY_MEASURE_WITH_UNIT(LENGTH_MEASURE(0.01),#1297,
'DISTANCE_ACCURACY_VALUE',
'Maximum model space distance between geometric entities at asserted c
onnectivities');
#1284=UNCERTAINTY_MEASURE_WITH_UNIT(LENGTH_MEASURE(0.01),#1297,
'DISTANCE_ACCURACY_VALUE',
'Maximum model space distance between geometric entities at asserted c
onnectivities');
#1285=UNCERTAINTY_MEASURE_WITH_UNIT(LENGTH_MEASURE(0.01),#1297,
'DISTANCE_ACCURACY_VALUE',
'Maximum model space distance between geometric entities at asserted c
onnectivities');
#1286=UNCERTAINTY_MEASURE_WITH_UNIT(LENGTH_MEASURE(0.01),#1297,
'DISTANCE_ACCURACY_VALUE',
'Maximum model space distance between geometric entities at asserted c
onnectivities');
#1287=UNCERTAINTY_MEASURE_WITH_UNIT(LENGTH_MEASURE(0.01),#1297,
'DISTANCE_ACCURACY_VALUE',
'Maximum model space distance between geometric entities at asserted c
onnectivities');
#1288=UNCERTAINTY_MEASURE_WITH_UNIT(LENGTH_MEASURE(0.01),#1297,
'DISTANCE_ACCURACY_VALUE',
'Maximum model space distance between geometric entities at asserted c
onnectivities');
#1289=UNCERTAINTY_MEASURE_WITH_UNIT(LENGTH_MEASURE(0.01),#1297,
'DISTANCE_ACCURACY_VALUE',
'Maximum model space distance between geometric entities at asserted c
onnectivities');
#1290=(
GEOMETRIC_REPRESENTATION_CONTEXT(3)
GLOBAL_UNCERTAINTY_ASSIGNED_CONTEXT((#1283))
GLOBAL_UNIT_ASSIGNED_CONTEXT((#1297,#1299,#1300))
REPRESENTATION_CONTEXT('','3D')
);
#1291=(
GEOMETRIC_REPRESENTATION_CONTEXT(3)
GLOBAL_UNCERTAINTY_ASSIGNED_CONTEXT((#1284))
GLOBAL_UNIT_ASSIGNED_CONTEXT((#1297,#1299,#1300))
REPRESENTATION_CONTEXT('','3D')
);
#1292=(
GEOMETRIC_REPRESENTATION_CONTEXT(3)
GLOBAL_UNCERTAINTY_ASSIGNED_CONTEXT((#1285))
GLOBAL_UNIT_ASSIGNED_CONTEXT((#1297,#1299,#1300))
REPRESENTATION_CONTEXT('','3D')
);
#1293=(
GEOMETRIC_REPRESENTATION_CONTEXT(3)
GLOBAL_UNCERTAINTY_ASSIGNED_CONTEXT((#1286))
GLOBAL_UNIT_ASSIGNED_CONTEXT((#1297,#1299,#1300))
REPRESENTATION_CONTEXT('','3D')
);
#1294=(
GEOMETRIC_REPRESENTATION_CONTEXT(3)
GLOBAL_UNCERTAINTY_ASSIGNED_CONTEXT((#1287))
GLOBAL_UNIT_ASSIGNED_CONTEXT((#1297,#1299,#1300))
REPRESENTATION_CONTEXT('','3D')
);
#1295=(
GEOMETRIC_REPRESENTATION_CONTEXT(3)
GLOBAL_UNCERTAINTY_ASSIGNED_CONTEXT((#1288))
GLOBAL_UNIT_ASSIGNED_CONTEXT((#1297,#1299,#1300))
REPRESENTATION_CONTEXT('','3D')
);
#1296=(
GEOMETRIC_REPRESENTATION_CONTEXT(3)
GLOBAL_UNCERTAINTY_ASSIGNED_CONTEXT((#1289))
GLOBAL_UNIT_ASSIGNED_CONTEXT((#1297,#1299,#1300))
REPRESENTATION_CONTEXT('','3D')
);
#1297=(
LENGTH_UNIT()
NAMED_UNIT(*)
SI_UNIT(.MILLI.,.METRE.)
);
#1298=(
LENGTH_UNIT()
NAMED_UNIT(*)
SI_UNIT($,.METRE.)
);
#1299=(
NAMED_UNIT(*)
PLANE_ANGLE_UNIT()
SI_UNIT($,.RADIAN.)
);
#1300=(
NAMED_UNIT(*)
SI_UNIT($,.STERADIAN.)
SOLID_ANGLE_UNIT()
);
#1301=SHAPE_DEFINITION_REPRESENTATION(#1307,#1318);
#1302=SHAPE_DEFINITION_REPRESENTATION(#1308,#1319);
#1303=SHAPE_DEFINITION_REPRESENTATION(#1309,#1320);
#1304=SHAPE_DEFINITION_REPRESENTATION(#1310,#1321);
#1305=SHAPE_DEFINITION_REPRESENTATION(#1311,#1322);
#1306=SHAPE_DEFINITION_REPRESENTATION(#1312,#1323);
#1307=PRODUCT_DEFINITION_SHAPE('',$,#1325);
#1308=PRODUCT_DEFINITION_SHAPE('',$,#1326);
#1309=PRODUCT_DEFINITION_SHAPE('',$,#1327);
#1310=PRODUCT_DEFINITION_SHAPE('',$,#1328);
#1311=PRODUCT_DEFINITION_SHAPE('',$,#1329);
#1312=PRODUCT_DEFINITION_SHAPE('',$,#1330);
#1313=PRODUCT_DEFINITION_SHAPE($,$,#26);
#1314=PRODUCT_DEFINITION_SHAPE($,$,#27);
#1315=PRODUCT_DEFINITION_SHAPE($,$,#28);
#1316=PRODUCT_DEFINITION_SHAPE($,$,#29);
#1317=PRODUCT_DEFINITION_SHAPE($,$,#30);
#1318=SHAPE_REPRESENTATION('',(#791,#862,#863,#864,#865,#866),#1290);
#1319=SHAPE_REPRESENTATION('',(#792),#1291);
#1320=SHAPE_REPRESENTATION('',(#799),#1292);
#1321=SHAPE_REPRESENTATION('',(#810),#1293);
#1322=SHAPE_REPRESENTATION('',(#817),#1294);
#1323=SHAPE_REPRESENTATION('',(#828),#1295);
#1324=PRODUCT_DEFINITION_CONTEXT('part definition',#1344,'design');
#1325=PRODUCT_DEFINITION('2026-05-17-07-32-17-019','SW3538_140W_Module',
#1331,#1324);
#1326=PRODUCT_DEFINITION('2026-05-17-07-42-51-855','dc-jack',#1332,#1324);
#1327=PRODUCT_DEFINITION('2026-05-17-07-46-04-403','caps',#1333,#1324);
#1328=PRODUCT_DEFINITION('2026-05-17-07-47-55-712','inductor',#1334,#1324);
#1329=PRODUCT_DEFINITION('2026-05-17-07-53-07-893','usb-c',#1335,#1324);
#1330=PRODUCT_DEFINITION('2026-05-17-07-57-09-542','heat-sinks',#1336,#1324);
#1331=PRODUCT_DEFINITION_FORMATION('',$,#1346);
#1332=PRODUCT_DEFINITION_FORMATION('',$,#1347);
#1333=PRODUCT_DEFINITION_FORMATION('',$,#1348);
#1334=PRODUCT_DEFINITION_FORMATION('',$,#1349);
#1335=PRODUCT_DEFINITION_FORMATION('',$,#1350);
#1336=PRODUCT_DEFINITION_FORMATION('',$,#1351);
#1337=PRODUCT_RELATED_PRODUCT_CATEGORY('SW3538_140W_Module',
'SW3538_140W_Module',(#1346));
#1338=PRODUCT_RELATED_PRODUCT_CATEGORY('dc-jack','dc-jack',(#1347));
#1339=PRODUCT_RELATED_PRODUCT_CATEGORY('caps','caps',(#1348));
#1340=PRODUCT_RELATED_PRODUCT_CATEGORY('inductor','inductor',(#1349));
#1341=PRODUCT_RELATED_PRODUCT_CATEGORY('usb-c','usb-c',(#1350));
#1342=PRODUCT_RELATED_PRODUCT_CATEGORY('heat-sinks','heat-sinks',(#1351));
#1343=APPLICATION_PROTOCOL_DEFINITION('international standard',
'automotive_design',2009,#1344);
#1344=APPLICATION_CONTEXT(
'Core Data for Automotive Mechanical Design Process');
#1345=PRODUCT_CONTEXT('part definition',#1344,'mechanical');
#1346=PRODUCT('2026-05-17-07-32-17-019','SW3538_140W_Module',$,(#1345));
#1347=PRODUCT('2026-05-17-07-42-51-855','dc-jack',$,(#1345));
#1348=PRODUCT('2026-05-17-07-46-04-403','caps',$,(#1345));
#1349=PRODUCT('2026-05-17-07-47-55-712','inductor',$,(#1345));
#1350=PRODUCT('2026-05-17-07-53-07-893','usb-c',$,(#1345));
#1351=PRODUCT('2026-05-17-07-57-09-542','heat-sinks',$,(#1345));
#1352=PRESENTATION_STYLE_ASSIGNMENT((#1354));
#1353=PRESENTATION_STYLE_ASSIGNMENT((#1355));
#1354=SURFACE_STYLE_USAGE(.BOTH.,#1356);
#1355=SURFACE_STYLE_USAGE(.BOTH.,#1357);
#1356=SURFACE_SIDE_STYLE('',(#1358));
#1357=SURFACE_SIDE_STYLE('',(#1359));
#1358=SURFACE_STYLE_FILL_AREA(#1360);
#1359=SURFACE_STYLE_FILL_AREA(#1361);
#1360=FILL_AREA_STYLE('Steel - Satin',(#1362));
#1361=FILL_AREA_STYLE('FR4',(#1363));
#1362=FILL_AREA_STYLE_COLOUR('Steel - Satin',#1364);
#1363=FILL_AREA_STYLE_COLOUR('FR4',#1365);
#1364=COLOUR_RGB('Steel - Satin',0.627450980392157,0.627450980392157,0.627450980392157);
#1365=COLOUR_RGB('FR4',0.266666666666667,0.466666666666667,0.4);
ENDSEC;
END-ISO-10303-21;
